<svg id="Layer_1" data-name="Layer 1" xmlns="http://www.w3.org/2000/svg" viewBox="0 0 50 50"><defs><style>.cls-1{fill:#390099;}</style></defs><title>Const Unions Logos-02</title><path class="cls-1" d="M34.9531,22.25c-.0414-.1521-.0807-.2813-.1089-.4129a.1261.1261,0,0,1,.0484-.0924c.1776-.1495.3578-.296.5384-.4419.1691-.1366.34-.2714.5186-.414a22.7293,22.7293,0,0,1-1.8357-2.2332c.1721-.17.3347-.357.5228-.5127.5592-.4631,1.1284-.914,1.6939-1.37.1015-.0818.2061-.16.3047-.2455a.09.09,0,0,1,.1356-.0012,5.7844,5.7844,0,0,1,.9068.9139c.2884.3423.5837.6787.8726,1.02a.1358.1358,0,0,0,.2108.02,1.8,1.8,0,0,0,.1424-.1257.2392.2392,0,0,1,.3486-.0239,3.1044,3.1044,0,0,1,.6369.6448,5.3161,5.3161,0,0,0,.7459.8482.0908.0908,0,0,1,.0267.08.6616.6616,0,0,1-.1065.1755,1.2932,1.2932,0,0,1-.1605.12c-.1269.1-.1439.167-.0459.2884.37.4577.746.91,1.1182,1.3659.2249.2753.4469.5528.6708.83a14.1452,14.1452,0,0,1-2.4763,2.28c-.2052-.196-.4216-.3779-.6084-.5863-.3763-.42-.7357-.8549-1.1038-1.2823-.062-.0719-.1354-.1339-.1979-.2054a.1085.1085,0,0,0-.1471-.024,2.2211,2.2211,0,0,0-.6865.5538c-.0923.0969-.19.1887-.2828.2851a.1809.1809,0,0,1-.2487.029.2289.2289,0,0,0-.3035.03c-2.447,1.9876-4.8755,3.9973-7.2665,6.0519-.8744.7515-1.741,1.5119-2.611,2.2684-.0235.02-.0455.0426-.0777.0728.1806.1673.3546.3305.5307.4914,1.3986,1.2782,2.8743,2.4645,4.35,3.651q2.25,1.8093,4.4845,3.6392c.3549.29.6911.6021,1.0357.9043.013.0114.024.025.0418.0436a9.1929,9.1929,0,0,1-1.1275,1.3913c-.3148-.24-.6308-.4708-.9353-.7157q-2.8434-2.2875-5.6832-4.58-2.0978-1.6872-4.2024-3.3657c-.0273-.0218-.0561-.0418-.0921-.0685-.2676.2075-.5356.4128-.8011.6214-1.5142,1.19-2.975,2.444-4.435,3.699-1.722,1.48-3.4435,2.9612-5.2492,4.34-.072.055-.121.0632-.1853-.0024-.1577-.1608-.3288-.31-.4757-.48-.2142-.2478-.4119-.51-.62-.77.0526-.0537.1009-.1081.1543-.1568,1.9931-1.8189,4.0642-3.5468,6.148-5.26q1.8918-1.555,3.7824-3.1117c.0269-.0221.0528-.0455.0893-.0771-.1531-.1319-.3007-.26-.45-.3873-2.1268-1.8109-4.3215-3.5384-6.496-5.2908-1.035-.8342-2.06-1.6811-3.0917-2.519a.2619.2619,0,0,0-.1785-.0608.7079.7079,0,0,1-.6461-.26,5.5358,5.5358,0,0,0-1.0348-.8517c-.0834-.0513-.17-.0981-.263-.1518-.22.255-.4387.5035-.6522.7563a21.9811,21.9811,0,0,0-2.4538,3.4889,15.247,15.247,0,0,0-1.24,2.8526c-.0473.151-.0749.308-.12.46a1.72,1.72,0,0,1-.1136.2946.5139.5139,0,0,1-.3788.2817c-.0045-.0739-.0116-.1455-.0126-.2173a12.1927,12.1927,0,0,1,.6818-4.1083A19.6813,19.6813,0,0,1,8.5636,22.42q.249-.3928.5114-.7772a.1327.1327,0,0,0,.009-.1721,2.7756,2.7756,0,0,0-.2607-.2863.5681.5681,0,0,1-.2265-.4013.167.167,0,0,1,.0316-.104q.5159-.6089,1.0371-1.2133c.1059-.1226.2173-.2407.33-.3573a.2514.2514,0,0,1,.352-.0363c.0532.0346.1019.0757.1541.1117.1215.0837.14.0847.2349-.0254.4712-.5478.947-1.0918,1.4087-1.6475.606-.7294,1.2-1.4686,1.8-2.2031.0421-.0516.0891-.0993.1322-.147a5.9864,5.9864,0,0,1,1.9332,1.5361c-.2345.3007-.4587.6178-.7132.9084-.555.6337-1.1326,1.2476-1.6867,1.8821-.3428.3925-.6582.809-.9888,1.2123a.1084.1084,0,0,0,.0054.1623,5.3194,5.3194,0,0,0,.9377.8509.3034.3034,0,0,0,.0342.0248.49.49,0,0,1,.2924.5631.1478.1478,0,0,0,.0576.11q2.1377,1.7391,4.2783,3.4745,3.0786,2.5017,6.1538,5.0074a.1141.1141,0,0,0,.1767-.0028c1.48-1.2144,2.9694-2.4178,4.4411-3.6422,1.9733-1.6417,3.9333-3.2993,5.899-4.95C34.9223,22.2774,34.9455,22.2562,34.9531,22.25Z"/><path class="cls-1" d="M29.2985,9.2621c.519-.019.6057.0269.864.4593a.554.554,0,0,1,.5891.1009.6247.6247,0,0,1,.16.2054.1919.1919,0,0,0,.1539.1276,2.5176,2.5176,0,0,1,1.32.732c.2373.2407.4564.4995.68.7537a.1937.1937,0,0,0,.1611.0766c.1246,0,.2676-.0367.3626.067a.7759.7759,0,0,1,.2078.5405.1512.1512,0,0,0,.11.1707,1.2683,1.2683,0,0,1,.256.147.5365.5365,0,0,0,.6784.025c-.011.0331-.0206.0668-.0332.0993a6.6178,6.6178,0,0,1-.6159,1.0687q-.8541,1.3728-1.6827,2.7613c-.2432.4079-.4665.8288-.6774,1.2544a5.3649,5.3649,0,0,0-.29.7593,1.8671,1.8671,0,0,1-1.1079,1.1856,10.7759,10.7759,0,0,1-2.1577.6592,16.4044,16.4044,0,0,1-3.0111.3336,11.2466,11.2466,0,0,1-2.88-.3376c-.9607-.2344-1.9112-.5108-2.8665-.7673a.1493.1493,0,0,1-.1123-.1078c-.3947-1.0967-.8035-2.1879-1.306-3.2412a13.7578,13.7578,0,0,0-1.2189-2.1238c-.2-.2791-.4462-.526-.6737-.7855a2.1008,2.1008,0,0,1-.4417-.6894c-.0125-.0361-.0087-.1129.0024-.1159a.2431.2431,0,0,1,.1632-.0062.4894.4894,0,0,1,.1383.1558.0991.0991,0,0,0,.16.03c.02-.0138.0405-.0281.0612-.0415.11-.0715.2207-.1428.3391-.2194a.3932.3932,0,0,1,.0369-.3589c.043-.0961.0757-.1969.1217-.2914a.1945.1945,0,0,1,.0888-.0772,3.2737,3.2737,0,0,0,1.2478-.9876.4126.4126,0,0,1,.3-.1912.6684.6684,0,0,0,.5231-.43.22.22,0,0,1,.1045-.1029c.3377-.1413.683-.2653,1.0152-.4181a2.5362,2.5362,0,0,0,.5249-.3315.3781.3781,0,0,1,.3625-.0687c.0645.0158.128.0361.1966.0557a.6888.6888,0,0,1,.4733-.3473c.1652-.0493.336-.0838.4958-.1464a2.5914,2.5914,0,0,0,.3241-.19c.0256-.0148.0649-.0324.0869-.023a2.3986,2.3986,0,0,0,1.1974.0879.3813.3813,0,0,0,.3965-.3176A.669.669,0,0,1,24.17,8.294a1.0491,1.0491,0,0,1,.4146-.5546.6739.6739,0,0,1,.0516-.7064,4.8622,4.8622,0,0,0,.2189-.4449,1.7657,1.7657,0,0,0,.0756-.3173c.0184-.0907-.0251-.1281-.1113-.1033-.1713.0491-.3431.0981-.5109.1576-.1609.0571-.3172.1274-.5008.2023a6.4288,6.4288,0,0,1,0-1.6334,3.1814,3.1814,0,0,1,.3093.0948c.11.0459.2095.119.3209.16.1287.0477.2655.0735.4112.1121a.6668.6668,0,0,0-.12-.437c-.0755-.1146-.17-.2169-.2413-.3339-.0679-.1117-.116-.2353-.1876-.3847.3348-.0389.63-.089.9268-.1025a2.8571,2.8571,0,0,1,.6708.048c.3065.06.3232.1156.2089.4036q-.1167.294-.2263.5907a.8646.8646,0,0,0-.0217.1535,1.6622,1.6622,0,0,0,.2791-.0333c.1515-.045.2948-.1195.4474-.1583.312-.0791.2906-.06.3176.2147.0246.2512.009.5064.01.76a2.5067,2.5067,0,0,0-.0012.3378c.0172.1223-.047.1444-.1392.1571a.646.646,0,0,1-.3906-.1025c-.1488-.0765-.3051-.1389-.46-.2025a.4938.4938,0,0,0-.1354-.0082c.0406.1894.0737.3645.1161.5373a8.5266,8.5266,0,0,0,.6559,1.6337.7092.7092,0,0,1,.0624.1337c.043.1818.1649.2325.3373.2321.2281-.0006.4563.012.6843.0233.1675.0083.3036-.1561.4923-.0659a3.3733,3.3733,0,0,0,.4915.1552c.0674.02.1362.0358.2037.0556A.6052.6052,0,0,1,29.2985,9.2621Zm-11.295,3.3195.402-.38c-.203-.0176-.4424.24-.401.3818-.0584.0236-.1178.0449-.1745.0719-.0186.0089-.0424.0328-.0419.0491a.059.059,0,0,0,.1041.0319C17.9326,12.6872,17.9669,12.6334,18.0035,12.5816Zm9.7432,4.4293c.0263-.1083.0445-.2057.0755-.2988.01-.0313.0535-.0518.0817-.0772-.0424-.0079-.0847-.0161-.1271-.0234-.0173-.003-.0351-.0034-.0525-.0058-.4224-.0569-.8441-.1189-1.2673-.1693a2.0524,2.0524,0,0,0-.8.0433.5844.5844,0,0,0,.1634.427c.1095.1116.2346.2078.36.3166a1.0978,1.0978,0,0,1-1.078.4015.8.8,0,0,1-.6935-.4729,1.6449,1.6449,0,0,1,1.0983-.4047l.0629-.3437c-.0379,0-.08-.0032-.1215,0-.2454.0219-.49.0461-.7358.0681-.2417.0217-.2406.0206-.1842.26.0176.075.0316.1535-.0569.2a.3317.3317,0,0,1-.093-.38.5288.5288,0,0,0-.0828-.0034c-.5281.06-1.06.0974-1.5832.187a12.3712,12.3712,0,0,0-2.5389.7829c-.2432.0984-.2444.0979-.1491.3364.0248.0622.0213.11-.0471.1375a.101.101,0,0,1-.1474-.0566,1.0087,1.0087,0,0,0-.0483-.1388c-.0152-.025-.0638-.0541-.0854-.0467-.1051.0363-.2057.0852-.3087.1277-.0829.0341-.1492.0788-.1406.19a1.6752,1.6752,0,0,1,.9914.1833,2.4391,2.4391,0,0,0-.0738-.2557c-.0262-.0811-.075-.1623-.0073-.2478a.8267.8267,0,0,1,.262.6915.2335.2335,0,0,0-.3333.0412c-.135.1522-.2541.3184-.38.4786l.0249.0227c.6917-.3448,1.4732-.4105,2.1976-.7034-.1235-.0382-.126-.1139-.1033-.2l.0333-.0191.128.2027c.1684-.0365.3472-.0749.5258-.1142a10.3283,10.3283,0,0,1,1.7317-.2666c.2209-.0105.2206-.0092.27-.2207.0172-.0738.0525-.1257.1505-.1135V17.79c.3329,0,.6571-.0149.98.0034.5131.0291,1.0273.0622,1.537.1262a20.8238,20.8238,0,0,1,2.7052.5749c.391.103.783.202,1.2028.31-.1583-.204-.4-.323-.3976-.5962l.8731-.329a6.36,6.36,0,0,0-3.1031-1.0683c.0569.1863.038.2365-.1066.2606l.0517-.31c-.1213-.1232-.3018-.0773-.4752-.0847C28.0085,16.9251,27.9647,17.02,27.7467,17.0109Zm-1.2926-5.4456.02.016c.0423-.0012.0846-.0016.1267-.0049a2.6734,2.6734,0,0,1,1.0926.1421c.2889.1.5732.2149.8555.3328a4.3415,4.3415,0,0,0,1.5666.4.3119.3119,0,0,1,.1381.0463c.2478.1409.4955.2821.74.4293a7.7088,7.7088,0,0,0,1.45.7292,1.0842,1.0842,0,0,0,.6086.0516c-.0009-.0124.0009-.0206-.0023-.0256-.0208-.0326-.0417-.0652-.0642-.0966A8.3342,8.3342,0,0,0,31.2792,11.85a12.4148,12.4148,0,0,0-3.5731-1.8807c-.1748-.06-.3515-.1146-.5274-.1717A5.2156,5.2156,0,0,0,26.4541,11.5653Zm-2.3271-.0422a.2071.2071,0,0,0,.0029-.0471,3.8317,3.8317,0,0,0-.593-1.4677.1257.1257,0,0,0-.1565-.0578,11.0368,11.0368,0,0,0-2.2494.812A14.805,14.805,0,0,0,18.0252,12.96a1.0247,1.0247,0,0,0-.3552.5748c-.0373.1827.0039.24.1906.2429a.2974.2974,0,0,0,.1536-.026,1.8611,1.8611,0,0,0,.2679-.2014c.1225-.1107.2273-.2425.3563-.3442a5.4907,5.4907,0,0,1,1.2024-.6994A13.19,13.19,0,0,1,23.4867,11.6C23.699,11.5716,23.912,11.5486,24.127,11.5231ZM22.16,16.5159c-.0318-.0685-.0617-.1461-.1024-.2175-.0628-.11-.1371-.2137-.1994-.3241a1.0215,1.0215,0,0,1-.1171-.7345.1656.1656,0,0,1,.0353-.0847c.0875-.0816.18-.1579.27-.236a.3429.3429,0,0,1,.3562-.064c.0927.0318.1833.0692.2981.113a.95.95,0,0,0-.005-.277,1.6117,1.6117,0,0,0-.175-.3344.182.182,0,0,0-.1166-.0685.987.987,0,0,0-.6385.1348c-.1455.0809-.2988.1478-.4611.2269-.0344-.2543-.0592-.4781-.096-.7a1.7748,1.7748,0,0,0-.2972-.8046.7894.7894,0,0,0-.4275-.3025,3.28,3.28,0,0,0,.0852.5045c.1224.3666.2669.7259.4022,1.0882.04.1072.0793.2148.1227.3327a1.1542,1.1542,0,0,1-.185.0532c-.1575.0168-.3169.0182-.4736.0393a1.8333,1.8333,0,0,0-.3887.0869.3083.3083,0,0,0-.2056.3035c.0472.17.113.3342.1763.5159.0686-.0725.1121-.1235.1608-.169a.6283.6283,0,0,1,.7513-.1115.97.97,0,0,1,.5089.6441,4.6129,4.6129,0,0,1,.0793.5614Zm7.797-3.4744a.5445.5445,0,0,0-.2983.3263,6.1428,6.1428,0,0,0-.15.602c-.0478.2233-.0778.4507-.132.6722a1.3241,1.3241,0,0,1-.1451.2734c-.1225-.1286-.2261-.2288-.32-.3375a.7876.7876,0,0,0-.7-.2955c-.07.0061-.1127.02-.1387.0959a2.385,2.385,0,0,1-.1363.2852.7832.7832,0,0,0-.0939.4924c.0619-.02.1177-.04.1747-.0558a.6727.6727,0,0,1,.9149.71,1.0278,1.0278,0,0,1-.2417.6169,3.2658,3.2658,0,0,0,.4033.12c.11.0184.143-.04.1115-.1458-.01-.0337-.02-.0675-.0271-.1019a.6684.6684,0,0,1,.3695-.7551.5523.5523,0,0,1,.7513.2284.4333.4333,0,0,0,.2773.1844,3.3526,3.3526,0,0,0,.2449-.4688.3605.3605,0,0,0-.3774-.5222c-.14-.0009-.2806.0261-.4211.0294a1.8945,1.8945,0,0,1-.3975-.0176c-.1259-.0241-.1391-.0743-.0823-.1883.1176-.2362.2464-.4674.3544-.7079A1.35,1.35,0,0,0,29.9571,13.0415Zm-4.169,1.5172a.483.483,0,0,0-.1943-.3817.5179.5179,0,0,1-.1944-.3169.1159.1159,0,0,1,.07-.1349.3446.3446,0,0,1,.4168.07c.0854.0735.1641.1553.2528.2242.0714.0555.1539.0811.2173.0306a2.0484,2.0484,0,0,1-.0877-.3917c-.0046-.1923.0252-.3853.0371-.5782.0024-.0383-.0012-.106-.0167-.1106a.1766.1766,0,0,0-.1278.0142.79.79,0,0,0-.1427.1238.6118.6118,0,0,1-.3271.2011.1045.1045,0,0,1-.1342-.0821.3829.3829,0,0,1,.0678-.3683c.062-.0809.1358-.1527.2-.2317.0586-.0718.1118-.1478.1838-.244-.1534,0-.2723-.0022-.391.0005-.2495.0055-.4994.0062-.7481.0243a1.0158,1.0158,0,0,0-.2508.0823,4.6163,4.6163,0,0,1,.3117.3644.3713.3713,0,0,1,.0321.3827.1788.1788,0,0,1-.2662.09,3.4483,3.4483,0,0,1-.2634-.2264c-.05-.0428-.1037-.0819-.1643-.1294l.0366.8893a.6794.6794,0,0,0,.133-.0261c.0789-.03.1509-.08.2312-.1024a.7526.7526,0,0,1,.2664-.03.1447.1447,0,0,1,.1325.171.5381.5381,0,0,1-.1307.3159c-.0453.0583-.0938.1148-.1337.1768a.1587.1587,0,0,0-.0056.1938ZM23.736,9.01a9.3438,9.3438,0,0,1,1.2013,2.2926,1.8923,1.8923,0,0,0,.0544-.46,1.3821,1.3821,0,0,1,.1444-.912.9189.9189,0,0,1-.7807-.4579,2.5954,2.5954,0,0,0-.2352-.2706A.6588.6588,0,0,0,23.736,9.01Zm2.1246,2.1794a7.5769,7.5769,0,0,1,1.0579-2.1809.6038.6038,0,0,0-.38.2633c-.08.1114-.1495.23-.2254.3449a.6364.6364,0,0,1-.5429.3146.2362.2362,0,0,0-.0444.0109.6449.6449,0,0,1,.0882.545c-.03.1159-.0649.2307-.0875.348A.32.32,0,0,0,25.8606,11.1894Zm-8.2733,2.91a1.2262,1.2262,0,0,0,.0061.7695.5415.5415,0,0,0,.6682.3408c-.0914-.2539-.1731-.5112-.2771-.7592A.6008.6008,0,0,0,17.5873,14.099Zm9.4971-4.762a.0734.0734,0,0,0-.0171.0119c-.0307.0385-.06.078-.0913.1163a5.05,5.05,0,0,0-1.0327,2.2288,3.7945,3.7945,0,0,0-.0376.381l.0313.0047A25.5486,25.5486,0,0,1,27.0844,9.337Zm5.3222,5.9415a.7356.7356,0,0,0,.7464-.5246.5028.5028,0,0,0-.1974-.5563Zm-6.6783.8062a2.5767,2.5767,0,0,0-.4738-.871c0,.354-.2472.6083-.2552.9263Zm-1.016-3.935a4.557,4.557,0,0,0-.9411-2.4837C24.1877,10.4581,24.336,11.3387,24.7123,12.15Zm-7.8612.2533a.3236.3236,0,0,0,.059.0908c.0625.0562.131.14.2023.1459a.4343.4343,0,0,0,.4763-.4569c0-.03-.0342-.0856-.057-.0881a1.9663,1.9663,0,0,0-.4349-.0226C16.9393,12.0906,16.8518,12.2184,16.8511,12.403Zm15.3675-1.2685c-.0049-.0136-.0071-.0666-.034-.0869a.3438.3438,0,0,0-.5178.0921.1841.1841,0,0,0,.0246.2159.3107.3107,0,0,0,.2978.0835A.2888.2888,0,0,0,32.2186,11.1345Zm.9979,1.3941a1.5253,1.5253,0,0,0,.1859-.0446.1138.1138,0,0,0,.0625-.0723.2874.2874,0,0,0-.2712-.3429.2617.2617,0,0,0-.2747.2611c-.01.1323.0294.1672.2149.19C33.1548,12.5222,33.1758,12.5242,33.2165,12.5286ZM18.0244,11.4412a.9938.9938,0,0,0-.1533.0342.3125.3125,0,0,0-.1515.3592.5049.5049,0,0,0,.3352.1439.16.16,0,0,0,.06-.0566.4376.4376,0,0,0,.0429-.3752C18.1393,11.4744,18.1058,11.4327,18.0244,11.4412Zm2.745-1.3508a1.9316,1.9316,0,0,0,.2013-.0589.1809.1809,0,0,0,.1245-.2.34.34,0,0,0-.128-.19.2458.2458,0,0,0-.3249.0919.3941.3941,0,0,0-.0656.26C20.5852,10.0387,20.7076,10.0618,20.7694,10.09Zm-.9153.38c.1522.0059.3059.02.41-.1249.0193-.027.0357-.0878.0221-.1011a.9988.9988,0,0,0-.2451-.2016.2216.2216,0,0,0-.2563.0772c-.0606.069-.0227.1428.0194.2127A.7943.7943,0,0,1,19.8541,10.4705Zm13.98,2.4373-.0013-.0086c-.06.01-.1353,0-.1781.0328-.075.0573-.0084.3608.084.3708a1.4458,1.4458,0,0,0,.35-.0355c.0135-.002.0291-.03.0338-.0477.0591-.231-.0009-.31-.2356-.3117C33.87,12.9077,33.852,12.9078,33.8344,12.9078ZM21.4294,9.7513a2.5509,2.5509,0,0,0,.285-.0163.2823.2823,0,0,0,.2378-.26.093.093,0,0,0-.0652-.1142.3383.3383,0,0,0-.3493.0367A.3252.3252,0,0,0,21.4294,9.7513Zm-4.5438,3.31a.7876.7876,0,0,0-.0575-.1574c-.0171-.0275-.0721-.0611-.0924-.0521a1.9746,1.9746,0,0,0-.2929.16.113.113,0,0,0-.0255.1069,1.1659,1.1659,0,0,0,.13.1893.1418.1418,0,0,0,.2541-.016A2.0277,2.0277,0,0,0,16.8856,13.0612Zm8.0353,4.2125a.7242.7242,0,0,0,.5393.0865c.0484-.0189.1245-.0664.1222-.0956a.3562.3562,0,0,0-.086-.1809.1851.1851,0,0,0-.1232-.0463A.5031.5031,0,0,0,24.9209,17.2737Zm6.0207-6.7562a1.3575,1.3575,0,0,0,.0077.1523.2793.2793,0,0,0,.2774.2272.2558.2558,0,0,0,.2475-.2043c.0184-.0843-.0077-.1426-.0958-.1507C31.237,10.5291,31.0947,10.5256,30.9416,10.5175Zm-8.107-1.3219c-.0212-.0511-.0281-.1208-.0661-.15a.28.28,0,0,0-.3761.0722.2724.2724,0,0,0-.0318.2137c.02.0439.1214.0581.1894.07a.4736.4736,0,0,0,.1339-.0234C22.787,9.3633,22.8472,9.3183,22.8346,9.1956Zm-3.6218,1.6721c.199-.0093.3075-.1132.3012-.2884-.0032-.0911-.1142-.1326-.3283-.1229-.0833.0037-.1261.0785-.1221.2133C19.0684,10.8282,19.102,10.8729,19.2128,10.8677Zm13.331.707a.34.34,0,0,0-.0684.0074c-.079.0213-.1464.0582-.1486.1531a.1578.1578,0,0,0,.1406.18.6411.6411,0,0,0,.2271-.0051.15.15,0,0,0,.1063-.2071C32.775,11.6178,32.6921,11.5737,32.5438,11.5747Zm-14.1821-.5263a2.16,2.16,0,0,0,.1388.24.1494.1494,0,0,0,.2751-.0284.3675.3675,0,0,0,.0385-.1294c.012-.12-.0569-.193-.1755-.1726A2.0183,2.0183,0,0,0,18.3617,11.0484Zm.4767,6.1477a1.8508,1.8508,0,0,0,.1112.3164.4178.4178,0,0,0,.1742.1522.15.15,0,0,0,.143-.0342.313.313,0,0,0,.0159-.195c-.0089-.0386-.0631-.0754-.1053-.096C19.0768,17.29,18.9713,17.2514,18.8384,17.1961Zm9.1488-8.26c-.1583,0-.19.0266-.1889.1425a.3171.3171,0,0,0,.2917.2555.1106.1106,0,0,0,.0589-.038.2.2,0,0,0,.0277-.234C28.1355,8.9687,28.0831,8.906,27.9872,8.936Zm3.4269,8.3906c.1264.09.2488.096.341-.0255a3.2347,3.2347,0,0,0,.2007-.3425A.5886.5886,0,0,0,31.4141,17.3266ZM29.0315,9.2572a3.5619,3.5619,0,0,0-.3542-.0435.1356.1356,0,0,0-.1046.08c-.0112.06-.0128.1531.0233.1846A.283.283,0,0,0,29.0315,9.2572Zm-3.5138,1.41c.0467-.126.0469-.3236.0008-.326a.6375.6375,0,0,0-.2912.0425c-.0351.0162-.0571.1491-.0292.1953C25.2665,10.6919,25.3967,10.67,25.5177,10.6667Zm5.0606-.37c-.021-.05-.0286-.1267-.0659-.1464a1.1181,1.1181,0,0,0-.2817-.09c-.0681-.0149-.0919.0276-.084.0946.0174.1463.1255.2242.3221.24C30.5458,10.4009,30.5731,10.3743,30.5783,10.2964Zm-.9559-.3916c.0609-.0265.1313-.0374.1382-.0644a.2254.2254,0,0,0-.0226-.1649.3025.3025,0,0,0-.4092-.016c-.0358.0392-.0526.0819.0058.1116C29.4294,9.8192,29.5274,9.8611,29.6224,9.9048ZM19.3247,18.3609c.023.0807.0413.1378.0551.196a.601.601,0,0,0,.0148.1031.1336.1336,0,0,0,.0677.0674c.0156.0056.0475-.0243.0674-.0432.0428-.04.0832-.0836.1237-.1266s.0821-.0893.1232-.134l-.0126-.03C19.6117,18.4527,19.4749,18.2292,19.3247,18.3609Zm6.1982-6.27c.0267-.1223-.0087-.2036-.1092-.2308a.2441.2441,0,0,0-.2815.162.14.14,0,0,0,.02.1129.1538.1538,0,0,0,.1139.0148C25.3477,12.1367,25.4275,12.1137,25.5229,12.0911Zm-.234-.638a.2357.2357,0,0,0,.2325-.2044c.0127-.1106-.0922-.0965-.15-.1213-.0289-.0124-.1069.0145-.1126.0365-.0234.0909-.1117.1864-.0076.28C25.2621,11.4541,25.2839,11.452,25.2889,11.4531Zm.17,3.3864c-.0071.2625.186.4177.3128.6086C25.7122,15.2221,25.7267,14.9576,25.4593,14.84Zm-8.1282-1.0179a1.593,1.593,0,0,0-.1459.1909.2009.2009,0,0,0-.0291.153c.0211.04.0925.053.1419.0778l.0327-.0185C17.2462,14.0909,17.4959,13.9812,17.3311,13.8216Zm4.89-3.8661-.0105-.0272c-.11.0323-.2191.0643-.3284.0975a.04.04,0,0,0-.0234.0205c-.0328.0882-.105.0825-.18.0836-.0847.0012-.17.0131-.19.1355A2.2515,2.2515,0,0,0,22.2211,9.9555ZM26.0057,16c.0666-.0331.0655-.0514.0332-.105a.8446.8446,0,0,1-.1063-.2395c-.0237-.103-.05-.1465-.1652-.1527Zm-8.5772-2.9073c-.11.0042-.1957.0778-.1807.1414.0058.0244.0629.0621.0734.0557a.9352.9352,0,0,0,.16-.13Zm15.875.846a1.1724,1.1724,0,0,0,.0374.196,1.0016,1.0016,0,0,0,.0951.1625C33.4757,14.0523,33.4746,14.05,33.3035,13.9388Zm-16.1806-.64c-.0587.0665-.1447.1092-.0853.1989a.13.13,0,0,0,.1256.0156C17.2322,13.4422,17.1767,13.3767,17.1229,13.299Zm5.49-3.5624a.2764.2764,0,0,0-.2548.12C22.5994,9.8954,22.6415,9.8762,22.613,9.7366ZM19.5748,11.3l-.0206-.0349c-.1557-.0131-.1831.0053-.1723.1507Zm3.9988-1.9578c-.0139.0288-.0455.0721-.0376.0814.0579.0675.1238.1282.1871.191L23.74,9.596Zm-.77.4131.0214.04L23.0221,9.7l-.02-.0417A.1821.1821,0,0,0,22.8034,9.7549Zm-3.5588,1.7912-.0066-.0549h-.1436l.0107.0957Zm1.5119-.9812.0182.0257c.1209-.0027.1518-.0251.1535-.1471Zm-.3987.1937.0364.0542.174-.1148-.0336-.0519Z"/><path class="cls-1" d="M36.3087,30.04c.5422,1.429,1.2987,2.7494,1.9146,4.1567.0441-.0542.0793-.0962.113-.1394A9.662,9.662,0,0,0,39.3927,32.22c.322-.677.6532-1.35.9807-2.0241.0092-.019.0241-.0356.0312-.0551.032-.089.0859-.1019.1781-.0819a3.2035,3.2035,0,0,0,.894-.0112,4.4236,4.4236,0,0,1,.7778-.0057.4773.4773,0,0,1,.39.5505c-.169.0168-.3426.0314-.5155.0523a3.5942,3.5942,0,0,0-.426.0662.2235.2235,0,0,0-.1822.2244,21.4681,21.4681,0,0,0-.0586,2.5248c.0161.3978.0447.795.0615,1.1928a.2616.2616,0,0,0,.2089.2589c.1347.0376.277.0475.4149.0745.12.0236.24.0506.3583.0831a.1112.1112,0,0,1,.0828.1287c-.0061.1053-.0016.2112-.0016.3345-.1009,0-.1978-.001-.2946,0-.5288.0067-1.0581.03-1.5863.0157-.3788-.01-.7566-.0662-1.1339-.11-.0574-.0067-.1517.0113-.1631-.0927-.02-.1806.0193-.29.1392-.3312a1.2523,1.2523,0,0,1,.2793-.0481c.112-.0111.2249-.0162.3375-.0173a.1717.1717,0,0,0,.1613-.1119,1.6927,1.6927,0,0,0,.2032-.76c.01-.5985-.0052-1.1974-.0083-1.7962-.0018-.3521,0-.7042,0-1.0773-.0279.0464-.05.0789-.0679.1137-.46.9042-.9145,1.8107-1.38,2.712-.2358.4567-.4915.903-.7345,1.3561a.1514.1514,0,0,1-.1608.0883.52.52,0,0,1-.4123-.2251,2.1619,2.1619,0,0,1-.1977-.3358q-.849-1.7773-1.6931-3.5569a.5157.5157,0,0,0-.1017-.1472c-.0143.1648-.0325.3293-.0422.4944a19.8237,19.8237,0,0,0,.0214,2.7041.8636.8636,0,0,1,.0122.1262c-.016.2222.123.3152.343.3461.1186.0166.2381.027.3569.0424a.8064.8064,0,0,1,.1342.0282c.1422.0441.1715.0856.1715.234,0,.0671-.0036.1343.001.201s-.0262.085-.0872.0847q-.9255-.0047-1.8511-.0069c-.24-.0007-.48-.0005-.72-.0007h-.1172v-.4736c.2184-.0365.435-.0634.6468-.112a1.22,1.22,0,0,0,.326-.14.1808.1808,0,0,0,.07-.1389,18.069,18.069,0,0,1,.1307-2.0137,4.7649,4.7649,0,0,0-.0113-1.2021,1.0157,1.0157,0,0,0-.963-.9327c-.045-.0061-.09-.0119-.1334-.0176a.3287.3287,0,0,1,.2915-.4547,4.65,4.65,0,0,1,.705.0051c.372.0191.7434.05,1.1152.0737A.81.81,0,0,0,36.3087,30.04Z"/><path class="cls-1" d="M9.8492,30.1757c.3638-.0244.7111-.0523,1.0589-.07.6579-.034,1.3158-.077,1.9742-.0887a5.4807,5.4807,0,0,1,1.7246.2074,1.6814,1.6814,0,0,1,.8079.4775A1.134,1.134,0,0,1,15.23,32.361c-.1565.1123-.3319.1985-.4992.2957-.0508.0295-.1036.0555-.1675.09a1.0305,1.0305,0,0,1,.57.9142c.0549.3655.09.7341.126,1.1022a.1932.1932,0,0,0,.1442.1847c.1238.04.2509.0687.3756.1056a.3532.3532,0,0,1,.2794.2307.1808.1808,0,0,1-.0389.1852.8441.8441,0,0,1-.8506.2475.9887.9887,0,0,1-.8779-1.0176c-.0259-.323-.0363-.6473-.0667-.97a.8217.8217,0,0,0-.2676-.5907.2116.2116,0,0,0-.12-.0546c-.6129-.0028-1.2259-.0011-1.8388,0a.1239.1239,0,0,0-.03.0118,3.72,3.72,0,0,0,.0639,1.4084.7716.7716,0,0,0,.7861.57c.0879.0012.1758,0,.2643,0a.3544.3544,0,0,1-.2109.4871,1.1715,1.1715,0,0,1-.3723.06c-.6978-.0024-1.3955-.0121-2.0932-.0239a2.9029,2.9029,0,0,1-.3673-.04c-.1342-.02-.1727-.0663-.1948-.2178-.0188-.1292.0145-.2206.1261-.2611a2.8056,2.8056,0,0,1,.3778-.0921c.1409-.03.286-.0441.4235-.0849.1648-.0489.1947-.1162.1966-.2885.0073-.6518.02-1.3036.0292-1.9555a10.4168,10.4168,0,0,0-.0787-1.6246.302.302,0,0,0-.2616-.2783c-.1727-.0313-.3485-.048-.5237-.062-.2846-.0228-.2848-.02-.2848-.3025ZM11.9933,32.43c.4019.0181.8131.047,1.2245.0518a2.4653,2.4653,0,0,0,.9556-.1422.72.72,0,0,0,.4715-.5514.7564.7564,0,0,0-.4752-.9326c-.0353-.0156-.0713-.03-.108-.0424a3.5264,3.5264,0,0,0-1.3374-.13c-.273.0163-.5452.0458-.83.07Z"/><path class="cls-1" d="M27.514,42.47a.5115.5115,0,0,1-.5255-.4034.88.88,0,0,0-.5129-.5946,3.2889,3.2889,0,0,0-1.285-.309,2.3686,2.3686,0,0,0-1.0083.1322.7944.7944,0,0,0-.5662.6488.5963.5963,0,0,0,.3121.64,2.0274,2.0274,0,0,0,.7964.2309c.5175.0631,1.0369.1106,1.5543.1738a3.2629,3.2629,0,0,1,.8969.2321,1.25,1.25,0,0,1,.7874,1.1218,1.82,1.82,0,0,1-.3962,1.3754,1.96,1.96,0,0,1-1.3336.6758,4.5813,4.5813,0,0,1-1.6692-.1995c-.3513-.0892-.7017-.1825-1.0533-.2707-.1635-.041-.2292-.0017-.291.1587a1.1492,1.1492,0,0,1-.0655.1552.1925.1925,0,0,1-.2.089c-.0807-.0048-.1021-.06-.1219-.1236a3.179,3.179,0,0,1-.1133-1.151c.0163-.2759.0751-.5494.1165-.8237.0132-.0875.0541-.11.1465-.0813a.4051.4051,0,0,1,.3286.3754.7552.7552,0,0,0,.2559.4513,2.65,2.65,0,0,0,1.6433.7635,2.4513,2.4513,0,0,0,1.1863-.1275,1.1066,1.1066,0,0,0,.6285-.5361.7749.7749,0,0,0-.3633-1.0719,2.5189,2.5189,0,0,0-.9646-.209c-.5061-.0338-1.0131-.0543-1.5192-.0882a2.8356,2.8356,0,0,1-.4267-.0711,1.3522,1.3522,0,0,1-1.0262-1.3462,1.5764,1.5764,0,0,1,1.224-1.6068,3.726,3.726,0,0,1,1.9129-.0277,8.8151,8.8151,0,0,1,.874.2761.2356.2356,0,0,0,.303-.0923c.03-.0435.0553-.09.0852-.1336a.2373.2373,0,0,1,.2185-.1041c.07.0025.1223.0245.1368.1022.0366.1969.089.392.1094.59a3.418,3.418,0,0,1-.0278,1.0105C27.55,42.3586,27.53,42.4143,27.514,42.47Z"/><path class="cls-1" d="M22.6329,17.4012c-.0117.11-.0166.1909-.0295.2707a.39.39,0,0,1-.4682.3182.3722.3722,0,0,1-.3051-.417.4271.4271,0,0,1,.36-.4426.5334.5334,0,0,1,.3927.1261C22.622,17.2881,22.6225,17.3678,22.6329,17.4012Zm-.4066.0681c-.0612.0176-.1577-.0393-.157.0844a.1092.1092,0,0,0,.124.1229.1569.1569,0,0,0,.166-.1427C22.3555,17.4253,22.2679,17.4944,22.2263,17.4693Z"/><path class="cls-1" d="M28.9274,17.6423c-.0228.2685.0124.2339-.2493.2689a1.0557,1.0557,0,0,1-.314-.003.237.237,0,0,1-.2043-.3416.6662.6662,0,0,1,.3575-.4106.2226.2226,0,0,1,.3381.1379A2.7622,2.7622,0,0,1,28.9274,17.6423Zm-.2266-.1718a1.6208,1.6208,0,0,0-.22.0035c-.0228.0032-.0479.0445-.0564.073a.0728.0728,0,0,0,.0369.06A.19.19,0,0,0,28.7008,17.4705Z"/><path class="cls-1" d="M26.2975,17.5237l.0605-.9044a.3445.3445,0,0,1,.1806.3771.6733.6733,0,0,1-.1884.54Z"/><path class="cls-1" d="M27.1554,17.7348l.0643-.5907c.1432.023.1889.1082.1765.28C27.3811,17.6327,27.3153,17.731,27.1554,17.7348Z"/><path class="cls-1" d="M20.756,18.1986a.6787.6787,0,0,1-.2554-.7081C20.6526,17.542,20.688,17.8219,20.756,18.1986Z"/><path class="cls-1" d="M22.6885,17.2755c.173-.0058.22.08.1876.3248C22.7262,17.6392,22.667,17.4583,22.6885,17.2755Z"/><path class="cls-1" d="M29.96,18.2658c-.05-.1607.07-.2625.1317-.3989a.21.21,0,0,1,.0541.25C30.1176,18.205,30.0758,18.2807,29.96,18.2658Z"/><path class="cls-1" d="M30.5551,18.0025c-.0279-.2006.0218-.27.1827-.2628C30.79,17.911,30.7253,18.0071,30.5551,18.0025Z"/><path class="cls-1" d="M27.7053,17.4756c0-.0969-.0037-.1946.0031-.2916a.0835.0835,0,0,1,.0645-.051c.0672.0072.1049.1185.0829.2352C27.8417,17.4431,27.8124,17.5037,27.7053,17.4756Z"/><path class="cls-1" d="M29.098,17.47c-.0262-.1938.0293-.268.1869-.2588C29.3267,17.3956,29.2652,17.4837,29.098,17.47Z"/><path class="cls-1" d="M26.8464,17.126a.2034.2034,0,0,1,.0555.2608.1159.1159,0,0,1-.09.0306c-.0157-.0021-.0405-.05-.0357-.072C26.792,17.2756,26.8191,17.2084,26.8464,17.126Z"/><path class="cls-1" d="M29.78,17.1974a.13.13,0,0,1,.0238.2021c-.0152.0193-.0893.0245-.0982.011C29.6439,17.317,29.724,17.2659,29.78,17.1974Z"/><path class="cls-1" d="M23.1762,17.0783l.0286.1392-.0959.0026v-.135Z"/></svg>