<svg id="Layer_1" data-name="Layer 1" xmlns="http://www.w3.org/2000/svg" viewBox="0 0 50 50"><defs><style>.cls-1{fill:#390099;}</style></defs><title>Const Unions Logos-02</title><path class="cls-1" d="M32.415,27.2011c.77.5632,1.544,1.1224,2.3088,1.6932a.2344.2344,0,0,0,.3377-.0052c.7094-.529,1.4254-1.049,2.1395-1.5716.0453-.0331.0933-.0625.1868-.1248l-1.3295,3.8344c.2579-.14.48-.27.7107-.383a2.52,2.52,0,0,1,.4588-.1732.3935.3935,0,0,1,.5428.3582,3.5569,3.5569,0,0,1-.0489.6547,1.1438,1.1438,0,0,1-.0584.19L40.53,30.65c-.1143.2226-.2058.4043-.3006.5843-.3237.6145-.6462,1.23-.9754,1.8412a.2779.2779,0,0,0,.0024.2956c.3992.76.7916,1.5241,1.1857,2.287.0257.05.048.1015.0968.2056L36.92,34.3844a1.5039,1.5039,0,0,1,.5144.941.6478.6478,0,0,1-.72.809c-.0938,0-.1877,0-.3136,0l1.1606,2.8263c-.406-.244-.7707-.4629-1.1351-.6822-.4708-.2835-.9432-.5646-1.4109-.8532a.21.21,0,0,0-.2547.0024q-1.0923.666-2.1919,1.32a.3078.3078,0,0,0-.176.28,3.5047,3.5047,0,0,1-.6,1.6069,8.1159,8.1159,0,0,0-2.9972-3.43l2.2,2.829-.4842.15c.1279.17.2514.3195.36.48a2.3818,2.3818,0,0,1-.2481,3.1969c-.3057.3228-.6669.593-1.05.9286-.446-2.35-1.7122-4.2672-2.7687-6.2822.0152.061.03.122.0457.1829a14.1112,14.1112,0,0,0,1.2142,2.6819c.22.4474.4538.8884.68,1.3327.0222.0435.0376.09.0605.146h-.3586a2.2935,2.2935,0,0,1,.1283,2.8161,2.2675,2.2675,0,0,1-1.6714,1.0194c-.07-.3738-.1343-.7444-.2082-1.1133a21.5407,21.5407,0,0,0-.8575-3.06c-.2578-.7176-.4408-1.4621-.6577-2.1945-.0169-.0573-.0378-.1133-.0568-.17l-.0614.0135c.0673.4454.1257.8924.204,1.3359.1066.6033.2309,1.2035.34,1.8063a.7435.7435,0,0,1-.0387.23c.0418.1933.0824.4193.14.6407.118.4517.2361.9037.3722,1.35a1.1708,1.1708,0,0,0,.5063.7226c-.1942.5315-.6226.7378-1.308.6359-.021.1786-.0316.3591-.0651.5353a1.7131,1.7131,0,0,1-.5583,1.0094.4619.4619,0,0,0-.2.573c-.2363-.1927-.43-.2158-.6383-.04.0845-.3035-.1308-.4268-.2923-.586a1.91,1.91,0,0,1-.5477-1.2767c-.0049-.0687-.0007-.138-.0007-.2256a1.0536,1.0536,0,0,1-1.33-.5895,3.6966,3.6966,0,0,0,.8733-2.0673c.0622-.2335.1021-.473.1465-.6833a.7562.7562,0,0,1-.0355-.2288c.1423-.7765.2984-1.55.4354-2.3279a5.2726,5.2726,0,0,0,.0668-.9252c-.1322.4535-.2588.9087-.3978,1.36-.299.9708-.63,1.9326-.8983,2.9117-.1947.7109-.31,1.4436-.46,2.1665-.0127.0611-.0249.1223-.037.1819a2.3514,2.3514,0,0,1-1.5737-3.812h-.35c.144-.2856.2768-.5525.4127-.8177.3744-.73.7672-1.4523,1.1188-2.1936.2114-.4457.3594-.9215.5358-1.3837l-.0567-.0248c-.13.2448-.261.489-.3893.7346a33.831,33.831,0,0,0-1.8677,3.8264c-.1054.2837-.2121.5685-.2889.8606s-.1167.5926-.1723.8872a3.2406,3.2406,0,0,1-1.84-2.6569,2.7666,2.7666,0,0,1,.712-1.7174c.04-.0487.08-.0973.1185-.1473.0063-.0083.0033-.0237.006-.0477l-.4653-.1445,2.2042-2.8307a8.1133,8.1133,0,0,0-2.999,3.4256,2.7936,2.7936,0,0,1,.7554-4.1486c-.0024-.011-.0013-.0283-.0079-.032a1.2816,1.2816,0,0,1-.4413-1.7267.1874.1874,0,0,1,.147-.094,4.5256,4.5256,0,0,0,3.6838-1.0754,9.5719,9.5719,0,0,0,2.0635-2.2074.6717.6717,0,0,0,.1123-.722,9.2973,9.2973,0,0,1-2.6718,2.73V31.8774a2.5065,2.5065,0,0,1-1.5567.1156,2.4918,2.4918,0,0,1-1.3493,2.136,1.9051,1.9051,0,0,1-1.7347.2522l.5269-.6258-.0246-.0212-.8066.5834c.1732.1879.4236.3488.3418.658-.075.2834-.32.39-.5722.4819a2.3224,2.3224,0,0,1,.1259.3088c.0385.1517.0775.3082-.0741.4373-.0323.0275-.0209.1061-.03.1664a.4715.4715,0,0,0,.49-.3427c.0963-.2714.1887-.5441.3025-.8152a3.8275,3.8275,0,0,1,.23,1.7946,1.3662,1.3662,0,0,1-1.7068,1.0139c-.0555-.0115-.1105-.0248-.19-.0429a2.7841,2.7841,0,0,1-.2246,1.218,2.5921,2.5921,0,0,1-.7884.95,2.4241,2.4241,0,0,1-1.0161-2.155c-.1492.0211-.2831.05-.4183.0577a1.3616,1.3616,0,0,1-1.5209-1.5875,6.1839,6.1839,0,0,1,.28-1.2626l.1936.5341.3923-.3123a2.4251,2.4251,0,0,1-.3378-.4073c-.0945-.1805.0035-.3546.1632-.55a1.0123,1.0123,0,0,0-.3158-.03,1.9285,1.9285,0,0,1-1.5223-.2782A2.734,2.734,0,0,1,7.7238,32.845a1.9443,1.9443,0,0,1,1.5108-2.7072,1.9874,1.9874,0,0,1,1.7.5029,4.7832,4.7832,0,0,1,1.0648,1.37.7489.7489,0,0,0,.1039.1509,12.7633,12.7633,0,0,0-.4216-2.3086,3.22,3.22,0,0,1,.8892-3.503c.5241-.4853.4157-.4858.9493.01a3.2685,3.2685,0,0,1,.9088,3.42c-.1775.7152-.2982,1.4447-.4418,2.1683a1.363,1.363,0,0,0-.0015.2217c.0521-.0885.0861-.1451.1189-.2022a4.5694,4.5694,0,0,1,1.2591-1.4962,2.0453,2.0453,0,0,1,2.9342.6816c.0142.0272.0307.0533.0443.0765l.7208-.8633a2.048,2.048,0,0,1-1.3072-1.1924c.2989,0,.5882.0189.8743-.0034a4.6137,4.6137,0,0,0,2.607-1.1574c.3146-.2611.59-.5693.88-.86a.1529.1529,0,0,0,.0439-.1235c-.072-.2127-.1549-.4218-.2481-.6688-.0268.0847-.0465.134-.0581.1852a2.1663,2.1663,0,0,1-1.0105,1.3646.9808.9808,0,0,1-1.3917-.1593,1.7594,1.7594,0,0,1-1.2754.41,1.0383,1.0383,0,0,1-1.0378-.752c-1.1352.1693-1.7839-.2528-1.8807-1.2116-.9955.0985-1.797-1.1066-1.2589-1.8528a1.307,1.307,0,0,1-1.073-.6753,1.2179,1.2179,0,0,1,.0018-1.26,1.1752,1.1752,0,0,1-.7142-.8222,1.944,1.944,0,0,1,.2024-1.1137,2.0181,2.0181,0,0,1-1.6881-.4,2.0566,2.0566,0,0,1-.7243-1.376,4.2253,4.2253,0,0,0,2.7506-.2648c-.3225-.0285-.6914-.0718-1.0615-.0882a2.2979,2.2979,0,0,0-.4262.0764,2.5622,2.5622,0,0,1-1.55-.2278,1.8662,1.8662,0,0,0-.4854-.1514,2.4205,2.4205,0,0,1-1.5628-1.1139c-.1988-.2962-.3525-.6226-.5506-.9784.21.0112.376.0222.5417.0284q1.8281.0685,3.656.1368c.12.0046.1854-.02.1292-.1773-.4246-.0116-.8542-.0055-1.2807-.0389a8.3061,8.3061,0,0,1-2.1133-.2175c-.4015-.1385-.79-.3156-1.2289-.4935l.5542-.5105a2.71,2.71,0,0,1-2.221-1.4936,2.7158,2.7158,0,0,1,.0814-2.148,13.5966,13.5966,0,0,0,5.4587,2.5959l.0422-.0458a.6871.6871,0,0,0-.1412-.1349,15.78,15.78,0,0,0-1.6775-.8354,18.839,18.839,0,0,1-2.5882-1.5489c-.1094-.0613-.2109-.1368-.3354-.2184l.4838-.3472c-.0581-.0265-.1-.0481-.143-.0648A2.1306,2.1306,0,0,1,4.9112,8.434a5,5,0,0,1,.3921-2.1069c.09-.22.1857-.4384.3-.7069.0429.1668.0842.282.101.4006a3.18,3.18,0,0,0,.9524,1.7516,17.663,17.663,0,0,0,3.0571,2.4488c.4044.27.82.5229,1.2372.7881.077-.091.0975-.1527.0037-.2415A14.8284,14.8284,0,0,0,9.5792,9.4654C8.743,8.8574,8.0868,8.066,7.3115,7.4a.88.88,0,0,0-.1-.0621L7.3857,7.2a4.0764,4.0764,0,0,1-.48-.3959,2.5121,2.5121,0,0,1-.5848-1.683A2.9877,2.9877,0,0,1,7.8761,2.4154c.2281-.1454.476-.26.7647-.4154-.1051.2133-.1785.3883-.2744.55a.6524.6524,0,0,0-.0581.5274A5.0877,5.0877,0,0,0,8.9847,4.51a16.9308,16.9308,0,0,0,2.5467,3c.3566.3492.7279.6833,1.0931,1.0236.05.0464.1029.0892.1581.1367a5.587,5.587,0,0,1,.2139-.5164.7688.7688,0,0,1,.7018-.4659c.13-.0009.1821.0415.2172.17a9.08,9.08,0,0,0,.8231,2.0511,2.9232,2.9232,0,0,0,1.0794,1.1634,4.4907,4.4907,0,0,1,1.3358,1.33c.5294.7388,1.04,1.4934,1.5185,2.2658a1.2487,1.2487,0,0,1-.5,1.8715,1.899,1.899,0,0,1-.2375.1176,1.1255,1.1255,0,0,0-.7954,1.384,3.3034,3.3034,0,0,0,1.0574,1.9251,2.0111,2.0111,0,0,0,2.4644.0706c.1436-.09.13-.2441.1041-.3916a8.1755,8.1755,0,0,1-.168-1.0263,2.0676,2.0676,0,0,1,1.0908-1.9818c.0483-.0287.0971-.0568.167-.0976-.2933-.18-.54-.3811-.5311-.7511a1.01,1.01,0,0,1,.4725-.7692,2.2072,2.2072,0,0,0,.239.1964,3.1871,3.1871,0,0,0,.5895.3312.5928.5928,0,0,0,.7545-.4022c.0361-.0793.0578-.1652.0961-.2769a4.9346,4.9346,0,0,0-1.9032-.0375l.7667-.86c-.213.0178-.4519.0222-.6851.0606-.48.0789-.9545.1884-1.435.2606a3.4011,3.4011,0,0,1-.7742.0295,1.1361,1.1361,0,0,1-1.0909-1.432c.0235-.1346.053-.2682.0871-.44.0717.0841.1285.14.1736.205a1.7024,1.7024,0,0,0,1.6631.695c.5411-.0441,1.0784-.1391,1.62-.1731a2.1159,2.1159,0,0,1,1.5451.51.2659.2659,0,0,0,.1492.06c.1763.0072.3531.0028.53.0028l.0346-.048a3.4615,3.4615,0,0,0-.3771-.3376,2.8814,2.8814,0,0,0-1.3254-.4123c-.2125-.0234-.4288-.01-.6421-.0287a.3442.3442,0,0,1-.1864-.0962c-.1559-.1472-.3056-.3015-.4521-.4582-.1294-.1385-.2443-.103-.3489.0224-.1456.1747-.2845.355-.4265.5327-.019.0238-.04.0466-.06.07-.0163-.0151-.0317-.0225-.0321-.0306-.0251-.4783-.0814-.9577-.0646-1.4346a.978.978,0,0,1,.9747-.9687,2.9075,2.9075,0,0,1,.3221-.0051c.2687.0078.3931-.1536.2954-.3964a11.0684,11.0684,0,0,0-1.208-2.3538c-.1489-.208-.3562-.3735-.5183-.5734a.4807.4807,0,0,1-.0884-.2836c-.0008-.5.3664-.7336.804-.4917a6.1853,6.1853,0,0,1,.7078.5319.8741.8741,0,0,1,1.1745.5492c.14.4611-.0926.7965-.6484.8527.0811.0855.1282.1677.1981.1985a.2176.2176,0,0,0,.2-.0337,4.2048,4.2048,0,0,0,.305-.4284c.038-.0569.0658-.1206.1177-.2176.1273.1362.24.2589.3554.38.1635.1719.394.2276.5565-.0028-.124-.0511-.2459-.0991-.366-.1512a.8837.8837,0,0,1-.3835-1.4067.584.584,0,0,1,.5982-.266c.0347-.2386.0518-.4654.1032-.6842a1.0268,1.0268,0,0,1,.5261-.708.271.271,0,0,1,.22-.0007,1.15,1.15,0,0,1,.5716.91c.0228.1494.03.3011.044.4522a.91.91,0,0,1,.75.969.8887.8887,0,0,1-.876.7656l-.04-.2347a.354.354,0,0,0,.1064.4551.2885.2885,0,0,0,.4232-.0385c.1291-.1378.2424-.29.38-.4574.098.1664.1843.3182.2758.4668.0755.1225.1423.2769.32.2523.1836-.0255.2167-.1883.2567-.3588a.5735.5735,0,0,1-.5632-.5947.862.862,0,0,1,.5315-.8087.5177.5177,0,0,1,.6822.0948,1.1581,1.1581,0,0,1,.1747-.2025,2.7657,2.7657,0,0,1,.522-.3343.461.461,0,0,1,.6684.3473.5241.5241,0,0,1-.163.5814,3.7941,3.7941,0,0,0-.701.91c-.3232.5843-.5924,1.1985-.8825,1.801a1.4407,1.4407,0,0,0-.0564.1713,2.1564,2.1564,0,0,0,1.0233-.0447c.3211-.0881.631-.2172.9458-.3283l.0433.0359c-.2719.3366-.5214.6948-.8219,1.0035a2.5577,2.5577,0,0,1-1.1721.5836,3.6055,3.6055,0,0,1,.7377,2.016c.0121.1183.0232.2267-.1238.2476.126.2337.2673.452.3661.688a1.5137,1.5137,0,0,1-.2866,1.7072.208.208,0,0,0-.06.1551,2.0677,2.0677,0,0,1-.053,1.1945,3.4205,3.4205,0,0,1-.6415,1.3692c.1951.359.3695.7.5647,1.0277a.7122.7122,0,0,0,.2723.2558,1.9512,1.9512,0,0,0,2.6521-.5266,3.1155,3.1155,0,0,0,.7359-1.8718,1.0861,1.0861,0,0,0-.7043-1.0288,3.19,3.19,0,0,1-.2939-.1306,1.2546,1.2546,0,0,1-.5519-1.9092q.74-1.1892,1.5688-2.3226a10.7637,10.7637,0,0,1,.98-1.0519.88.88,0,0,1,.24-.184,2.9012,2.9012,0,0,0,1.3232-1.5561c.2453-.5446.4332-1.1158.6318-1.68.0455-.13.0988-.1834.2343-.18a.7217.7217,0,0,1,.6264.3661,6.1563,6.1563,0,0,1,.2907.6151c.2311-.211.47-.4224.7014-.6415a19.1174,19.1174,0,0,0,2.8136-3.12,14.1631,14.1631,0,0,0,.8475-1.5173,1.0582,1.0582,0,0,0,.0315-.9865,1.7344,1.7344,0,0,1-.084-.2751,3.1011,3.1011,0,0,1,2.0663,3.5806,3.6922,3.6922,0,0,1-.2724.763,1.5374,1.5374,0,0,1-.7316.7121l.1135.098c-.2039.2261-.3968.4607-.6114.6735a14.8953,14.8953,0,0,1-1.1979,1.1329,18.8934,18.8934,0,0,0-1.4713,1.3087c-.113.11-.2256.2217-.3445.3256a.1553.1553,0,0,0-.0269.2512.72.72,0,0,0,.11-.0455A22.5311,22.5311,0,0,0,41.1425,8.18c.2754-.2589.5221-.549.7734-.8325a3.1034,3.1034,0,0,0,.6337-1.5c.01-.0494.0233-.0983.0363-.1471a.3615.3615,0,0,1,.0264-.0519,7.0731,7.0731,0,0,1,.626,1.8206,3.7293,3.7293,0,0,1,.0046,1.3756,2.04,2.04,0,0,1-1.3144,1.5686c-.0527.0209-.1057.0411-.1579.0631-.01.0043-.0179.0152-.0354.0308l.4826.3394c-.3859.2516-.76.4955-1.1335.7391-.3652.238-.73.4773-1.0965.713a2.4529,2.4529,0,0,1-.6652.3022,5.7451,5.7451,0,0,0-.9682.4708c-.2533.1288-.5069.2572-.7578.3906a.2874.2874,0,0,0-.1254.1449,13.0974,13.0974,0,0,0,5.5008-2.5727,2.6253,2.6253,0,0,1-.0348,2.3845A2.8,2.8,0,0,1,40.8556,14.67l.5378.4467a3.7284,3.7284,0,0,1-1.3443.592,10.2328,10.2328,0,0,1-1.237.1253c-.5265.0373-1.054.0595-1.5811.0878-.1262.0068-.2525.0184-.3785.016-.1176-.0023-.1458.0465-.1037.1752l4.3154-.1643a3.4677,3.4677,0,0,1-1.5771,1.9225,2.7289,2.7289,0,0,1-.501.1663,2.5606,2.5606,0,0,0-.4979.1555,2.6815,2.6815,0,0,1-1.83.1789.8551.8551,0,0,0-.2379-.0069c-.3361.0187-.672.0408-.9784.06a4.2123,4.2123,0,0,0,2.7688.27,1.9975,1.9975,0,0,1-2.4,1.7852,5.7274,5.7274,0,0,1,.1789.6111,1.086,1.086,0,0,1-.6228,1.27l-.0822.0448a1.3014,1.3014,0,0,1-1.0761,1.94,1.0242,1.0242,0,0,1-.0857,1.2809,1.2351,1.2351,0,0,1-1.1948.5463,1.0221,1.0221,0,0,1-.5085,1.0332,1.4671,1.4671,0,0,1-1.34.18,1.0532,1.0532,0,0,1-1.0451.7737,1.7416,1.7416,0,0,1-1.272-.41.9974.9974,0,0,1-1.44.1305,2.171,2.171,0,0,1-.9655-1.3316c-.0094-.0406-.0247-.08-.0489-.1568l-.2566.6911a6.5338,6.5338,0,0,0,1.9548,1.6088,4.0843,4.0843,0,0,0,2.4848.4586,2.1082,2.1082,0,0,1-1.3751,1.231,2.352,2.352,0,0,0,.5077.3907c.9737.368,1.957.7106,2.9372,1.0611.047.0168.0966.026.1713.0457a2.3993,2.3993,0,0,1-.34-1.1267c-.024-.4321.2085-.56.5564-.5709a2.6581,2.6581,0,0,1,.5013.08c-.0157-.0553-.0281-.1095-.0462-.1617-.19-.5484-.3836-1.0957-.5712-1.645C32.6892,28.0391,32.5536,27.62,32.415,27.2011Zm2.02-14.08c.0578-.0193.1148-.0426.1738-.0574a1.2281,1.2281,0,0,1,.4372-.0929.44.44,0,0,0,.4579-.225,4.9629,4.9629,0,0,0,.7116-1.459,2.3764,2.3764,0,0,0-.0591-1.949.2437.2437,0,0,1,.0772-.3414c.8636-.77,1.72-1.5478,2.579-2.3226.0493-.0444.1032-.0839.1647-.1335l.1232.1618c-.0357.04-.06.0691-.086.096q-1.1131,1.14-2.2267,2.2792c-.07.0717-.1359.1273-.095.2581.09.2878.1457.5864.2279.877a2.8134,2.8134,0,0,0,.1608.3618l1.2261-1.1822-.3487-.2134c.2-.0375.3894-.0251.5756-.0426a.51.51,0,0,0,.2782-.1131c.3189-.2879.633-.5821.9346-.8879.2508-.2543.4818-.5279.72-.7917l-.4391-.3071a1.13,1.13,0,0,1,.1186-.0112,1.1593,1.1593,0,0,0,1.1895-.74A2.68,2.68,0,0,0,41.37,3.9568a2.86,2.86,0,0,0-1.1171-1.2336,6.7072,6.7072,0,0,1-.1442.6721,4.3348,4.3348,0,0,1-.2741.6433,11.1048,11.1048,0,0,1-1.956,2.6656c-.7376.7629-1.5175,1.4847-2.2745,2.229a.3472.3472,0,0,0-.1046.2152c-.0057.4537.0322.91,0,1.361a2.1,2.1,0,0,1-.8217,1.5818c-.1083.0832-.2288.1507-.36.2358l.5941.1546c-.1721.2321-.3229.4356-.4713.64-.3057.3822-.5985.7757-.92,1.1437-.381.4357-.787.8494-1.1981,1.29a1.2061,1.2061,0,0,1,.0495.3637.2961.2961,0,0,0,.1386.3108,1.156,1.156,0,0,1,.4174,1.4718c-.0441.0946-.0965.1853-.1519.2906a.8242.8242,0,0,1,.5463.7751,1.4954,1.4954,0,0,0,1.81-.9279,1.3556,1.3556,0,0,1-.1886.0333c-.3647.012-.73.0259-1.0941.0236-.0548,0-.1091-.0828-.1636-.1272.06-.0389.1165-.1026.1807-.1119.1745-.0253.3534-.0182.5284-.0405a2.5361,2.5361,0,0,0,1.4365-.5779,1.5424,1.5424,0,0,0,.5076-.9734c-.081.0362-.13.0616-.1818.0806-.42.1547-.8337.33-1.2622.4554a1.9785,1.9785,0,0,1-1.1415-.0019c-.0488-.0149-.0787-.0917-.1173-.14.0491-.0356.0946-.0938.148-.1025.1366-.0221.2781-.0126.4149-.0335.1337-.0205.264-.0628.3957-.0956l-.0106-.0543a1.4479,1.4479,0,0,1-.279-.0326c-.0528-.0161-.0911-.08-.1359-.1221.04-.0387.0745-.1026.12-.1119a1.3565,1.3565,0,0,1,.8372.0367.4719.4719,0,0,0,.2562.02A2.1012,2.1012,0,0,0,37.018,14.29c.0249-.1306.0329-.2644.0487-.3968l-.0525-.0186c-.0576.0634-.1142.1277-.1727.19a3.7721,3.7721,0,0,1-2.9929,1.3444c-.0695-.0028-.1823-.0567-.1957-.1076-.0349-.1322.0893-.1288.18-.1556.362-.1067.7234-.2164,1.0812-.3365a.9427.9427,0,0,0,.2181-.1519l-.0232-.0461c-.147.0287-.2931.0659-.4414.0808a.1771.1771,0,0,1-.1357-.086.1463.1463,0,0,1,.0531-.1326,1.08,1.08,0,0,1,.9276-.1038.5336.5336,0,0,0,.3539-.0014,1.8044,1.8044,0,0,0,.7611-.692,2.8168,2.8168,0,0,0,.4069-2.1945c-.0364-.21-.1015-.4144-.1534-.6214l-.0653.01c-.0176.0846-.0336.17-.0532.2537A4.6815,4.6815,0,0,1,33.82,14.407c-.0806.0355-.1627.0426-.1737-.06a.2171.2171,0,0,1,.0989-.158c.2434-.156.5034-.2876.738-.4552a1.9239,1.9239,0,0,0,.303-.3409ZM21.936,18.8229a3.0757,3.0757,0,0,0-.8781,3.3894l.4183-.3066c.0159.0261.023.0326.0218.0366-.0166.0537-.0331.1075-.0519.16a2.4523,2.4523,0,0,0,.0621,1.863c.1229.2812.2144.3133.4344.1746.0076-.0049.023.0024.0492.006a6.0175,6.0175,0,0,0,.6593,3.3705c-.336-.096-.4809.1085-.6421.2846-.0512.056-.1055.1093-.1609.161a5.5426,5.5426,0,0,1-2.93,1.5616c-.2006.0317-.4047.0407-.6343.0628a1.348,1.348,0,0,0,.692.5274,7.3085,7.3085,0,0,0,.8169.1557,3.3932,3.3932,0,0,0-1.2892,1.5012,2.2568,2.2568,0,0,0,1.8866-.2766v1.381a7.8615,7.8615,0,0,0,2.5224-3.0994l.4137,2.4794-.0411.0131-.1787-.254c-.4935.6964-.9706,1.41-1.4892,2.0915a9.4248,9.4248,0,0,1-2.198,2.1277,9.4314,9.4314,0,0,0-1.9461,1.7951c-.101.1216-.1912.2531-.3012.3655-.0424.0433-.126.0462-.1908.0675.0009-.0612-.0193-.1338.0066-.1814a3.7153,3.7153,0,0,1,.2648-.4152,9.0975,9.0975,0,0,1,1.8254-1.8385,13.6835,13.6835,0,0,0,2.9607-3.2536c.0317-.0467.0563-.0982.0842-.1475-.322.2946-.6161.6082-.9359.8931a6.1526,6.1526,0,0,1-2.3891,1.3855,3.9916,3.9916,0,0,1-1.6681.139c-.0885-.0122-.1663-.0217-.205.1a.9344.9344,0,0,0,.6594,1.248c.0856.0254.1717.0494.2916.0839-.0883.057-.14.091-.1925.1242a3.5985,3.5985,0,0,0-1.2971,1.3025,2.2272,2.2272,0,0,0,.041,2.2108c.2521-.3738.4823-.7355.7331-1.0823a6.6757,6.6757,0,0,1,1.3687-1.4353,10.3424,10.3424,0,0,0,1.2155-1.0228c.7809-.809,1.5235-1.6552,2.2819-2.486.0415-.0454.0846-.0894.127-.134l.0313.03-1.2772,2.0227.1191.0759a10.5678,10.5678,0,0,0-1.4386,1.5147l.2448.1186a3.52,3.52,0,0,0-.3449.1471.9857.9857,0,0,0-.3013.2128c-.4619.5857-.9124,1.18-1.3656,1.7728a1.3245,1.3245,0,0,0-.0768.1293l.5409.1651a2.8079,2.8079,0,0,0-1.1322,2.1661,2.7455,2.7455,0,0,0,1.33,2.0487A12.7267,12.7267,0,0,1,19.63,41.3476c.8453-1.6456,1.7182-3.2769,2.58-4.914.1657-.3149.3334-.6287.5-.943l.0369.0163-1.3516,4.16.4213.15c-.149.0548-.24.0981-.3359.1216a.5588.5588,0,0,0-.3907.3422c-.2171.4558-.4577.9-.6878,1.35-.165.3225-.3281.6461-.5056.9959l.58-.0384a3.2476,3.2476,0,0,0-.8839,1.37,1.9033,1.9033,0,0,0,.2414,1.5447,1.954,1.954,0,0,0,1.2609.9412c.0167-.0681.0335-.128.0461-.1888.11-.5312.1913-1.0705.3359-1.5922.2205-.7954.4943-1.576.7285-2.3679.4651-1.5732.9184-3.15,1.3774-4.7249.0171-.0587.0429-.1148.0647-.1721-.0533,1.0246-.1446,2.0368-.2277,3.05a2.3542,2.3542,0,0,0,.033.3966c-.02.1025-.0924.21-.1163.328-.1253.6185-.24,1.2392-.3553,1.86-.0551.2956-.0522.296.2138.4166.0093.0042.0142.0183.0285.0379a2.1224,2.1224,0,0,0-.2125.2352.9033.9033,0,0,0-.1433.2946,6.1462,6.1462,0,0,1-.8514,2.4358c.4211.4547.8529.2875,1.3006.001a1.8112,1.8112,0,0,0,.8,2.1225,1.7917,1.7917,0,0,0,.81-2.0681,5.0433,5.0433,0,0,0,.6671.2143.608.608,0,0,0,.6113-.27,3.2281,3.2281,0,0,1-.3025-.53c-.16-.4639-.3028-.9351-.4281-1.41-.0953-.3612-.0987-.756-.4422-1.0061-.0081-.0059-.0083-.0228-.0162-.0464l.2916-.1232c-.0895-.4791-.1609-.9475-.2681-1.4076a2.3941,2.3941,0,0,0-.323-1.1089c.1824-.12.1055-.289.093-.4375-.0792-.9378-.1652-1.8751-.2476-2.8127a1.0233,1.0233,0,0,1,.0065-.1407.3773.3773,0,0,1,.0854.1662q.3237,1.1082.6467,2.2167c.2645.9021.4975,1.8153.8053,2.7025a23.7875,23.7875,0,0,1,.8211,2.8738c.0738.3486.1381.6992.2067,1.0486a2.0761,2.0761,0,0,0,1.5628-1.7735,2.2389,2.2389,0,0,0-.6014-1.7022c-.0973-.12-.2049-.2325-.3288-.3721l.5712.0338c-.4246-.8289-.8321-1.6192-1.2334-2.4127a.4208.4208,0,0,0-.2851-.2467,3.7785,3.7785,0,0,1-.3986-.1557l.4189-.14-1.3368-4.11.0425-.0184c.0354.0626.0724.1243.106.1879q.978,1.85,1.9548,3.7016a30.5667,30.5667,0,0,1,1.6959,3.49c.1729.4628.3149.9373.474,1.4157a3.6089,3.6089,0,0,0,1.0356-1.1043,1.9263,1.9263,0,0,0,.217-1.4618,2.8706,2.8706,0,0,0-.777-1.324,3.6539,3.6539,0,0,0-.3169-.26l.0454-.055.5242-.1585c-.0537-.073-.0927-.1279-.1337-.1814-.3385-.4415-.6873-.8755-1.0128-1.3263a1.6014,1.6014,0,0,0-.8835-.7219.25.25,0,0,1-.0568-.0376l.2142-.1059c-.3212-.3776-.6252-.7493-.9465-1.1054a3.5529,3.5529,0,0,0-.431-.3548c-.02-.0157-.0421-.0274-.07-.0456l.1424-.0894c-.223-.3525-.4393-.694-.6551-1.0358q-.3153-.499-.63-.9985l.0413-.0265c.0905.1052.1805.2106.2714.3154A28.7979,28.7979,0,0,0,29.082,37.129c.3224.2824.6943.5086,1.0143.7932a8.6672,8.6672,0,0,1,1.5873,2.02c.0335.055.07.1084.1188.185a2.2628,2.2628,0,0,0,.1058-2.105,3.48,3.48,0,0,0-1.3554-1.4213c-.055-.035-.1105-.0692-.2164-.1354a1.2217,1.2217,0,0,0,.8761-.4591,1.0626,1.0626,0,0,0,.0589-.9586l-1.9983.8134-.03-.0377.4306-.8484a7.5758,7.5758,0,0,1-3.75-2.5817,14.046,14.046,0,0,0,2.5835,3.1343c.6056.5356,1.2343,1.0478,1.8092,1.6146a10.352,10.352,0,0,1,.8958,1.1467.4469.4469,0,0,1,.043.1246l-.1551.0848a1.03,1.03,0,0,1-.0713-.0765,10.142,10.142,0,0,0-1.857-1.8871c-.4517-.3551-.934-.6759-1.3573-1.0618a14.8041,14.8041,0,0,1-2.4-2.9965c-.0943-.1463-.1869-.2938-.2872-.4517l-.1871.2462-.0322-.0181.4155-2.4855A6.3276,6.3276,0,0,0,26.38,31.4743a9.2758,9.2758,0,0,0,1.46,1.3869V31.4887a2.2058,2.2058,0,0,0,1.8923.2771A3.6645,3.6645,0,0,0,28.3847,30.22a1.66,1.66,0,0,0,1.5488-.6073c-.4025-.0719-.7878-.11-1.1553-.2123a5.7477,5.7477,0,0,1-2.5924-1.6453.616.616,0,0,0-.5423-.2662c-.006.0007-.0146-.0176-.03-.0368.0219-.0519.05-.1078.0694-.1664.1635-.49.3494-.9738.4812-1.4721a3.6431,3.6431,0,0,0,.0967-1.4457,1.4554,1.4554,0,0,0-.1149-.3046l-.0562.019c-.08.5788-.1632,1.1572-.238,1.7366-.0291.2249-.0151.4574-.0636.677-.0569.2574-.1651.5031-.2425.7564a1.8373,1.8373,0,0,0,.0014.9673,2.976,2.976,0,0,1-.0481.8373c0,.0053-.008.01-.01.0153-.0955.2261-.1993.4492-.2831.68-.0667.183-.0925.3815-.1649.5617a3.7662,3.7662,0,0,0-.2946,1.5484,9.32,9.32,0,0,1-.008,1.2111c-.0379.3911.0589.8385-.3523,1.1235-.0668.0463-.0957.1473-.1421.223a2.1676,2.1676,0,0,1-.3928-1.2983l-.0885.2706c-.01-.5309.0373-1.0542.036-1.5774a1.5375,1.5375,0,0,0-.2272-1.1078,2.5014,2.5014,0,0,1-.37-.8249,1.71,1.71,0,0,1-.058-.5782c.0065-.1964.0837-.2337.2707-.1862.0285.0072.0712.0126.0895-.0026.2263-.1878.4613-.3677.6676-.5758.0894-.09.0819-.2634.2378-.321.0234-.0087.0409-.0938.0271-.1309a3.4889,3.4889,0,0,0-.155-.3195l-.3183.278-.0782-.142-.3119.3465-.0615-.0088c-.0254-.2151-.04-.4321-.0786-.6449-.0913-.5064.0739-1.0417-.216-1.5324a1.7144,1.7144,0,0,1-.1269-.6635c-.0372-.3363-.0293-.3372-.3625-.2874a2.829,2.829,0,0,1-.0347-.335c.0042-.3741-.1367-.7639.121-1.1132a.3514.3514,0,0,0,.0541-.1991c-.0017-.314-.0006-.6289-.0239-.9417a1.5073,1.5073,0,0,1,.17-.9707c.2467.12.1714.4011.3188.5943l.4971-.46A3.3923,3.3923,0,0,1,22.1959,20.67,2.0044,2.0044,0,0,1,21.936,18.8229Zm2.6664-7.6439.0412.0306a2.08,2.08,0,0,1-.2442.3463.9165.9165,0,0,1-1.3573-.0884.465.465,0,0,0-.2789-.1606,1.524,1.524,0,0,1-.6219-.2483,1.1769,1.1769,0,0,0-.8834-.237c-.7022.0223-.9577.6246-.6868,1.3531.0307-.0252.059-.05.0887-.0727a.4123.4123,0,0,1,.6252.0076c.1489.1264.2785.2753.4258.4037a.4167.4167,0,0,0,.2073.0975c.3191.0407.6433.0489.9589.106a2.3025,2.3025,0,0,1,1.3273.6347.7293.7293,0,0,1,.2367.667c-.1138,0-.22.0015-.3265,0a3.9287,3.9287,0,0,0-1.4422.1543,3.8568,3.8568,0,0,0-.4484.2311l.0244.0552c.0672,0,.1344.0008.2016,0a2.6212,2.6212,0,0,1,1.03.1,2.1138,2.1138,0,0,0,1.0438.12.6058.6058,0,0,0,.5009-.9175,1.2352,1.2352,0,0,0-.2326-.3656c-.3611-.3519-.7369-.6886-1.1078-1.03-.0436-.04-.0914-.076-.1373-.1138l.032-.0394a5.7118,5.7118,0,0,1,1.3988,1.1392,1.827,1.827,0,0,1,.2365.3643.7671.7671,0,0,1-.5586,1.1329,4.2265,4.2265,0,0,1-.7147.0215c-.0726.0008-.1453-.01-.2174-.0149-.0136.0575-.0211.0942-.031.13a.9715.9715,0,0,1-1.5993.63c-.0751-.0463-.1446-.1017-.2174-.1519-.04-.0274-.0808-.0527-.12-.0778-.2784.3153-.2469.6069.0965.8139a3.3137,3.3137,0,0,0,.5009.2191c.09.0357.1864.0555.28.0825a2.6639,2.6639,0,0,0-1.457.9048,2.0419,2.0419,0,0,0-.278,1.6609c.2537-.2282.4852-.46.7414-.66a1.2176,1.2176,0,0,1,.9184-.3092,2.4034,2.4034,0,0,0-.4135,1.8439,1.8669,1.8669,0,0,0,1.3532,1.2459.8175.8175,0,0,1,.4294-.8934,1.3708,1.3708,0,0,0,.622-.5913c.249-.4736.4685-.963.694-1.4487.021-.0453-.0027-.1114-.0056-.1678-.0608.0124-.1385.0055-.1791.041-.1075.0938-.1991.206-.3113.3263l-.031-.2879a9.2332,9.2332,0,0,1-.9388,1.5671,3.0806,3.0806,0,0,1,.4058-1.4855.4907.4907,0,0,1,.1547-.136c.141-.08.3409-.0495.4287-.2358.01-.0211.0833-.0211.1256-.0165a2.1852,2.1852,0,0,1,.43.0628.2184.2184,0,0,0,.3184-.1494,1.1241,1.1241,0,0,1,.4435-.55v.616c.2015.0379.329-.26.5185-.05l.2593-.2268a1.8777,1.8777,0,0,1-1.2624,1.1485l-.1684-.4584-.048.0166a3.0148,3.0148,0,0,1,.0269.4475,3.5635,3.5635,0,0,1-.1018.4736,1.4383,1.4383,0,0,0,1.1449-.3912,3.0276,3.0276,0,0,0,.7961-1.6644,1.03,1.03,0,0,0-.1408-.9879c.03-.0268.0522-.0485.0762-.0683a1.2765,1.2765,0,0,0,.3617-1.7088,6.5426,6.5426,0,0,0-.52-.7418c-.0405-.0561-.09-.1059-.1349-.1586l.03-.036.4009.1413a2.7494,2.7494,0,0,0-1.0941-2.3031,2.8438,2.8438,0,0,0,1.8325-.799,9.2606,9.2606,0,0,1-1.1625.0133,8.61,8.61,0,0,1-1.0239-.2554,7.2393,7.2393,0,0,0-2.7862-.0593,2.281,2.281,0,0,0-1.0117.3476c-.1971.141-.1987.259.0054.3938a1.1619,1.1619,0,0,0,.8757.2672C23.4425,11.8806,23.8922,11.8785,24.6024,11.179Zm-3.9809,9.2662c-.1265.0489-.2188.0865-.3123.12a2.1452,2.1452,0,0,1-2.3061-.3587,3.56,3.56,0,0,1-1.14-2.0492,1.4042,1.4042,0,0,1,.6773-1.6085c.1141-.0658.2423-.1066.3626-.1619a1.0085,1.0085,0,0,0,.5-1.5845c-.4125-.6652-.8388-1.3238-1.2949-1.96A5.4,5.4,0,0,0,15.37,11.1507a1.3409,1.3409,0,0,1-.3258-.2865,6.3036,6.3036,0,0,1-1.14-2.08c-.0951-.2514-.1743-.5087-.2776-.813-.1161.0864-.2391.1355-.2912.2256a1.5158,1.5158,0,0,0-.2451.5839,15.6139,15.6139,0,0,0-.0666,1.833,1.7333,1.7333,0,0,0,1.145,1.56c.1144.0523.2369.0866.3544.1323.0414.0162.0791.0417.16.0852l-1.0078.2571c.4033.4906.7749.9436,1.1478,1.3954a.2488.2488,0,0,0,.2841.0861c.1889-.0481.3854-.0663.5787-.0972l.0195.0513-.4726.3961c.3588.33.6294.7607,1.1527.9091-.05.0406-.087.0717-.125.1023a.45.45,0,0,0-.1547.5087c.0763.1721.0241.2437-.1219.3395a.9777.9777,0,0,0-.2216,1.63c.0313.036.058.0761.0906.1193-.1421.063-.27.1167-.3945.1755a.4907.4907,0,0,0-.3054.4441c-.0024.0914.1086.187.1032.2768a.343.343,0,0,0,.196.3184,3.6848,3.6848,0,0,0,.384.1991c.1159.06.23.1235.3736.2-.6321.2774-.7975.4685-.6933.7721l.1712-.0629c-.0289.141-.108.2923-.07.4046a.74.74,0,0,0,.2957.326,1.0759,1.0759,0,0,0,.3578.1064c.1544.0356.3106.0632.48.0971l-.2667.3193.0369.03.1431-.0506a2.428,2.428,0,0,1-.1442.3408.2762.2762,0,0,0,.0332.3461.8161.8161,0,0,0,.8131.3369c.1932-.0285.3816-.09.5722-.1364-.0482.1153-.1385.1865-.1789.2794a.5182.5182,0,0,0-.0619.3487.8492.8492,0,0,0,.6917.4688.5851.5851,0,0,0,.5848-.3114c.0443-.0652.0839-.1335.1435-.2289.0431.1041.0714.1721.0995.24a.6837.6837,0,0,0,.88.4113,1.58,1.58,0,0,0,.7588-.6045.1891.1891,0,0,0,.0148-.174c-.1379-.1786-.0688-.3874-.108-.5782A6.8521,6.8521,0,0,1,20.6215,20.4452Zm12.9542-8.0416-.0007-.0516c.1234-.0449.2489-.0846.37-.1355A1.7819,1.7819,0,0,0,35.19,10.5313c.0089-.4793.0194-.961-.0189-1.4378a2.9629,2.9629,0,0,0-.2219-.7943.4189.4189,0,0,0-.3819-.2821c-.0242.0683-.0455.1333-.07.197-.194.5-.3644,1.01-.5889,1.4955a3.1952,3.1952,0,0,1-1.4092,1.6559,1.1129,1.1129,0,0,0-.2416.1822,13.3865,13.3865,0,0,0-2.55,3.4641.9927.9927,0,0,0-.09.5656,1.0821,1.0821,0,0,0,.797.8535,1.4507,1.4507,0,0,1,.9374,1.7318,3.9261,3.9261,0,0,1-.83,1.7237,2.1062,2.1062,0,0,1-2.1329.8115c-.2684-.05-.5275-.1506-.8128-.2344,0,.44.0044.88-.0022,1.3193a2.5658,2.5658,0,0,0-.0375.5.7281.7281,0,0,1-.1251.7054.2038.2038,0,0,0-.0182.194,1.4816,1.4816,0,0,0,.7413.565.6855.6855,0,0,0,.86-.4213c.0283-.0708.06-.14.1019-.2358.0627.1023.1016.1741.1483.2405a.5508.5508,0,0,0,.608.2884,1.6726,1.6726,0,0,0,.5669-.3178c.1811-.1482.17-.3133.0252-.5008-.0623-.0806-.1276-.1589-.2265-.2815a6.4685,6.4685,0,0,0,.6427.1545.8079.8079,0,0,0,.7836-.3251.64.64,0,0,0,.0374-.7313,1.78,1.78,0,0,0-.2278-.2739c.2513-.047.476-.0749.6927-.1326a.6617.6617,0,0,0,.5018-.79c.0282-.0589.0723-.1061.0643-.1415-.0792-.352-.3863-.4459-.7329-.5791.1968-.0937.338-.17.4861-.2294a.9787.9787,0,0,0,.5287-.4366.5549.5549,0,0,0-.1786-.7346c-.129-.0909-.2454-.2-.3719-.3037a1.1279,1.1279,0,0,0,.3123-1.0148,1.4909,1.4909,0,0,0-.7245-.7761.5568.5568,0,0,0-.2136-.8117c.5346-.1573.8062-.59,1.1622-.912l-.4788-.4.0247-.0492c.1968.0327.3927.0756.5908.0931a.3276.3276,0,0,0,.2447-.0679c.31-.3574.6074-.7259.9043-1.0944.0773-.096.1384-.2049.22-.3277Zm-17.603,11.43a1.2878,1.2878,0,0,1-.8737-.9765c-.0274-.1634-.1038-.1726-.233-.1484-.1839.0345-.3694.06-.5492.089-.0668-.15-.03-.22.104-.2633.1419-.0465.276-.1167.4434-.1895a1.2608,1.2608,0,0,1-.42-1.4851c-.1633.0261-.2924.0471-.4216.0674s-.26.04-.408.0626l-.0218-.2.606-.191-.11-.1883a1.285,1.285,0,0,1-.144-.9868c.0681-.2809.0695-.284-.189-.3968a.3683.3683,0,0,0-.18-.0169c-.2825.031-.5638.0735-.8467.0981a.2036.2036,0,0,1-.1693-.0816c-.0434-.1211.0677-.1168.1455-.1357.2039-.05.407-.1024.6153-.1552-.067-.1687-.1383-.1632-.2519-.1056a4.22,4.22,0,0,1-1.7385.48c-.3115.0131-.6241.0022-.9516.0022a1.6784,1.6784,0,0,0,1.242,1.1132.89.89,0,0,0,.9343-.2408,2.712,2.712,0,0,1,.3353-.2731l.0294.03-.2.7464,1.11-.1592a.6044.6044,0,0,1-.3907.33c-.2207.0638-.4559.0754-.6827.12a.2521.2521,0,0,0-.169.0988.9.9,0,0,0,.062,1.0012,1.0152,1.0152,0,0,0,1.0137.3717c.1831-.0368.365-.0795.5475-.12l.0246.0744c-.2954.1169-.5859.25-.8885.3438a.3359.3359,0,0,0-.2712.25,1.1844,1.1844,0,0,0-.03.299.9861.9861,0,0,0,1.17.9544c.25-.0556.4946-.1335.7417-.2012a2.8983,2.8983,0,0,1-.4344.41.8387.8387,0,0,0-.4112.7992,1.0636,1.0636,0,0,0,1.2226.8371,4.0631,4.0631,0,0,0,.4276-.1489c.0411-.0146.0824-.0284.1643-.0565-.0862.1053-.1454.1708-.1969.2419a.6438.6438,0,0,0,.15,1.0017,1.0876,1.0876,0,0,0,1.4123-.03c.0953-.076.1835-.1611.31-.2727-.0437.1656-.0818.2842-.1059.4056a.6515.6515,0,0,0,.6865.8529,1.38,1.38,0,0,0,1.0067-.4108c.1145-.1051.215-.2255.3361-.354.0312.06.0574.1078.081.1566a.727.727,0,0,0,1.2282.3067,2.0906,2.0906,0,0,0,.8361-1.7595c.0068-.1578.001-.3162.001-.4968a2.3951,2.3951,0,0,1-.4332.1867.5078.5078,0,0,0-.3631.2907c-.1093.1929-.25.3684-.3906.572l-.16-.1871a.38.38,0,0,0,.05-.08,1.8968,1.8968,0,0,0,.1075-.507c-.0018-.0544-.2039-.1024-.3146-.1527-.023-.01-.0473-.0179-.0707-.0276a.4729.4729,0,0,0-.6883.1915,2.512,2.512,0,0,1-.696.6711c-.1123-.1036-.1118-.1732-.0215-.2842a3.3861,3.3861,0,0,0,.278-.4867c-.1331-.0249-.2066-.0375-.28-.0525a.7638.7638,0,0,1-.5548-.3887c-.116-.2155-.2209-.2341-.4026-.0708a1.9008,1.9008,0,0,1-.7288.4136c-.1041-.125-.0919-.2015.0426-.28a1.5462,1.5462,0,0,0,.2571-.2553c-.4911-.1051-.8849-.2707-1.0051-.77l-.8021.2465c-.0785-.1351-.0867-.2077.0631-.2672A2.7141,2.7141,0,0,0,15.9727,23.8333Zm19.52-3.3438-.199-.75a1.8212,1.8212,0,0,1,.4708.3362.6726.6726,0,0,0,.6268.179,2.0169,2.0169,0,0,0,.4775-.1118,1.73,1.73,0,0,0,.98-1.0638,4.5569,4.5569,0,0,1-2.0328-.17c-.0126.1774-.1145.1859-.2526.1634a5.7591,5.7591,0,0,0-.8077-.0979.8219.8219,0,0,0-.3893.1476c-.0261.0152.0082.1466.0258.2218a1.3156,1.3156,0,0,1-.1519,1.0572c-.0291.0454-.05.0956-.0866.1649l.6016.19-.0375.1947-.82-.1309a1.245,1.245,0,0,1-.4217,1.486,4.5051,4.5051,0,0,0,.4445.19c.1471.045.1766.1171.1046.2588l-.7558-.1075a1.3222,1.3222,0,0,1-.8862,1.1548,2.8857,2.8857,0,0,0,.3987.2579c.15.0641.157.1354.0635.2657l-.8041-.2475c-.1115.5235-.5273.6617-1.0079.7812l.3887.3574-.06.1729a1.95,1.95,0,0,1-.7777-.4421c-.13-.1155-.2725-.1114-.33.0168a.8022.8022,0,0,1-.6764.4816,1.51,1.51,0,0,0-.1881.0581,2.2941,2.2941,0,0,0,.2655.4637c.1214.13.0874.1963-.0609.3193-.2355-.257-.477-.5037-.6979-.7677a.4746.4746,0,0,0-.58-.154c-.0578.0256-.1159.0508-.1752.0724-.3319.121-.3495.1556-.2355.4965.0177.0532.0666.1014.0684.1531a.6714.6714,0,0,1-.0483.1886c-.0511-.0174-.1235-.0192-.15-.0548-.13-.1784-.2474-.3663-.3717-.5492-.031-.0455-.063-.103-.1088-.1236-.2324-.1048-.4695-.1993-.7161-.3021a.5054.5054,0,0,0-.0229.1243c.0092.3087.0019.62.0391.9253a1.8775,1.8775,0,0,0,1.0113,1.4505.6705.6705,0,0,0,1.0013-.2719c.0306-.0506.0633-.1.1029-.1622a1.5091,1.5091,0,0,0,1.3941.5787.6755.6755,0,0,0,.6509-.9247.5046.5046,0,0,1-.001-.1081,1.1489,1.1489,0,0,0,1.6029.0577.6348.6348,0,0,0,.1466-.9477c-.0578-.0849-.1249-.1633-.2135-.2782.1563.0626.27.1139.3874.1542a.9328.9328,0,0,0,1.17-.3029.7711.7711,0,0,0-.0849-1.22,1.2919,1.2919,0,0,1-.1362-.102c-.0907-.1014-.1738-.21-.26-.315a.2872.2872,0,0,1,.1571.0138,2.6359,2.6359,0,0,0,.6944.1526.9981.9981,0,0,0,.9589-1.0082.4565.4565,0,0,0-.3846-.5268c-.2813-.0923-.5486-.2274-.822-.3437l.0251-.0619c.1827.0415.3649.0852.5482.1241a.9541.9541,0,0,0,1.166-1.1245c-.064-.3328-.0859-.3511-.4227-.3547a.9138.9138,0,0,1-.1136-.0038,1.0152,1.0152,0,0,1-.7976-.44ZM13.8769,12.3286a2.1742,2.1742,0,0,1-1.0947-1.3929,4.8715,4.8715,0,0,1-.0762-1.6951.33.33,0,0,0-.0982-.3154C11.8408,8.1913,11.0485,7.48,10.3305,6.7a8.24,8.24,0,0,1-2.39-3.9517,2.681,2.681,0,0,0-.9359,3.7593,1.0846,1.0846,0,0,0,.9958.5181c.047-.0008.094,0,.141,0l.0115.0351-.459.3182a.284.284,0,0,0,.0333.0545c.5663.5419,1.1311,1.0854,1.703,1.6213a.4023.4023,0,0,0,.2366.0815c.1894.0117.38.0037.57.0037l.0045.0443-.3326.2126,1.3259,1.2741a3.1445,3.1445,0,0,0,.1927-.42c.0795-.2781.1272-.5654.21-.8424a.2449.2449,0,0,0-.0637-.2848c-.3632-.3611-.7212-.7274-1.08-1.0933Q9.91,7.4337,9.3309,6.8328a.2109.2109,0,0,1-.05-.1544A.1332.1332,0,0,1,9.39,6.603a.3454.3454,0,0,1,.1351.0964q1.24,1.1174,2.4786,2.236c.2651.2391.2686.24.1347.5759a1.9148,1.9148,0,0,0-.1869.8806,5.01,5.01,0,0,0,.7429,2.169,2.62,2.62,0,0,0,.2934.37.2331.2331,0,0,0,.1444.0779c.1967.0089.3942.0036.57.0036l-.3954-.5332ZM25.8107,8.3368a2.7646,2.7646,0,0,1-.3263.302.557.557,0,0,1-.7374-.1819.54.54,0,0,1,.0274-.6959.4215.4215,0,0,1,.28-.1138c.0512.0056.0863.1543.13.2376.0071.0136.023.0224.0333.0321a.61.61,0,0,0,.3119-.8741.5855.5855,0,0,0-.2533-.2866,1.2781,1.2781,0,0,0-.4508.0169c.009-.5179.1-1.0953-.4631-1.4874-.5876.428-.4737,1.0375-.4424,1.6315-.3077-.3232-.6309-.2621-.8028.1391a.5906.5906,0,0,0,.3176.8445c.0733-.0988.1292-.2444.1983-.251a.49.49,0,0,1,.3308.1242.5748.5748,0,0,1-.7674.8334,2.7559,2.7559,0,0,1-.2714-.2822,3.89,3.89,0,0,1-.257.3691.4266.4266,0,0,1-.7324-.0381.57.57,0,0,1-.0307-.3691c.024-.1367.1395-.1451.2687-.1226a.2611.2611,0,0,0,.2971-.2083.5042.5042,0,0,0-.1176-.527.6153.6153,0,0,0-.5727-.2678c-.0852.016-.1639.1227-.2228.2044a.5341.5341,0,0,0-.0647.1793,7.3539,7.3539,0,0,0-.4872-.66,1.1724,1.1724,0,0,0-.4169-.25.2047.2047,0,0,0-.3.1108c-.0333.1148-.0672.3056-.0077.3592a5.501,5.501,0,0,1,1.1641,1.6919c.2184.4328.4083.88.6206,1.3416a9.1329,9.1329,0,0,1,4.6005-.0069c.17-.38.3245-.7524.502-1.1132A5.8278,5.8278,0,0,1,28.4441,7.11a.2075.2075,0,0,0,.0523-.1483c-.0139-.3086-.1949-.4159-.474-.2745a1.3241,1.3241,0,0,0-.743.9645c-.042-.1852-.0674-.3136-.1006-.44a.22.22,0,0,0-.3058-.1691.6912.6912,0,0,0-.4982.4768c-.09.31.0676.5.3835.4933a.1529.1529,0,0,1,.1143.0645.56.56,0,0,1-.207.7155.4265.4265,0,0,1-.6288-.12C25.95,8.566,25.8821,8.4441,25.8107,8.3368ZM12.0318,16.12a.2318.2318,0,0,0-.0146.0516.2982.2982,0,0,0,.01.0557A1.6578,1.6578,0,0,0,13,17.39a3.8,3.8,0,0,0,1.4949.3025c.0556.0022.1087.0691.1629.106-.0461.0454-.0908.1284-.1385.13-.3269.0116-.6545.0107-.9816.0034a2.3421,2.3421,0,0,1-.3362-.0566,1.4273,1.4273,0,0,0,1.6777.9175.8416.8416,0,0,1,.5559-.8034c-.0306-.0574-.05-.0963-.0714-.1336a1.1178,1.1178,0,0,1,.2043-1.5078c.1725-.1606.325-.2979.2676-.56-.0122-.0555.0383-.1224.0359-.183a.33.33,0,0,0-.054-.2027c-.2347-.2387-.4833-.4635-.722-.6982-.1194-.1174-.2281-.2458-.3583-.3875-.0424.1638-.1256.176-.2442.1131-.1506-.08-.3093-.1445-.46-.2248a4.4546,4.4546,0,0,1-2.488-3.2477c-.0033-.0186-.0242-.034-.0477-.0652a.99.99,0,0,0-.0645.1347,3.2906,3.2906,0,0,0-.0317,2.05,2.3065,2.3065,0,0,0,.9881,1.279.51.51,0,0,0,.3842.0728,1.0834,1.0834,0,0,1,.9327.0459c.07.0328.1628.0526.1146.1748-.0424.1075-.1144.0944-.2.0761-.1271-.0274-.2555-.049-.3833-.073l-.0194.0635a2.2593,2.2593,0,0,0,.376.2056c.3053.1.6171.1813.9288.26.0958.0244.2124.0267.1679.159a.2519.2519,0,0,1-.1939.1067A3.4932,3.4932,0,0,1,12.09,14.64c-.278-.2224-.526-.4822-.788-.7251-.0048.0109-.0139.022-.0136.0328a2.1141,2.1141,0,0,0,1.7147,2.0586.411.411,0,0,0,.22-.0288,1.3527,1.3527,0,0,1,.8375-.036c.0446.0087.0785.0719.1174.11-.0425.0429-.0781.1076-.129.1238a2.1584,2.1584,0,0,1-.3432.048,1.8467,1.8467,0,0,0,.8412.1586c.1252.0045.2187.12.1524.2009a.3113.3113,0,0,1-.1664.0759,2.9366,2.9366,0,0,1-1.7074-.1986C12.56,16.36,12.3038,16.2372,12.0318,16.12ZM9.1112,12.4079l1.8336.9267c.0067-.1385.0193-.2368.0146-.3343-.0125-.2586-.046-.517-.0445-.7753a.32.32,0,0,0-.1853-.3116c-.5823-.3559-1.1764-.697-1.73-1.0944-.48-.3449-.9128-.7567-1.3618-1.1442a.2031.2031,0,0,1-.0511-.1581.1367.1367,0,0,1,.11-.0795c.05.0061.0962.0541.1425.0864.84.5853,1.6766,1.1746,2.5206,1.7536a4.9461,4.9461,0,0,0,.5432.2847c.1231-.1464.0456-.2035-.0573-.2691-.65-.4143-1.3062-.8191-1.9422-1.2538A14.4669,14.4669,0,0,1,6.4334,7.9783a3.8769,3.8769,0,0,1-.9086-1.426,4.6277,4.6277,0,0,0-.33,1.9144,1.8518,1.8518,0,0,0,1.4609,1.8051c.161.0432.3265.07.5306.1126l-.6847.4858c.6188.4027,1.225.779,1.81,1.1861a.7359.7359,0,0,0,.7962.1313.9593.9593,0,0,1,.2095-.0384ZM42.71,6.6257c-.2.3206-.3828.6682-.6191.9742a7.2536,7.2536,0,0,1-.8116.8733,22.6528,22.6528,0,0,1-3.7692,2.7291c-.1448.0873-.1873.17-.08.3345A21.201,21.201,0,0,0,40.66,9.38l.1614.174c-.2822.2562-.5391.5082-.8153.7369a16.9118,16.9118,0,0,1-2.4142,1.6012.2483.2483,0,0,0-.1623.2277c-.0065.2964-.035.5923-.0483.8887a1.7187,1.7187,0,0,0,.03.2567l1.6872-.8561-.2043-.2727c.1752.0436.3108.07.4419.1118a.3664.3664,0,0,0,.35-.0565c.3378-.233.6866-.45,1.0307-.6738.3257-.2119.651-.4245.9962-.65l-.6961-.4868c.1357-.0251.227-.0426.3186-.0588a1.873,1.873,0,0,0,1.6632-1.6861A4.3656,4.3656,0,0,0,42.71,6.6257ZM11.495,15.6489c-.1594-.32-.327-.663-.5021-1.0017a.2346.2346,0,0,0-.1277-.0944c-.9266-.3147-1.8564-.62-2.78-.9418-.2656-.0925-.5157-.2295-.7678-.3438.0618-.2208.0792-.2352.2492-.1512a13.0642,13.0642,0,0,0,3.0215.9812c.096.0212.193.0382.2929.0579.0462-.207-.109-.1846-.2027-.2077a15.2885,15.2885,0,0,1-4.29-1.7143c-.3446-.2084-.6719-.4457-1.0308-.6855-.0283.1486-.0591.2882-.0809.4291a1.9086,1.9086,0,0,0,.9854,2.0457,6.6866,6.6866,0,0,0,1.1756.397,3.3863,3.3863,0,0,0,.4659.0751l.0361.072-.6342.5464A3.8125,3.8125,0,0,0,9.409,15.58a.5977.5977,0,0,0,.2957-.1645,3.6549,3.6549,0,0,0,.3036-.336l.0354.0234-.168.5456ZM42.8307,11.54a11.62,11.62,0,0,1-2.6155,1.516,16.74,16.74,0,0,1-2.6.868c-.0994.0244-.2055.0418-.1367.1955.065-.0112.1271-.0191.1881-.0327a13.2419,13.2419,0,0,0,3.11-1.008c.1456-.0732.2209-.0419.2475.1357a3.0682,3.0682,0,0,1-.2962.16,22.1687,22.1687,0,0,1-3.1773,1.1192.3174.3174,0,0,0-.2393.2014c-.1362.2824-.3009.5509-.4556.8243-.026.0459-.0592.0878-.0857.1266h1.57l-.1813-.5652a.7876.7876,0,0,1,.2629.251.6028.6028,0,0,0,.5823.2675,3.9562,3.9562,0,0,0,1.77-.4219,1.54,1.54,0,0,0,.1577-.1111l-.6173-.5785c.0783-.0106.1453-.0205.2124-.0286a3.73,3.73,0,0,0,1.4725-.4526A2.0433,2.0433,0,0,0,42.8307,11.54ZM7.5667,16.19a3,3,0,0,0,.6149.958,2.0287,2.0287,0,0,0,1.24.6711.3952.3952,0,0,0,.3637-.0945c.1152-.11.2492-.2014.3749-.3009l.03.0229-.2318.577a2.7244,2.7244,0,0,0,1.34.1418.3688.3688,0,0,0,.3432-.2713,2.3544,2.3544,0,0,1,.1379-.2717c.0171.1668.0206.2742.0421.3778.01.0464.0492.1151.0859.1228a1.7072,1.7072,0,0,0,.9674-.0422.67.67,0,0,0-.3007-.4878,5.68,5.68,0,0,1-.5557-.4821.41.41,0,0,0-.2038-.1047c-.2452-.0226-.4924-.0216-.7381-.0388-.29-.02-.58-.0451-.8682-.08-.048-.0058-.0882-.0749-.1319-.1148.0473-.0343.0907-.0874.1429-.0984a1.0924,1.0924,0,0,1,.2068.0125c.4259-.0011.8519-.0048,1.2806-.0076-.0282-.3751-.0311-.3763-.3355-.3863-.164-.0053-.3278-.02-.4918-.0268-.6249-.026-1.25-.0577-1.8748-.0732C8.5281,16.18,8.05,16.19,7.5667,16.19ZM29.8706,34.6237c.2337-.4488.4619-.884.6853-1.3217a.1775.1775,0,0,0,.0075-.1394c-.2122-.4145-.4306-.8259-.6505-1.2444a2.3907,2.3907,0,0,1-1.7635-.04v1.4727a9.3478,9.3478,0,0,1-2.6724-2.726.6329.6329,0,0,0,.0841.6764,9.8016,9.8016,0,0,0,2.0641,2.2294A5.4266,5.4266,0,0,0,29.8706,34.6237Zm6.77-18.01a1.79,1.79,0,0,0,.1884.0207c.416.0024.832.0011,1.248.0037.0732.0005.1743-.0467.1873.0892.0123.1276-.0782.1226-.1608.1282-.5227.0354-1.0458.0672-1.5679.11a.4016.4016,0,0,0-.2049.1024,4.4659,4.4659,0,0,1-.54.4705.893.893,0,0,0-.3586.5719,1.689,1.689,0,0,0,.8554.0183c.0449-.009.0948-.0868.1076-.141a1.9065,1.9065,0,0,0,.0259-.2989c.0563.0233.0808.0469.0868.0745.0769.3579.3421.4287.6521.4281a3.3512,3.3512,0,0,0,.4727-.0157c.2077-.03.4117-.0855.6268-.1322l-.2316-.59a4.6243,4.6243,0,0,1,.418.2808.5031.5031,0,0,0,.2875.0906,2.4321,2.4321,0,0,0,1.906-1.6579c-.2113,0-.4233-.0066-.6347.0011-1.0222.0373-2.0441.0854-3.0666.1129C36.7132,16.2861,36.6355,16.3755,36.64,16.6133ZM31.01,36.4689a3.3022,3.3022,0,0,1,1.3816,2.0679l.8064-1.9609a1.9732,1.9732,0,0,1-.3048-.1083,2.5191,2.5191,0,0,1-.4732-.3042.3565.3565,0,0,1-.0306-.54,1.7986,1.7986,0,0,0,.5091-.9909,1.1138,1.1138,0,0,0,.003-.2649c-.4281.1743-.8055.3334-1.1876.48-.1215.0467-.14.1082-.1149.228A1.2,1.2,0,0,1,31.01,36.4689Zm-5.102-16.1546.0508-.042c.0194-.1682.0352-.3368.0594-.5042.0166-.1144.0789-.165.2005-.1236.1615.0549.3276.0971.4867.1581a.2125.2125,0,0,1,.1226.1245,5.1374,5.1374,0,0,1,.1945,1.59c-.0112.0912-.0776.1746-.0968.2662a.346.346,0,0,0,.0083.2346,1.3213,1.3213,0,0,0,.2757.224c.0375-.28.0805-.52.1-.7625a3.07,3.07,0,0,0-.4078-1.93.4353.4353,0,0,0-.1379-.1452,3.3333,3.3333,0,0,0-.34-.15,2.4643,2.4643,0,0,1-1.0336.2785.6594.6594,0,0,0-.5372.3267,1.6809,1.6809,0,0,1-.7534.7237.4919.4919,0,0,0-.2564.5933c.0372.16.0888.3161.1215.4765a.3555.3555,0,0,0,.2534.2875,2.5553,2.5553,0,0,1,.3471-.443.9757.9757,0,0,0,.4322-.6446c.1566.1216.2386.0378.278-.0939a3.4345,3.4345,0,0,0,.0965-.46c.0225-.1451.03-.2924.0444-.4388l.09-.0559Zm-6.9474,3.6379c-.1611.2145-.3007.4009-.4409.5868a.36.36,0,0,0,.2326.5832,1.214,1.214,0,0,0,1.0769-.284c.117-.1145.2264-.2373.333-.3617.0624-.0728.1034-.159.2254-.08s.0367.1541.0094.2271c-.0473.1266-.1046.2493-.1766.4177a5.9108,5.9108,0,0,0,.6345.0859.5457.5457,0,0,0,.546-.7712c-.1227-.3143-.2818-.6143-.4244-.92-.9989.77-1.2666.7987-1.9147.2027l-.27.1963Zm8.2773-.5067a3.8607,3.8607,0,0,0-.2582.64,2.1453,2.1453,0,0,0-.0177.6695.3643.3643,0,0,0,.3685.3244,4.2948,4.2948,0,0,0,.6539-.0618c.1008-.0126.1192-.0757.0775-.1651a2.6307,2.6307,0,0,1-.1468-.3482.1625.1625,0,0,1,.06-.1435.1705.1705,0,0,1,.1558.0171,1.1362,1.1362,0,0,1,.1547.19,1.3333,1.3333,0,0,0,1.2267.5332.4711.4711,0,0,0,.3831-.2668c.0916-.1536-.0039-.2466-.083-.3512a1.7575,1.7575,0,0,1-.35-.4881c-.0568-.2-.2-.2523-.32-.3561a1.029,1.029,0,0,1-1.5634.0926C27.4653,23.6437,27.3587,23.5468,27.2382,23.4455Zm5.42-3.7042a.808.808,0,0,1,.3218.711c-.003.0385.0627.1028.11.1215a.6188.6188,0,0,0,.8032-.2689,1.6891,1.6891,0,0,0,.1878-.6245.6054.6054,0,0,0-.7651-.5849.2194.2194,0,0,0-.09.0592C33.04,19.3449,32.8553,19.537,32.6581,19.7413ZM29.6746,23.912c.1764.1468.3128.2658.4549.3776a1.058,1.058,0,0,0,1.0433.1026.7215.7215,0,0,0,.4439-.44.1855.1855,0,0,0-.0352-.1678c-.2558-.22-.5206-.43-.7765-.6377A1.2231,1.2231,0,0,1,29.6746,23.912ZM15.5708,19.7239a2.7333,2.7333,0,0,1-.4821-.4342.3152.3152,0,0,0-.4335-.1193.4666.4666,0,0,0-.3763.5558,1.8723,1.8723,0,0,0,.1958.64.56.56,0,0,0,.6323.2778.1861.1861,0,0,0,.1185-.1367A.8526.8526,0,0,1,15.5708,19.7239Zm1.8713,3.5679c-.2367.1833-.4681.3566-.69.5412a.1763.1763,0,0,0-.0184.1605.801.801,0,0,0,.5187.465,1.2859,1.2859,0,0,0,1.4359-.5839A1.2435,1.2435,0,0,1,17.4421,23.2918ZM31.96,21.51a.4713.4713,0,0,0,.3544.4808c.06.0183.1164.0492.1764.068a.7848.7848,0,0,0,1.0464-.76.371.371,0,0,0-.1641-.2768,2.5071,2.5071,0,0,0-.5113-.1412A1.0073,1.0073,0,0,1,31.96,21.51Zm.0239.7557a1.1269,1.1269,0,0,1-.9249.6838c.1691.136.3032.24.4327.3488a.7893.7893,0,0,0,.9054.026.7351.7351,0,0,0,.4133-.6731.1778.1778,0,0,0-.0954-.1361C32.4818,22.4266,32.2438,22.3525,31.9834,22.2654Zm1.1273,13.4737c.1542-.0975.2972-.1738.4237-.2716A.2928.2928,0,0,0,33.62,35.05a1.2564,1.2564,0,0,0-.5307-.4108,2.8049,2.8049,0,0,1-.1323.401,4.5118,4.5118,0,0,1-.3837.662c-.1118.15-.1493.2169.0223.3036a3.8021,3.8021,0,0,0,.7524.2762,2.2643,2.2643,0,0,0,.5157.0069A1.233,1.233,0,0,0,33.1107,35.7391ZM16.2619,22.3572c-.2244.0689-.4245.1247-.62.1943-.0447.016-.1052.0814-.1028.1207a.7607.7607,0,0,0,.3666.6665.9938.9938,0,0,0,1.36-.3961A1.12,1.12,0,0,1,16.2619,22.3572ZM15.39,20.9691a2.8324,2.8324,0,0,1-.3613.0789c-.1554.0127-.2363.1128-.2085.2358a1.8914,1.8914,0,0,0,.2206.5881.6516.6516,0,0,0,.8291.2187c.2944-.0934.35-.1808.3675-.5835A1.0018,1.0018,0,0,1,15.39,20.9691ZM12.0348,35.3175a3.2236,3.2236,0,0,0-1.1206.4073c-.1043.0675-.247.1426-.1829.29a.5644.5644,0,0,0,.2578.29,1.0442,1.0442,0,0,0,.8276-.03.3959.3959,0,0,0,.2542-.3381.264.264,0,0,0-.3727.0481.3416.3416,0,0,1-.5649.0047.4718.4718,0,0,0,.5446-.18C11.7921,35.653,11.9054,35.4959,12.0348,35.3175Zm21.2574-4.0742-.3879-.537.04-.0472a1.6671,1.6671,0,0,1,.4474.2863c.1427.1765.2905.1483.4885.1259a1.7527,1.7527,0,0,0-.7873-.6008,1.0091,1.0091,0,0,0-.3915-.0109.1714.1714,0,0,0-.1141.1189,1.926,1.926,0,0,0,.4886,1.4072C33.133,31.7152,32.9978,31.4241,33.2922,31.2433ZM10.68,33.665l.2209-.0182c-.0393.2064.1173.2312.2255.2814a.8379.8379,0,0,0,.861-.0685,6.1,6.1,0,0,0-.7739-.3844c-.2-.0852-.41-.1727-.593.0309a.5652.5652,0,0,0-.1576.2534.4355.4355,0,0,0,.2636.4426.5824.5824,0,0,0,.6362.0779c.0053-.0032.0028-.0194.0044-.0339A.9222.9222,0,0,1,10.68,33.665ZM36.859,35.4792c-.1064.0414-.2.103-.2233.0828-.16-.1361-.305-.2895-.4818-.4638a1.2512,1.2512,0,0,0-.0957.386.3615.3615,0,0,0,.3479.3212.58.58,0,0,0,.5814-.1222.277.277,0,0,0,.0531-.0989.9923.9923,0,0,0-.3712-.9349c-.104-.0557-.2266-.0761-.245.0834C36.3845,35.0805,36.3722,35.3354,36.859,35.4792Zm-.7276-4.2681.0114.0563a.8053.8053,0,0,0,1.0073-.1917c-.0413.3467-.2767.4483-.4949.5559l.336.3585a1.4471,1.4471,0,0,0,.41-1.0369c-.0039-.24-.0865-.307-.3065-.2114C36.7671,30.8839,36.4518,31.0533,36.1314,31.2111Zm-9.646-6.934a2.1255,2.1255,0,0,0,.2528-2.2166c-.1456.0491-.0746.1571-.07.2482a2.6808,2.6808,0,0,1,.0172.5373c-.0536.3549-.1406.7047-.2139,1.0566l-.0537-.0312c-.0486.03-.1257.05-.141.0924C26.21,24.1493,26.3843,24.1869,26.4854,24.2771Zm-11.91,9.9156.0627.0363c.25-.17.5032-.3355.7485-.5119a1.4077,1.4077,0,0,0,.2754-.2568c.1006-.1256.0649-.2143-.0855-.2767a.3689.3689,0,0,0-.4642.1553C14.9172,33.6121,14.7525,33.9069,14.5752,34.1927Zm.0782,2.0874c-.4638-.0975-.9209-.1663-1.2318.3175A.9958.9958,0,0,0,14.6534,36.28Zm-.7752-23.0543-.3208.19a1.8789,1.8789,0,0,0,1.0922.7775Zm-.1317,22.5428a5.2881,5.2881,0,0,0,.61.2616c.0866.0258.2009-.0413.3026-.0662a1.34,1.34,0,0,0-.1709-.3478c-.043-.0478-.1787-.0372-.2637-.0166A4.91,4.91,0,0,0,13.7465,35.7686Zm-1.5073-2.1471c-.141-.3627.0946-.7514-.08-1.1327A.7889.7889,0,0,0,12.2392,33.6215Zm-1.86-.2785a1.7076,1.7076,0,0,0-.2882.0575.1517.1517,0,0,0-.0639.135c.066.1466.1506.2847.2254.42Zm3.3346.3588a.4416.4416,0,0,0-.1638.5114.1058.1058,0,0,0,.0895.0429.1181.1181,0,0,0,.071-.0819C13.7172,34.0211,13.7134,33.8675,13.7134,33.7018ZM35.4983,18.8443l.0166-.047-.4553-.1838-.0289.0762ZM23.7919,8.2233c.1166-.1395.1-.2558-.0545-.3411Z"/><path class="cls-1" d="M25.1188,32.2916c.2456.671.4656,1.3161.7166,1.9488a14.5174,14.5174,0,0,0,1.8207,3.4632,14.58,14.58,0,0,1,1.3609,2.0041,11.038,11.038,0,0,1,.9359,2.3745c.0131.0511-.0384.1186-.06.1785-.0453-.0382-.1153-.0678-.1321-.116a14.5961,14.5961,0,0,0-2.235-4.0473,19.3466,19.3466,0,0,1-2.37-4.3713c-.085-.2042-.1541-.4153-.246-.6161a.4336.4336,0,0,1,.0193-.43C24.9973,32.5612,25.05,32.4333,25.1188,32.2916Z"/><path class="cls-1" d="M23.0693,32.2792c.0967.2067.1867.38.2564.56a.31.31,0,0,1-.0232.1991,21.0689,21.0689,0,0,1-2.8553,5.3508,13.1965,13.1965,0,0,0-2.0055,3.7246.31.31,0,0,1-.0653.1321c-.0257.0221-.1073.0259-.1191.008a.1917.1917,0,0,1-.0286-.1457c.1588-.4793.3026-.9652.4922-1.4324a10.7241,10.7241,0,0,1,1.6613-2.77,10.3636,10.3636,0,0,0,1.4961-2.5643c.4024-.9538.7492-1.931,1.1206-2.8979C23.016,32.3989,23.0364,32.3557,23.0693,32.2792Z"/><path class="cls-1" d="M20.9425,43.77l-.2-.0147c.0611-.257.1131-.5013.1775-.7422a35.6757,35.6757,0,0,1,1.28-3.684,14.9848,14.9848,0,0,0,.8943-3.7675c.0578-.5138.0773-1.0318.1183-1.5475.0068-.0854-.0328-.2079.1121-.2221.1543-.0151.1466.1192.1634.2083a6.2423,6.2423,0,0,1,.03,1.6036,14.1779,14.1779,0,0,1-1.0912,4.0232c-.4943,1.3046-.94,2.6276-1.4076,3.9424C20.9959,43.6343,20.97,43.6983,20.9425,43.77Z"/><path class="cls-1" d="M27.4287,43.7282l-.1775.0675c-.1335-.3817-.2584-.7517-.392-1.1185-.5276-1.4489-1.0619-2.8953-1.5861-4.3455a10.2855,10.2855,0,0,1-.62-3.9829,1.6252,1.6252,0,0,1,.07-.4094c.0188-.06.1008-.1.1541-.1485.0337.0564.0954.1121.0969.1693a16.1354,16.1354,0,0,0,.6964,4.4047c.2766.8853.6527,1.7392.9458,2.62s.5378,1.7756.8033,2.6645A.5738.5738,0,0,1,27.4287,43.7282Z"/><path class="cls-1" d="M24.34,35.509c0,.1923.0023.3673,0,.5421q-.0225,1.4319-.0473,2.8638-.0362,1.9527-.0773,3.9054c-.0174.815-.04,1.63-.06,2.4448-.0006.0253.007.0563-.0048.0747a1.1,1.1,0,0,1-.0959.1153c-.03-.04-.0829-.0779-.0847-.1186-.011-.2526-.0116-.5057-.0136-.7586q-.0162-2.1056-.0316-4.2112c-.0125-1.5428-.0237-3.0857-.0443-4.6284-.0022-.1616.0431-.2165.1976-.2089A1.991,1.991,0,0,0,24.34,35.509Z"/><path class="cls-1" d="M20.6291,32.1284c-.1029-.3872.1272-.6366.2668-.968-.2268.0211-.4173.031-.6049.06-.0937.0143-.1694.0833-.2709-.0151-.05-.0483-.1674-.0268-.2659-.0383-.0282-.1289-.0131-.19.1531-.1672a1.0784,1.0784,0,0,0,1.0318-.414c.1369.1539.2669.1464.4019-.0479a3.7689,3.7689,0,0,0,.2234-.4272l.116.158.4516-.613.065.0267a4.37,4.37,0,0,1-.101.52,2.29,2.29,0,0,1-.7827,1.1577A1.7378,1.7378,0,0,0,20.6291,32.1284Z"/><path class="cls-1" d="M27.0835,31.2136l.1975.2712a.62.62,0,0,1-.4776-.31,4.8821,4.8821,0,0,1-.2817-.6905c.0823.05.1655.0994.2466.1515a1.8671,1.8671,0,0,0,.2975.1906.2394.2394,0,0,0,.3072-.0557.2459.2459,0,0,1,.17-.069c.1816-.0042.3329-.05.3889-.2053l.5928.5363Z"/><path class="cls-1" d="M22.2348,23.8274v.5178C22.0513,24.2739,22.0734,24.3,22.2348,23.8274Z"/><path class="cls-1" d="M25.2108,11.06c-.2009,0-.4018.003-.6026-.0009a.4352.4352,0,0,0-.3968.1948.5553.5553,0,0,1-.9944.0118.5593.5593,0,0,0-.5131-.2376,1.1373,1.1373,0,0,1-.24-.0148,4.0183,4.0183,0,0,1,2.7511-.0037Zm-1.51.0221c-.1135-.0807-.1817-.1664-.2369-.1587a.2258.2258,0,0,0-.1529.16c-.0026.0518.0928.1456.1529.1527C23.5208,11.2424,23.588,11.16,23.7011,11.082Z"/><path class="cls-1" d="M21.7131,11.3776l.3808.3343C21.7436,11.7988,21.6932,11.7565,21.7131,11.3776Z"/><path class="cls-1" d="M25.5224,16.4139a.8678.8678,0,0,1-.106.5456A.3788.3788,0,0,1,25.5224,16.4139Z"/><path class="cls-1" d="M26.8243,15.4259v-.5727A.4174.4174,0,0,1,26.8243,15.4259Z"/><path class="cls-1" d="M26.342,15.8894a2.4592,2.4592,0,0,1-.0053.3339c-.0054.039-.0715.07-.11.1039-.022-.0509-.07-.1072-.0609-.1517a1.9129,1.9129,0,0,1,.107-.2917Z"/><path class="cls-1" d="M16.97,14.1743a3.8866,3.8866,0,0,0-.9788-1.4317.1649.1649,0,0,1-.0031-.1588.16.16,0,0,1,.1521-.0363,2.2667,2.2667,0,0,1,.8568.7846A.7188.7188,0,0,1,16.97,14.1743Z"/><path class="cls-1" d="M32.4442,12.6a4.11,4.11,0,0,0-1.06,1.5473.6769.6769,0,0,1-.1114-.6784,2,2,0,0,1,.9536-.9635C32.2631,12.4838,32.3578,12.56,32.4442,12.6Z"/></svg>