<svg id="Layer_1" data-name="Layer 1" xmlns="http://www.w3.org/2000/svg" viewBox="0 0 50 50"><defs><style>.cls-1{fill:#390099;}</style></defs><title>Const Unions Logos-02</title><path class="cls-1" d="M26.6768,4a1.2264,1.2264,0,0,1-.0324.7368c-.2049.4807-.4131.96-.612,1.4434a.7739.7739,0,0,0-.0633.3171.5665.5665,0,0,0,.7646.5284c.4007-.1225.7962-.2619,1.1943-.3926.0652-.0213.1326-.0357.2159-.0579V9.1208c-.0712-.0265-.1294-.0442-.1841-.0692q-.6945-.3185-1.388-.6393a.315.315,0,0,0-.4667.262c-.01.4318-.0027.8641-.0027,1.3134.05.0241.1116.0555.1747.0842a3.1131,3.1131,0,0,1,1.3522,1.1237,2.6379,2.6379,0,0,1-.4476,3.4946,5.8038,5.8038,0,0,1-.5062.3881.3621.3621,0,0,0-.128.1252c.11-.0173.2215-.03.3306-.0524a7.3053,7.3053,0,0,0,2.9733-1.3417,2.3882,2.3882,0,0,0,.2445-.2442c.03-.0311.0588-.0641.1025-.112l.5155.4475c.0629.0545.0444.1117.0093.1729-.106.1847-.2156.3676-.3137.5565-.1513.2913-.2942.5869-.4492.8978l.37.1108a1.0368,1.0368,0,0,1,.2495-.8373.8864.8864,0,0,1,.4819-.269.9254.9254,0,0,1,.9891.4482.95.95,0,0,1-.2168,1.1855l.5161.2188c-.0224-.656.2191-1.0444.7-1.1493a.9313.9313,0,0,1,1.0569.5234c.2.45.0359.8816-.4857,1.2434.1109.0619.2141.119.3169.1769.1058.06.2111.12.3214.183.1156-.6546.4-.9735.8816-1.0022a.9146.9146,0,0,1,.95.6685.9615.9615,0,0,1-.5692,1.1457l.4342.3233c.2643-.6079.5391-.824.9964-.7935a.9223.9223,0,0,1,.8331.672c.122.447-.0415.7684-.5886,1.1444.0766.0712.1511.1413.2266.21.0376.0344.0771.0669.1169.1012.3166-.56.6507-.7483,1.1247-.64a.9313.9313,0,0,1,.704.85.9545.9545,0,0,1-.7052.9535,3.3777,3.3777,0,0,0,.3342.391c.3547-.5056.706-.6653,1.1535-.531a.9339.9339,0,0,1,.66.8651c.0141.4455-.2433.7436-.8423.96l.29.4354c.0488-.0644.0886-.1182.13-.1709a.9355.9355,0,0,1,1.0456-.3018.9248.9248,0,0,1,.6033.8849.9148.9148,0,0,1-.6554.8649,3.02,3.02,0,0,1-.3311.0563l.2445.4957c.0421-.045.0752-.0783.106-.1135a.9244.9244,0,0,1,1.6109.7806.9321.9321,0,0,1-.883.7371c-.0573.0022-.1148,0-.1986,0a5.4643,5.4643,0,0,0,.2079.5805.9262.9262,0,0,1,1.1283-.3589.8519.8519,0,0,1,.5818.7951c.0261.44-.1632.6989-.7154.9843l.6155.2151c-.0328.0825-.0555.1474-.0838.21-.3895.8577-.7715,1.719-1.174,2.57a3.7923,3.7923,0,0,0-.2694.9432,11.0834,11.0834,0,0,1-1.6077,3.997c-.0853.1321-.1692.2225-.3375.18a.2085.2085,0,0,0-.0667.01l.05.1438a.7755.7755,0,0,1,.0069.5132c-.0533.1607-.132.295-.3256.313a.7924.7924,0,0,0-.1491.04.8575.8575,0,0,1-.5945.0479l-.0744.276a2.82,2.82,0,0,1,.2507.2328c.1535.1829.2962.3748.4463.5607a.2993.2993,0,0,1,.0757.2112,1.4087,1.4087,0,0,1-.0256.4962c-.0611.1309-.2351.2106-.3627.3086-.2867.22-.573.4412-.8647.6546a.3148.3148,0,0,0-.1584.3037c.0417.0188.0917.0438.1435.0642a1.962,1.962,0,0,1,.5778.3473,1.5269,1.5269,0,0,1-.0566,2.42,2.0511,2.0511,0,0,1-.9659.4185c-.7643.123-1.5277.2524-2.2937.3639q-1.12.163-2.2453.294c-.6986.0822-1.3988.151-2.0992.2161-.54.05-1.0805.0987-1.6218.1251-1.2251.06-2.45.123-3.6764.1525-1.504.0361-3.0088.0206-4.5118-.0571-.967-.05-1.9344-.099-2.9-.1732q-1.293-.0994-2.5816-.2554-1.6332-.1973-3.2607-.4406c-.7463-.1107-1.4881-.2524-2.23-.3881a.9233.9233,0,0,1-.3-.1277,1.4325,1.4325,0,0,1-.3263-2.2582,1.8765,1.8765,0,0,1,.59-.4316c.0516-.0247.1035-.0489.1677-.0793-.0385-.1666-.0681-.3312-.1176-.4895-.0169-.054-.0792-.0985-.1289-.1368-.3119-.24-.6237-.4811-.9412-.7139a.3031.3031,0,0,1-.1394-.274.8519.8519,0,0,1,.27-.7846,3.8639,3.8639,0,0,1,.2541-.3172.3109.3109,0,0,0,.0743-.3671c-.0118-.0294-.022-.0594-.03-.0807-.2269-.06-.4437-.12-.6615-.1751a.2833.2833,0,0,1-.19-.15.8032.8032,0,0,1-.0378-.7093c.0213-.0534.0507-.1036.0764-.1552-.1489-.3045-.3011-.6032-.4416-.9073-.1353-.2927-.2682-.5872-.3851-.8875-.3869-.9937-.8843-1.9361-1.3338-2.9007-.4578-.9825-.9279-1.9593-1.3922-2.9388-.03-.0628-.056-.1273-.0935-.213.4836-.185.9717-.3107,1.4356-.5127a1.094,1.094,0,0,1-.9084-.0939.9038.9038,0,0,1-.3663-.4621.931.931,0,0,1,.3535-1.0781.9051.9051,0,0,1,.7033-.1356.982.982,0,0,1,.5966.4034l.2285-.5826a1.0034,1.0034,0,0,1-.8341-.2586.9161.9161,0,0,1-.2686-.5251.9341.9341,0,0,1,.5418-.98.9658.9658,0,0,1,1.1866.3844c.049-.088.0952-.1691.14-.2512.0456-.084.09-.1689.1484-.28a.96.96,0,0,1-.7963-.3055.8676.8676,0,0,1-.2285-.5221.9258.9258,0,0,1,.5792-.9563c.4413-.1717.8085-.0209,1.2295.5255a.5449.5449,0,0,1,.0349-.0746c.089-.1332.18-.2655.2821-.4167a.9961.9961,0,0,1-.7463-.4225.9.9,0,0,1-.1562-.55.9134.9134,0,0,1,.6948-.8539c.4748-.1157.81.0675,1.1492.6521a1.2711,1.2711,0,0,1,.0808-.1209c.0995-.1171.2017-.2318.3063-.3514-.6037-.2356-.84-.567-.78-1.0767a.9105.9105,0,0,1,.7816-.7721c.5-.0541.837.1847,1.0593.7685l.446-.3953c-.6017-.27-.843-.663-.7222-1.1557a.9172.9172,0,0,1,.9335-.6915c.4845.015.8041.3417.901.945l.6054-.4276c-.6543-.2856-.9016-.6908-.7508-1.2019a.9279.9279,0,0,1,1.0358-.65c.5471.1.8074.4965.766,1.171a.2292.2292,0,0,0,.0538-.0142c.2767-.1516.5529-.3041.8615-.4742a.9765.9765,0,0,1-.7648-.6829.8958.8958,0,0,1,.0823-.6936.9148.9148,0,0,1,1.185-.3956.9622.9622,0,0,1,.4237,1.3324l.8005-.3235c-.0617-.0495-.1088-.0876-.1562-.1254a.9274.9274,0,0,1-.2876-1.081.9112.9112,0,0,1,.9464-.5609.8994.8994,0,0,1,.8105.7411,1.4339,1.4339,0,0,1-.0063.364,1.5689,1.5689,0,0,1-.0579.231l.512-.1421a12.7845,12.7845,0,0,0-.7741-1.5025c.0591-.1292.1791-.1905.2694-.2788.0871-.0853.1828-.1617.2709-.2386A6.8536,6.8536,0,0,0,22.82,15.1055a.908.908,0,0,0-.0891-.0768,2.9034,2.9034,0,0,1-1.3069-1.9137,2.411,2.411,0,0,1,.0861-1.1858,3.0061,3.0061,0,0,1,1.6622-1.8413c.0637-.031.1288-.0593.1932-.0891a.29.29,0,0,0,.03-.0231c0-.1224.0012-.2566,0-.3908-.003-.2712-.0081-.5423-.0111-.8134-.0038-.3486-.2094-.4727-.5216-.3265-.4613.2161-.9273.4224-1.3917.6319a.9072.9072,0,0,1-.1057.0333,22.4787,22.4787,0,0,1-.0069-2.5311c.0668.0175.1342.0315.1991.0529.3736.1231.7453.2524,1.1207.37a.8161.8161,0,0,0,.34.0444.5745.5745,0,0,0,.4608-.81c-.1853-.4539-.3688-.91-.58-1.3516a1.6318,1.6318,0,0,1-.1211-.7915A.42.42,0,0,1,22.8022,4ZM40.3336,31.834l.0532.0321c.0027.12.0027.24.0087.36a.5865.5865,0,0,1-.0825.35,3.8577,3.8577,0,0,1-3.8643,1.8323,3.7632,3.7632,0,0,1-3.0318-2.3613.2223.2223,0,0,0-.24-.1655c-.3678.0079-.7362.0094-1.104,0a.3949.3949,0,0,0-.37.18,4.0663,4.0663,0,0,1-2.0585,1.4753,2.1343,2.1343,0,0,1-.529.103,3.5432,3.5432,0,0,1-2.7162-1,1.8449,1.8449,0,0,1-.5434-.7878,2.24,2.24,0,0,0-.0907-.2137c-.1275-.2962-.2565-.5919-.3818-.8891-.0557-.1321-.0517-.1375.067-.22.0583-.04.1186-.078.1782-.1166.18-.1171.1805-.1175.354.01q.8739.6422,1.7476,1.2847c.0543.04.1109.0763.1718.1182a17.6325,17.6325,0,0,0,.05-4.7194c-.3008.2577-.6148.4978-.8931.7738a.7832.7832,0,0,1-.8408.266c-.03-.0094-.0655-.0024-.0956-.0119a1.3322,1.3322,0,0,1-.136-.0614l1.1122-2.2769a9.6214,9.6214,0,0,0-4.761,0c.0391.0878.0659.1525.0964.2155q.4515.9318.9035,1.8635c.0321.0664.055.1372.0932.2336-.195.0269-.3592.0472-.5225.0727a.3409.3409,0,0,1-.3-.0913c-.3338-.295-.6739-.5828-1.0124-.8725-.0465-.04-.0972-.0747-.1719-.1317a22.2861,22.2861,0,0,0,.07,4.7553c.0793-.0542.1325-.0885.1835-.1257q.876-.6395,1.7514-1.28a.6531.6531,0,0,1,.1271-.0875.1652.1652,0,0,1,.126-.0064c.1363.0824.2661.1756.4021.2676-.03.0792-.0495.14-.0745.1979-.1757.409-.3483.8194-.5316,1.225a1.4316,1.4316,0,0,1-.2138.3414,3.562,3.562,0,0,1-2.446,1.2646,2.6646,2.6646,0,0,1-1.29-.1828,4.2306,4.2306,0,0,1-1.8422-1.429.3131.3131,0,0,0-.2893-.1441c-.368.0062-.7361.0019-1.1041.0023-.2206,0-.22.0011-.3068.2056a3.8736,3.8736,0,0,1-6.8138.6018,1.4084,1.4084,0,0,1-.1328-.8675c.1.0461.17.0709.2326.108a9.42,9.42,0,0,0,2.156.9457c.0726.0214.1461.0395.2064.0557a.3321.3321,0,0,0,.1158-.4059,28.1432,28.1432,0,0,0-1.619-4.2855c-.0268-.0563-.0589-.11-.11-.2047a.7975.7975,0,0,0-.08.1546c-.0286.1323-.0435.2676-.0736.3995a3.7742,3.7742,0,0,1-.9695,1.8012c-.042.0439-.1062.1-.1563.0961a3.6923,3.6923,0,0,1-.4341-.0787c.0344-.1029.057-.1814.0865-.2572q.486-1.2436.9735-2.4867c.0245-.0626.0446-.127.0792-.2266L5.8215,28.6312l1.101,2.3175a.7942.7942,0,0,1,.968.37.7624.7624,0,0,1-.3174,1.0022c.2428.5132.4829,1.0129.7153,1.516a1.0531,1.0531,0,0,0,.2758.3664,5.4814,5.4814,0,0,0,4.3805,1.3358,4.4951,4.4951,0,0,0,2.9189-1.5179,5.204,5.204,0,0,0,.9052-1.4119c.0287-.0661.0345-.1545.147-.181.04.0519.0825.1059.1228.1618a4.4776,4.4776,0,0,0,2.1766,1.64,4.1327,4.1327,0,0,0,2.2848.1906,4.6851,4.6851,0,0,0,3.0886-2.1832c.0329-.0526.0716-.1015.1076-.1522.0345.0177.0564.0222.0667.0356a1.4988,1.4988,0,0,1,.086.1281,4.7156,4.7156,0,0,0,.8033.9895A4.5267,4.5267,0,0,0,28.2084,34.47a4.2712,4.2712,0,0,0,2.2882-.3517,4.5211,4.5211,0,0,0,1.896-1.5485c.0383-.0538.0862-.1008.1514-.1762.0467.0961.0792.1569.1065.22a5.1122,5.1122,0,0,0,1.1627,1.6751,4.2909,4.2909,0,0,0,2.0574,1.1349,5.8892,5.8892,0,0,0,1.9989.1151,5.6019,5.6019,0,0,0,3.2236-1.5021.7138.7138,0,0,0,.1551-.2167c.2024-.4324.3984-.8678.5955-1.3025.02-.0447.034-.0924.0493-.1345a.76.76,0,0,1-.3421-.8818.7242.7242,0,0,1,.2616-.3748.8206.8206,0,0,1,.7193-.123l1.0687-2.3517c-.229-.1178-3.46-1.1685-3.6067-1.1728.0253.07.0479.1363.0736.2018q.4869,1.2433.9737,2.4867c.0289.0739.045.1528.0721.2473a2.8833,2.8833,0,0,0-.3263.0626.25.25,0,0,1-.2864-.0982,3.8926,3.8926,0,0,1-.7269-1.1133,3.7855,3.7855,0,0,1-.2827-1.0224c-.0089-.07-.007-.1474-.1064-.1548-.0111.0079-.0253.0128-.0306.0226-.0279.0508-.055.1021-.08.1545a26.6105,26.6105,0,0,0-1.1977,2.9789c-.1452.4342-.2715.8747-.4147,1.31a.2742.2742,0,0,0,.0723.3283c.019.0166.0378.0336.07.0625.2883-.0972.5849-.1857.8725-.2974s.5716-.2381.8489-.3748C39.8,32.1372,40.0647,31.981,40.3336,31.834ZM25.1214,39.2454c-.9135.0214-1.8307.0274-2.7463.0688-.8892.04-1.7773.1112-2.6651.18-.5851.0451-1.17.0958-1.7525.1688-.9017.1131-1.8018.2408-2.7008.3741-1.3841.2053-2.7542.4853-4.119.7915a1.6874,1.6874,0,0,0-.7687.39A1.3686,1.3686,0,0,0,9.87,42.5471a1.3356,1.3356,0,0,0,.98,1.0135c.309.0636.6184.1269.93.1752,1.05.163,2.1.3266,3.1519.4755.7079.1,1.4183.1847,2.1293.26.7177.0757,1.4371.1373,2.1566.1934q.9257.0721,1.8534.1168c.7025.0341,1.4057.0731,2.1087.0758,1.31.005,2.6209-.011,3.9313-.0256.5291-.0059,1.058-.0293,1.5869-.0484q.3867-.014.7729-.0419c.4565-.0328.9127-.07,1.3689-.1062.514-.0409,1.0287-.0758,1.5418-.1265.5319-.0526,1.0626-.1191,1.5933-.1832.5435-.0657,1.088-.1254,1.6293-.2065.8662-.13,1.7306-.2721,2.5946-.4155a1.782,1.782,0,0,0,1.16-.6748,1.3593,1.3593,0,0,0,.0352-1.6576,1.7278,1.7278,0,0,0-1.0962-.7077c-.8839-.1805-1.768-.3624-2.6575-.5113-1.0169-.17-2.0382-.3173-3.0606-.4515-.69-.0907-1.3849-.1521-2.0791-.2079-.881-.071-1.7628-.139-2.6457-.1789C26.9457,39.2724,26.035,39.2667,25.1214,39.2454ZM11.0032,40.7135a.5277.5277,0,0,0,.0887-.0006c1.0236-.2063,2.0434-.4339,3.0714-.6148q1.6-.2815,3.2126-.4869c.9595-.1223,1.924-.2128,2.8887-.2842,1.0681-.0791,2.1385-.14,3.209-.1727.9675-.03,1.9369-.026,2.9049-.009.8581.015,1.7158.0618,2.573.1071q.8988.0474,1.7956.13,1.002.0924,2.0008.2173c.78.0988,1.5617.1971,2.3368.3294,1.0483.1789,2.0911.39,3.1365.5861a1.3393,1.3393,0,0,0,.1922.0011c-.3519-.3691-.69-.6827-1.0154-1.01s-.6659-.6408-1.0017-1.0029a4.5328,4.5328,0,0,1,1.2567-.5049,5.2664,5.2664,0,0,1,1.3449-.1457l.0623-.2725a56.3935,56.3935,0,0,0-18.9621-1.6829,55.7084,55.7084,0,0,0-9.8393,1.6855c.019.0874.0311.15.0468.2115a.1825.1825,0,0,0,.0284.0471.1409.1409,0,0,0,.0382.0131c.071.0013.142.0014.213.0009a4.8992,4.8992,0,0,1,2.2946.5361c.0595.03.1139.0707.1811.1129a1.439,1.439,0,0,1-.0978.1238Q12.0816,39.5,11.2,40.3714a.175.175,0,0,1-.2765.0078ZM29.7271,14.0769a.2539.2539,0,0,0-.05.0068c-.0276.0166-.0549.0336-.0816.0515a7.3513,7.3513,0,0,1-2.8649,1.158,6.18,6.18,0,0,0-.7752.1491,3.8719,3.8719,0,0,1-2.5787-.06,1.0817,1.0817,0,0,0-.203-.0586,7.486,7.486,0,0,1-2.9826-1.1716c-.0455-.03-.0934-.0569-.14-.0852a.6366.6366,0,0,0,.0975.1914,11.4776,11.4776,0,0,1,1.19,2.233,11.8657,11.8657,0,0,1,.7117,2.6461c.0756.5034.1781,1.0027.2524,1.5062.0913.6183.1661,1.239.2471,1.8588.0236.18.0516.21.2306.2121q.4068.0039.8135,0c.1828-.0018.1871-.0079.2081-.1962a.9871.9871,0,0,1,.561-.8254c.03-.0154.0585-.0359.0972-.06a.93.93,0,0,1,.133-1.79.8174.8174,0,0,1-.6341-.7479.8272.8272,0,0,1,.5453-.8148.7427.7427,0,0,1-.0382-1.3444c-.4071-.38-.4637-.7144-.1731-1.0233a.6442.6442,0,0,1,.9056-.0261.6266.6266,0,0,1,.2023.4474.6943.6943,0,0,1-.3724.6055.7219.7219,0,0,1,.4412.6716.7333.7333,0,0,1-.4687.6668.8149.8149,0,0,1-.083,1.5687.93.93,0,0,1,.1517,1.7844c.0069.0118.0088.0184.0132.0219a.1567.1567,0,0,0,.0322.0211.9654.9654,0,0,1,.6088.8893c.0076.13.0266.149.1705.15q.552.0051,1.104,0c.153-.0014.1829-.0393.2031-.1971.0957-.7477.18-1.4972.2938-2.2422.0932-.6111.213-1.2187.3367-1.8246a11.2743,11.2743,0,0,1,1.4745-3.7213C29.4393,14.5147,29.5792,14.3057,29.7271,14.0769ZM28.04,6.7148c-.1215.0391-.2133.068-.3046.0983-.312.1037-.6222.2131-.936.3108a.6957.6957,0,0,1-.9417-.7512.8027.8027,0,0,1,.0652-.2209c.2028-.4815.4062-.9628.6146-1.442a1.0929,1.0929,0,0,0,.04-.58h-3.68a1.2627,1.2627,0,0,0,.0706.6329c.2146.4763.4183.9576.6158,1.4413a.6876.6876,0,0,1-.5353.9494.7586.7586,0,0,1-.38-.0361q-.5136-.1716-1.0278-.3414c-.0587-.0193-.1189-.0338-.18-.0509a20.353,20.353,0,0,0,.01,2.2228c.036-.0131.0721-.0234.1059-.0388.4167-.19.8385-.3692,1.2476-.5741a.4507.4507,0,0,1,.6784.403c0,.9811.0221,1.9622.0463,2.9431a.355.355,0,0,1-.1864.3512,1.0112,1.0112,0,0,1-.2839.113c-.2205.0471-.4446.0771-.6666.1176-.278.0508-.5553.1052-.84.1593-.0215.1119-.0422.2122-.06.313a.8344.8344,0,0,0,.2155.715.1962.1962,0,0,0,.2372.069,8.92,8.92,0,0,1,2.3309-.438,8.7728,8.7728,0,0,1,1.68.0763,8.0409,8.0409,0,0,1,1.5418.3605.2007.2007,0,0,0,.2383-.0657.9343.9343,0,0,0,.1271-1.0408c-.4728-.0849-.9553-.168-1.4359-.2606a1.1369,1.1369,0,0,1-.3226-.1179.3392.3392,0,0,1-.19-.35c.02-.2894.0206-.58.0263-.8707.0137-.7034.0209-1.407.04-2.11a.4223.4223,0,0,1,.6547-.3728c.4409.213.89.41,1.3358.6123.0088.004.0232-.0043.0483-.01Zm-3.2957,27.888-.0005.0321c-.3937,0-.7876-.0061-1.1812.0011-1.194.0221-2.3874.0638-3.5774.1687-.9443.0832-1.8893.164-2.8306.2748-.9152.1078-1.8275.2426-2.7384.3832-1.6123.2488-3.2076.585-4.7946.9627a.3793.3793,0,0,0-.3181.3329.6692.6692,0,0,0,.0509.4155.2431.2431,0,0,0,.1789.1583c.1383.03.2726.0794.4111.1085a.56.56,0,0,0,.2251.0035c.3341-.071.6671-.1479.9993-.2274a56.0647,56.0647,0,0,1,7.8689-1.34c.9444-.0877,1.89-.1756,2.8372-.2145,1.16-.0476,2.3228-.0585,3.4843-.0587a45.63,45.63,0,0,1,5.3124.3143c1.0887.1273,2.1766.2684,3.259.44,1.6943.2682,3.3678.6468,5.0416,1.0188a1.6669,1.6669,0,0,0,.9053-.017.3688.3688,0,0,0,.295-.3107,1.1175,1.1175,0,0,0-.0084-.3433.3215.3215,0,0,0-.2791-.2742q-2.2767-.5434-4.584-.9341-2.3-.3863-4.6216-.6006c-.8993-.083-1.8009-.15-2.7029-.1923C26.9,34.653,25.8222,34.6351,24.7447,34.6028ZM7.2524,27.9952c.1084-.03.1638-.0424.2178-.06.454-.1461.9064-.2967,1.3621-.4372a.404.404,0,0,0,.2694-.2465,18.652,18.652,0,0,1,2.7109-4.3371,18.9456,18.9456,0,0,1,8.3009-5.7839c.0581-.0207.1145-.0462.1848-.0749a10.5684,10.5684,0,0,0-.53-1.4492c-.0773.02-.14.0339-.2006.0517A17.787,17.787,0,0,0,9.3305,23.275a17.0838,17.0838,0,0,0-2.0129,4.3616A3.4307,3.4307,0,0,0,7.2524,27.9952ZM29.9326,15.65a11.3211,11.3211,0,0,0-.5283,1.4607c.0657.0256.1134.0437.1607.0627.4067.1632.82.312,1.2191.4921a18.92,18.92,0,0,1,9.6989,9.6477.3672.3672,0,0,0,.241.2247c.3875.12.7714.2515,1.1575.3764.121.0392.2443.0719.3693.1084a.53.53,0,0,0-.0236-.39A16.6455,16.6455,0,0,0,41.04,24.7169a17.7874,17.7874,0,0,0-10.9119-9.018C30.0678,15.6805,30.0058,15.6684,29.9326,15.65Zm-9.5945,1.5312a18.81,18.81,0,0,0-6.732,4.0057A18.2414,18.2414,0,0,0,9.9129,25.95a6.4794,6.4794,0,0,1,3.3507-1.3327c-.0032-.0657-.0051-.11-.0077-.154a2.2456,2.2456,0,0,1,.0957-.8222,2.0344,2.0344,0,0,1,1.0251-1.2741,3.537,3.537,0,0,1,3.0112-.1631l.1979.0766a4.4172,4.4172,0,0,1,3.3033-2.5977A14.53,14.53,0,0,0,20.3381,17.1815ZM15.6425,28.6852c-.1347.0265-.16-.0555-.2-.1067-.2414-.3111-.4762-.6273-.7195-.9368a1.2029,1.2029,0,0,0-2.1276.49,1.5087,1.5087,0,0,0-.0368.2877,1.6023,1.6023,0,0,0,.3946,1.2536c.177.1781.3674.3427.5515.5137a.4291.4291,0,0,0,.4331.098c-.0227-.0536-.0431-.1-.0621-.1471a.805.805,0,0,1,.3758-1.0249.67.67,0,0,1,.7354.0162,1.6173,1.6173,0,0,1,.7285,1.2816c.0033.1018.0144.2033.0234.3255.5287-.0017,1.0393-.0442,1.5723-.0985-.0278-.1329-.054-.2512-.077-.37a2.294,2.294,0,0,1-.0819-.4739,1.9122,1.9122,0,0,1,.3209-1.0008.6432.6432,0,0,1,.3632-.2717.81.81,0,0,1,1.0587.8119c-.0024.0619-.0067.1237-.01.1875.2329-.0236.2415-.018.3476-.1811.1439-.2212.2745-.4512.408-.6791a1.2476,1.2476,0,0,0,.1247-.826,2.2738,2.2738,0,0,0-.2327-.7547,1.1248,1.1248,0,0,0-.1765-.2521,1.2209,1.2209,0,0,0-2.01.3994c-.1421.3669-.2791.7357-.4208,1.1027-.0238.0615-.0239.1454-.121.159-.0785-.0654-.0463-.1547-.0442-.2334.0229-.8516.0532-1.7031.072-2.5548a1.81,1.81,0,0,0-1.0605-1.7283.3316.3316,0,0,0-.3754.0193,1.6682,1.6682,0,0,0-.6725,1.9356c.2817.851.5718,1.6992.8576,2.5489C15.6025,28.54,15.6193,28.606,15.6425,28.6852Zm16.914-.1895c-.125.0092-.1227-.0835-.1451-.1409-.1452-.3725-.2808-.7488-.428-1.12a1.1388,1.1388,0,0,0-1.0794-.7715,1.17,1.17,0,0,0-1.1274.7042,2.49,2.49,0,0,0-.1693.5125,1.3579,1.3579,0,0,0-.0123.7085,3.2571,3.2571,0,0,0,.5431.998.3588.3588,0,0,0,.326.1326,2.6266,2.6266,0,0,1,.0029-.3779.7831.7831,0,0,1,.6658-.64.7243.7243,0,0,1,.7711.3564,2.0619,2.0619,0,0,1,.1332.2574,1.5391,1.5391,0,0,1,.1028,1.0561c-.0428.152-.0715.3081-.11.4783.5318.0611,1.0425.0879,1.563.0964.0068-.0849.01-.1485.0174-.2115a2.7308,2.7308,0,0,1,.0631-.4771,1.7731,1.7731,0,0,1,.62-.892.6088.6088,0,0,1,.2021-.1072.8151.8151,0,0,1,.9884,1.0393c-.02.0644-.0474.1262-.0727.1926.2674.0233.2684.0246.4592-.12.0822-.0622.1615-.1287.2388-.197a1.73,1.73,0,0,0,.659-1.1845,1.8353,1.8353,0,0,0-.0761-.84,1.213,1.213,0,0,0-2.0868-.2884c-.2425.31-.4819.6228-.7241.9332-.0372.0476-.0663.1129-.1744.103a1.1965,1.1965,0,0,1,.0262-.1653c.0378-.1232.0821-.2445.1233-.3666.25-.7392.502-1.4774.7478-2.2178a1.6528,1.6528,0,0,0-.7-1.9722.275.275,0,0,0-.27-.0351,1.8882,1.8882,0,0,0-1.1372,1.667c.0092.7032.041,1.4062.0588,2.1094C32.5619,27.9711,32.5565,28.2276,32.5565,28.4957Zm6.6529-3.3339a18.8336,18.8336,0,0,0-5.0181-5.4181,18.5952,18.5952,0,0,0-4.841-2.5253c-.2559.9282-.4008,1.85-.5747,2.7743.0542.0036.0921.0083.13.0082.4065-.0012.8131-.004,1.22-.0042a1.1245,1.1245,0,0,1,.2309.0159,4.36,4.36,0,0,1,3.1531,2.415c.0257.0514.0521.1023.0754.1481.0154.0031.0222.0068.0271.005.0665-.0241.1326-.0491.1989-.0736a3.5671,3.5671,0,0,1,3.0448.2113,1.9518,1.9518,0,0,1,.8575.9392,2.2592,2.2592,0,0,1,.21,1.0718c-.0027.0624,0,.1251,0,.1776ZM30.2083,13.6084c-.0527.0728-.0914.1238-.1276.1765a14.9061,14.9061,0,0,0-1.2293,2.17,15.5621,15.5621,0,0,0-1.3155,5.1688c-.0624.6745-.1437,1.3473-.204,2.022-.0688.7712-.1236,1.5436-.185,2.3155-.0091.1146-.0212.2291.1078.3019a1.14,1.14,0,0,0-.158.5039c-.0051.3352-.0369.67-.053,1.0052-.0066.1369-.0011.2745-.0011.447.22-.1885.4069-.3566.6031-.5127a.3568.3568,0,0,0,.14-.2811q.0151-.2609.0413-.521c.0813-.8154.151-1.6322.25-2.4453.1088-.89.2287-1.7791.3744-2.6635.1846-1.12.38-2.2386.6076-3.35a12.6254,12.6254,0,0,1,1.4739-3.769c.0347-.06.068-.1216.1072-.1919ZM22.5858,25.5955c-.0216-.3217-.04-.63-.0638-.9385-.04-.521-.0778-1.0423-.1282-1.5623-.0678-.7-.1369-1.4-.2238-2.0971-.08-.6458-.1564-1.2944-.2843-1.9318a14.2225,14.2225,0,0,0-2.1068-5.0794c-.081-.1225-.1689-.24-.2644-.3758l-.4156.37c.0437.0813.0782.15.1165.216a13.9975,13.9975,0,0,1,.7674,1.5618,16.1618,16.1618,0,0,1,.9286,3.3882c.2585,1.4017.5,2.8062.6667,4.222.1264,1.076.2324,2.1544.3457,3.232.0236.2244.0375.45.06.6745a.2365.2365,0,0,0,.0457.1414c.1881.1722.3836.3363.61.5318,0-.1865.0014-.3259,0-.4652a3.5721,3.5721,0,0,0-.0243-.771,3.9485,3.9485,0,0,0-.3275-.72c-.0376-.08-.073-.1608-.12-.2641ZM21.7032,13.62a2.3222,2.3222,0,0,0,.6441.9577,3.4808,3.4808,0,0,0,3.66.6982,2.9286,2.9286,0,0,0,1.6863-1.431c.0344-.0644.0609-.1331.0911-.2a.3519.3519,0,0,1-.2978-.0095,8.693,8.693,0,0,0-5.4934.0029A.272.272,0,0,1,21.7032,13.62ZM18.265,34.8011c-.0768-.3388-.1424-.6474-.22-.953a.3327.3327,0,0,0-.1172-.1655,4.867,4.867,0,0,1-.9482-.9611.566.566,0,0,0-.0745-.07c-.1366.2479-.2553.4922-.4007.7194s-.3212.4352-.4754.6575a.3109.3109,0,0,0-.04.18c.0114.2576.0308.5148.05.772a.5173.5173,0,0,0,.034.1036Zm12.8039,0,2.2179.2606c.0223-.3065.037-.5955.0674-.8829a.3684.3684,0,0,0-.0831-.3009,4.9305,4.9305,0,0,1-.6814-1.0973c-.0209-.0459-.0474-.0893-.0731-.1374a.2727.2727,0,0,0-.0517.0408A4.8169,4.8169,0,0,1,31.3715,33.77a.2606.2606,0,0,0-.0945.1367C31.2052,34.1933,31.1421,34.4823,31.0689,34.8014Zm-15.1736-3.066a16.09,16.09,0,0,0,2.25-.1882.2119.2119,0,0,0,.1844-.1151.6436.6436,0,0,0-.0434-.6775.1451.1451,0,0,0-.1609-.0763,3.0245,3.0245,0,0,1-.3069.0337c-.6287.05-1.2574.1-1.8863.1469q-.3274.0243-.6561.0309a.1769.1769,0,0,0-.178.1176.635.635,0,0,0,.0463.6263.198.198,0,0,0,.19.1035C15.5216,31.7315,15.7085,31.7354,15.8953,31.7354ZM33.35,31.747c.1869,0,.3737.0006.5605,0,.2236-.0009.3009-.0472.3584-.2663a.8708.8708,0,0,0,.0144-.36c-.0343-.1967-.0847-.2193-.287-.23-.6108-.0322-1.2216-.0652-1.8319-.1051-.3017-.02-.603-.05-.9033-.086a.2277.2277,0,0,0-.26.1471.6736.6736,0,0,0-.0245.5254.2461.2461,0,0,0,.2211.1793A14.8759,14.8759,0,0,0,33.35,31.747ZM21.5634,12.28a.6049.6049,0,0,0,.0921-.0006q.6948-.1235,1.3892-.25a.7621.7621,0,0,0,.1655-.051.3068.3068,0,0,0,.2115-.3265c-.0168-.4191-.0118-.839-.0185-1.2586-.0014-.0857-.0157-.1713-.0246-.2621A2.784,2.784,0,0,0,21.5634,12.28ZM26.109,10.142a1.0034,1.0034,0,0,0-.0144.11c-.0105.4636-.0127.9274-.033,1.39a.3131.3131,0,0,0,.2211.3392,1.0583,1.0583,0,0,0,.2035.0571q.55.1009,1.1014.1965c.1116.0195.2239.0344.34.052A2.7545,2.7545,0,0,0,26.109,10.142ZM24.7561,21.7526a.8165.8165,0,0,0-.0034,1.6326.8163.8163,0,1,0,.0034-1.6326Zm.0138,1.7779a.7974.7974,0,0,0-.8127.7869.8065.8065,0,0,0,.7915.8312.8092.8092,0,1,0,.0212-1.6181Zm-7.5847-7.629a.8047.8047,0,0,0-.8056-.8148.8139.8139,0,0,0-.8137.8106.7842.7842,0,0,0,.795.8A.7974.7974,0,0,0,17.1852,15.9015ZM13.6138,17.007a.829.829,0,0,0,.6706.85.3475.3475,0,0,0,.2756-.0511c.1585-.1106.3237-.212.49-.31a.3294.3294,0,0,0,.1589-.2075.7638.7638,0,0,0-.2328-.8265.773.773,0,0,0-.8809-.1436A.7585.7585,0,0,0,13.6138,17.007Zm5.5929-1.7955a.8138.8138,0,1,0-1.22.7039.3166.3166,0,0,0,.2933.0288,5.4012,5.4012,0,0,1,.602-.2048.3521.3521,0,0,0,.2782-.2829C19.18,15.376,19.1915,15.2933,19.2067,15.2115Zm23.75,11.4074a.7927.7927,0,0,0-.5068.1572.3832.3832,0,0,0-.1716.5408c.04.1224.0807.2449.1153.3689a.828.828,0,0,1,.03.1895c.0086.2131.0156.2323.2205.3018a.9406.9406,0,0,0,.3.0616.8226.8226,0,0,0,.8039-.806A.8143.8143,0,0,0,42.9564,26.6189ZM34.0748,16.1366a.7913.7913,0,0,0-.4563-.728.7584.7584,0,0,0-.8373.0744.7872.7872,0,0,0-.3164.8.26.26,0,0,0,.1619.2189c.2462.1106.4891.23.7286.3541a.2631.2631,0,0,0,.2726.0007A.8215.8215,0,0,0,34.0748,16.1366ZM23.98,20.7435a.7788.7788,0,1,0,.787-.77A.7919.7919,0,0,0,23.98,20.7435ZM12.7391,17.5891a.8061.8061,0,0,0-.7994.7.8263.8263,0,0,0,.5474.88.2917.2917,0,0,0,.3189-.0566c.2073-.1836.4271-.3535.647-.5221a.2479.2479,0,0,0,.1027-.2334A.8132.8132,0,0,0,12.7391,17.5891ZM6.7415,28.0048a2.4435,2.4435,0,0,0,.27-.07.1833.1833,0,0,0,.0943-.1041c.1-.2987.1909-.6005.2908-.8993a.2158.2158,0,0,0-.034-.2159.8077.8077,0,0,0-.6631-.34.8238.8238,0,0,0-.808.8209A.839.839,0,0,0,6.7415,28.0048Zm28.4654-11.532a.8116.8116,0,0,0-.8136.8258.2169.2169,0,0,0,.1132.2031c.2618.1633.522.33.7766.5039a.2507.2507,0,0,0,.2858.0142.83.83,0,0,0,.424-.9286A.8029.8029,0,0,0,35.2069,16.4728ZM7.708,23.2774a.829.829,0,0,0,.8147.8134.26.26,0,0,0,.2471-.1466c.1445-.2578.2981-.5112.4607-.758a.2566.2566,0,0,0,.0029-.3011.8211.8211,0,0,0-.9221-.3938A.8348.8348,0,0,0,7.708,23.2774Zm2.0382-2.59a2.5472,2.5472,0,0,0-.33.0949.8.8,0,0,0-.4714.8132.8216.8216,0,0,0,.6609.7165c.0992.0173.1963.033.2757-.075.1985-.27.408-.5312.6159-.7938a.17.17,0,0,0,.0287-.1773A.851.851,0,0,0,9.7462,20.6874Zm.6339-.8357a.831.831,0,0,0,.572.79.2775.2775,0,0,0,.327-.081c.1915-.217.398-.4217.61-.6194a.2711.2711,0,0,0,.083-.31.8276.8276,0,0,0-.8615-.5741A.8173.8173,0,0,0,10.38,19.8517Zm-3.6548,5.33A.805.805,0,0,0,7.5974,26a.2283.2283,0,0,0,.2209-.15c.1267-.2952.2617-.587.4028-.8756a.2153.2153,0,0,0-.0246-.246.8155.8155,0,0,0-.8843-.32A.805.805,0,0,0,6.7253,25.1814Zm36.1921.241a.81.81,0,0,0-1.4512-.4894.2167.2167,0,0,0-.0447.2468c.1432.31.2788.6229.4144.936a.181.181,0,0,0,.16.1175A.8131.8131,0,0,0,42.9174,25.4224Zm-1.794-2.718a.81.81,0,0,0-.7162.4159.1817.1817,0,0,0,0,.213q.2682.4356.52.881a.2122.2122,0,0,0,.2219.1146A.83.83,0,0,0,41.93,23.5.8127.8127,0,0,0,41.1234,22.7044ZM39.927,20.9293a.8223.8223,0,0,0-.7743.441.1709.1709,0,0,0,.0068.2122q.343.442.6755.8922a.1607.1607,0,0,0,.1819.0666.8149.8149,0,0,0,.677-.8748A.7955.7955,0,0,0,39.927,20.9293Zm-2.8339-1.5288a.7965.7965,0,0,0,.5763-1.02.8079.8079,0,0,0-1.56.045.1881.1881,0,0,0,.058.2228C36.4756,18.8918,36.7774,19.1429,37.0931,19.4005Zm-5.0347-3.9584a.81.81,0,1,0-1.6162.0725c.0077.0878.0253.1548.1283.189.3485.1156.6935.2416,1.0388.3665a.1682.1682,0,0,0,.1928-.0429A.7883.7883,0,0,0,32.0584,15.4421ZM37.66,19.9243l.8162.8584a.5258.5258,0,0,1,.0392.0427c.0464.0617.1006.06.1707.0383a.8115.8115,0,0,0-.1349-1.581A.8062.8062,0,0,0,37.66,19.9243ZM24.7682,18.383a.6666.6666,0,1,0,.6558.6758A.6815.6815,0,0,0,24.7682,18.383Zm-.5722-.7858a.56.56,0,0,0,.5679.5771.5733.5733,0,1,0-.0128-1.1464A.5575.5575,0,0,0,24.196,17.5972Zm3.3387,15.66a.7323.7323,0,0,0,.02-.1033c.0017-.439.001-.8781.0048-1.3171a.18.18,0,0,0-.0834-.1618c-.1312-.094-.2594-.1921-.3909-.2856a.818.818,0,0,0-.123-.0578c0,.2413-.0024.4605.0006.68.0039.271.01.542.021.8128.0022.0528.0176.1289.0539.1522C27.1928,33.0755,27.3576,33.159,27.5347,33.2571ZM22.67,31.15c-.1466.1049-.2674.1972-.3944.28a.2162.2162,0,0,0-.1039.2086c.0069.4381.0065.8763.01,1.3145,0,.0362.0076.0722.0152.1409.122-.0771.2208-.1457.3254-.2041a.3483.3483,0,0,0,.1892-.3636c-.02-.3987-.0191-.7985-.0274-1.1978C22.6824,31.28,22.6761,31.2315,22.67,31.15ZM24.246,16.3424a.5221.5221,0,0,0,.5062.508.5143.5143,0,0,0,.5172-.494.52.52,0,0,0-.5132-.5207A.528.528,0,0,0,24.246,16.3424ZM22.1453,34.4945l.5483-.0491V34.16C22.297,34.29,22.1977,34.3448,22.1453,34.4945Zm-11.57,3.5366c-.273-.0761-.3953-.0042-.4321.259C10.3024,38.2183,10.4789,38.2071,10.5756,38.0311Zm16.9326-3.54.0082-.0362-.4865-.17.0076.16ZM15.8536,32.0728l.0777-.1985C15.8254,31.8962,15.8254,31.8962,15.8536,32.0728Z"/><path class="cls-1" d="M24.6652,30.04a.8162.8162,0,0,1-.8071-.8175.7988.7988,0,0,1,.8212-.8164.8171.8171,0,1,1-.0141,1.6339Zm-.0577-1.44a.5078.5078,0,0,0-.5756.3951c-.0277.12.0331.1821.1471.1294A.7044.7044,0,0,0,24.6075,28.6006Z"/><path class="cls-1" d="M25.34,43.4747c-.7036,0-1.4073.0022-2.111-.0009-.3291-.0015-.6582-.01-.9871-.0206-.8579-.0272-1.7158-.0543-2.5734-.0871q-.7155-.0273-1.43-.0734c-.6756-.0434-1.3507-.095-2.026-.1428-.4117-.0291-.8237-.0527-1.2349-.0876-.5008-.0425-1.0009-.0947-1.5013-.1417-.18-.0169-.3594-.0342-.5394-.046a.7473.7473,0,0,1-.4869-.2091.5636.5636,0,0,1-.0213-.815.7684.7684,0,0,1,.475-.2361c.4976-.0705.9944-.1466,1.4926-.213.5688-.0758,1.138-.1483,1.7081-.2135s1.1413-.1228,1.7126-.1777c.3789-.0363.7586-.0653,1.1383-.0916q.8015-.0558,1.6035-.1021.4638-.0274.9283-.0437c1.4585-.0487,2.9174-.074,4.3763-.0324.8709.0248,1.7419.0569,2.6117.1067.7727.0442,1.5444.1112,2.3155.18.6679.0593,1.3359.1237,2.0013.2063.7931.0985,1.5839.2158,2.3748.3307.4273.0621.8541.129,1.2783.2088a.9208.9208,0,0,1,.3679.1548.5717.5717,0,0,1,.0233.9067.84.84,0,0,1-.5156.1914c-.4823.0332-.9641.0719-1.4462.107-.4117.03-.8233.06-1.2352.0862q-.8978.057-1.796.1078c-.277.016-.5541.03-.8313.0408-.4707.0182-.9415.0371-1.4125.0484q-2.1292.0515-4.2587.0971Z"/><path class="cls-1" d="M38.0108,41.588a.3113.3113,0,1,1-.3031-.3133A.312.312,0,0,1,38.0108,41.588Z"/><path class="cls-1" d="M11.9075,41.58a.3227.3227,0,0,1-.3205.3164.3108.3108,0,1,1,.0094-.6216A.32.32,0,0,1,11.9075,41.58Z"/><path class="cls-1" d="M34.15,41.0667a.3064.3064,0,1,1-.01-.6128.3068.3068,0,1,1,.01.6128Z"/><path class="cls-1" d="M19.4066,40.2707a.3134.3134,0,0,1-.3063.3087.3144.3144,0,0,1-.0074-.6287A.3118.3118,0,0,1,19.4066,40.2707Z"/><path class="cls-1" d="M22.6378,40.32a.3064.3064,0,0,1-.3051-.3061.3144.3144,0,0,1,.6288-.0012A.3087.3087,0,0,1,22.6378,40.32Z"/><path class="cls-1" d="M26.9157,40.0178a.3063.3063,0,0,1-.3115.3017.3078.3078,0,0,1,.01-.6153A.3086.3086,0,0,1,26.9157,40.0178Z"/><path class="cls-1" d="M29.8828,40.25a.3133.3133,0,0,1,.3163-.2989.3006.3006,0,0,1,.289.3381.2973.2973,0,0,1-.299.29A.3172.3172,0,0,1,29.8828,40.25Z"/><path class="cls-1" d="M15.4429,40.6807a.306.306,0,0,1-.312.2978.3024.3024,0,1,1,.0088-.6044A.3054.3054,0,0,1,15.4429,40.6807Z"/><path class="cls-1" d="M21.9984,37.3853c.214-.2965.416-.5717.6122-.8511a.2461.2461,0,0,1,.224-.1177q1.9056.0044,3.811,0a.2466.2466,0,0,1,.2271.1128q.2654.3808.5417.7538a.1585.1585,0,0,1,.0131.1935q-.2709.5019-.534,1.0079a.2092.2092,0,0,1-.2028.1177c-.2125.007-.4248.0236-.6373.0291a16.61,16.61,0,0,1-2.0095.0248c-.3973-.0376-.7982-.0423-1.1977-.05a.2915.2915,0,0,1-.2875-.1776C22.3787,38.08,22.1879,37.7364,21.9984,37.3853Zm.58-.55a2.6963,2.6963,0,0,0,.8412-.0484c.549-.0678.6417-.0957.7726-.2392-.4628,0-.901-.0024-1.3391.0034a.2294.2294,0,0,0-.1415.0764A1.4175,1.4175,0,0,0,22.5782,36.835Z"/><path class="cls-1" d="M17.6867,39.1317a2.07,2.07,0,0,1-.9885-.2414,1.5592,1.5592,0,0,1-.3674-.2783.7552.7552,0,0,1,.0026-1.0938,1.3965,1.3965,0,0,1,.4205-.301,2.1918,2.1918,0,0,1,1.8017-.0245,1.308,1.308,0,0,1,.4858.3434.7729.7729,0,0,1,.0084,1.0564,1.5027,1.5027,0,0,1-.8659.4751C18.021,39.1022,17.8526,39.1112,17.6867,39.1317Zm-.1713-1.9482c-.1222.0121-.2291.016-.3336.0343a1.26,1.26,0,0,0-.7323.3616.4383.4383,0,0,0-.1541.3712A1.1412,1.1412,0,0,0,17.5154,37.1835Z"/><path class="cls-1" d="M31.8457,36.9908a1.8878,1.8878,0,0,1,.882.1789,1.7668,1.7668,0,0,1,.455.318.7586.7586,0,0,1,.0173,1.08,1.3171,1.3171,0,0,1-.5574.3711,2.2871,2.2871,0,0,1-1.6607-.0239,1.3325,1.3325,0,0,1-.4794-.3186.7746.7746,0,0,1-.0148-1.112,1.625,1.625,0,0,1,1.0491-.4777C31.6388,36.9936,31.7427,36.9957,31.8457,36.9908Zm-1.3882.9342a.9983.9983,0,0,0,.2344.01,1.59,1.59,0,0,0,.8041-.3888.4248.4248,0,0,0,.1883-.3742A1.0762,1.0762,0,0,0,30.4575,37.925Z"/><path class="cls-1" d="M28.9014,36.264a.5628.5628,0,0,1,.5714.578.57.57,0,1,1-1.1406-.0249A.5442.5442,0,0,1,28.9014,36.264Z"/><path class="cls-1" d="M28.9073,38.9634a.5551.5551,0,0,1-.5753-.5709.57.57,0,1,1,1.1408.0088A.556.556,0,0,1,28.9073,38.9634Z"/><path class="cls-1" d="M20.56,36.264a.5718.5718,0,0,1,.5829.5708.5885.5885,0,0,1-.5907.5695.5776.5776,0,0,1-.5534-.6025A.5341.5341,0,0,1,20.56,36.264Z"/><path class="cls-1" d="M20.5656,38.9632a.5689.5689,0,1,1,.0043-1.1377.5791.5791,0,0,1,.5729.564A.5683.5683,0,0,1,20.5656,38.9632Z"/><path class="cls-1" d="M14.4928,39.5713a.5113.5113,0,0,1-.502-.5261.4882.4882,0,0,1,.5066-.4914.518.518,0,0,1,.5119.519A.5288.5288,0,0,1,14.4928,39.5713Z"/><path class="cls-1" d="M14.4972,38.0286a.4961.4961,0,0,1-.5063-.515.5023.5023,0,0,1,.5045-.5.5256.5256,0,0,1,.5143.52A.51.51,0,0,1,14.4972,38.0286Z"/><path class="cls-1" d="M35.4894,39.13a.4994.4994,0,0,1-.4928.5142.5086.5086,0,0,1-.5106-.5191.5017.5017,0,0,1,1.0034.0049Z"/><path class="cls-1" d="M35.4893,37.5937a.4913.4913,0,0,1-.4934.5083.5083.5083,0,1,1,.4934-.5083Z"/></svg>