<svg id="Layer_1" data-name="Layer 1" xmlns="http://www.w3.org/2000/svg" viewBox="0 0 50 50"><defs><style>.cls-1{fill:#390099;}</style></defs><title>Const Unions Logos-02</title><path class="cls-1" d="M16.7051,39.8736a3.3959,3.3959,0,0,0,2.16,1.16,13.3682,13.3682,0,0,0,2.2431.2232c.5607.0243,1.1207.0718,1.6816.0866.9555.0253,1.9117.0507,2.8673.043.9834-.0079,1.968-.0318,2.9492-.093a11.4185,11.4185,0,0,0,2.4839-.259,2.7471,2.7471,0,0,0,1.389-.9611c.0122-.0149.03-.0251.1171-.033.0018.3282.0256.6581,0,.9841-.0309.3908-.1312.7767-.1531,1.1674a1.7107,1.7107,0,0,1-1.4672,1.5728,22.4032,22.4032,0,0,1-3.4218.2226c-1.8843-.0025-3.7685.0334-5.6528.0356-.5831.0007-1.1675-.0407-1.7491-.09a10.2078,10.2078,0,0,1-2.2609-.3436,1.4275,1.4275,0,0,1-1.0977-1.2878,11.9808,11.9808,0,0,1-.13-2.1706A2.1416,2.1416,0,0,1,16.7051,39.8736ZM27.27,42.6745a3.0382,3.0382,0,0,0-.249-.4487c-.239-.3023-.5918-.2564-.9128-.2292a.7322.7322,0,0,0-.6534.9678.6837.6837,0,0,0,.6676.5455A.9118.9118,0,0,0,27.27,42.6745Zm-4.1.8712.0615-.0456V42.16l.24-.149H22.96c.0464.0581.1325.1161.136.1788.0154.2722.0066.5456.0066.8186a4.76,4.76,0,0,1-.669-.6678c-.2784-.3379-.4457-.4115-.8383-.3092l.21.1079v1.218l-.2469.0963h.5644c-.0575-.0707-.1477-.13-.1514-.1951-.0161-.2805-.0069-.5624-.0069-.895A8.1975,8.1975,0,0,0,23.17,43.5457Zm5.0467-1.1481c.35.37.6548.7.9716,1.0189a1.1189,1.1189,0,0,0,.299.1438V42.1442l.1755-.0643-.012-.0346h-.49c.0719.071.1813.1279.1865.1931.02.2588.0084.52.0084.7811-.0507.0032-.0837.0148-.0933.0045-.1872-.201-.3868-.3929-.5532-.61-.27-.3531-.5241-.4658-.877-.3138.2536-.012.2635.1249.2589.2919-.0092.3272-.0027.6548-.0027.9822l-.076-.0169-.1559.1081.0322.0368.51-.0248c-.0836-.0764-.1731-.12-.1753-.1666C28.21,43.0226,28.2167,42.7334,28.2167,42.3976ZM20.536,41.999c.0622.087.1528.1567.1594.2337a5.0268,5.0268,0,0,1,.0043.7c-.0131.2442-.144.3585-.4218.4011a.4449.4449,0,0,1-.44-.3043,5.842,5.842,0,0,1-.0048-.68c0-.1393-.0361-.2949.22-.3035L20,41.9893H19.351a1.3015,1.3015,0,0,1,.1232.3238c.017.2247-.01.453.0117.6769a.6522.6522,0,0,0,.141.3324c.1912.2312.4683.1437.7145.15a.4632.4632,0,0,0,.4887-.4914,3.8775,3.8775,0,0,1,.0047-.4739,4.7155,4.7155,0,0,1,.122-.5082Zm3.4886.0049c.2014.0351.22.1632.2144.3255-.0084.2336,0,.4678-.0028.7017-.0017.1682.0562.3645-.1853.4318h.7036c-.0541-.0791-.152-.1569-.156-.2392-.0173-.3608-.0074-.7228-.0074-1.0677l.2267-.12-.02-.0319Z"/><path class="cls-1" d="M26.2334,28.8039V22.09h.231c1.0564,0,2.1129.0036,3.1693-.0039a.3609.3609,0,0,1,.3266.172,3.8736,3.8736,0,0,0,.38.3861l.0456-.0365a.65.65,0,0,1-.0348-.2271,1.0067,1.0067,0,0,1,.1222-.2405c.0663.0565.1688.1008.1925.1715a.7425.7425,0,0,0,.5879.4713c-.03-.0655-.0445-.1011-.0624-.1349-.1787-.3388-.0671-.5335.3205-.5576.03-.0018.06,0,.0906,0,.3736-.0015.5485.184.4586.55-.0249.1012-.2157.1616-.3389.2466a.1083.1083,0,0,0,.0547.0583c.2882.0885.2611.3149.2547.5425-.0194.6837-.0214,1.3682-.0576,2.051-.0057.1085-.1505.2116-.2355.3135a5.6131,5.6131,0,0,0-.4784.5725,4.8144,4.8144,0,0,0-.5531,1.3986.9066.9066,0,0,1-.2574.36c-.1885.1922-.3909.3712-.594.5484a.2964.2964,0,0,1-.1778.07C28.5384,28.8049,27.3992,28.8039,26.2334,28.8039Z"/><path class="cls-1" d="M23.0931,31.7585v8.5979a8.5621,8.5621,0,0,1-.8149-.5347,13.482,13.482,0,0,1-1.3157-1.185A17.1364,17.1364,0,0,1,19.4283,36.78,21.8022,21.8022,0,0,1,18.06,34.47a6.7689,6.7689,0,0,1-.6266-2.1155c-.03-.19-.0424-.3835-.0652-.596Z"/><path class="cls-1" d="M26.1885,40.2483V31.7249h5.5746a5.901,5.901,0,0,1-.06.7076c-.1076.52-.2163,1.0425-.37,1.55a7.0435,7.0435,0,0,1-.4325.9955,11.8933,11.8933,0,0,1-1.3223,2.0735c-.2707.3521-.56.6923-.8637,1.0159-.4.4257-.8077.8472-1.2415,1.2379-.3894.3507-.8186.6572-1.23.9833Z"/><path class="cls-1" d="M17.5507,22.7972c-.3.0321-.4158-.1-.3684-.3813.0178-.1055.0447-.2891.09-.2964a2.1466,2.1466,0,0,1,.5767.003.3893.3893,0,0,1,.2493.1271.3656.3656,0,0,1,.0144.2567,1.2946,1.2946,0,0,1-.1194.26.6782.6782,0,0,0,.6024-.4318c.0577-.1056.0744-.2163.2243-.1522s.1245.1752.066.2918A1.1689,1.1689,0,0,0,18.84,22.6c.2571-.0465.3137-.0846.4574-.3561a.2556.2556,0,0,1,.2624-.1566c.6943.007,1.3888,0,2.0831.0058a3.2457,3.2457,0,0,1,.4081.0547,3.1816,3.1816,0,0,0,.0263.4724c.0859.4254.4453.52.793.5948.1428.0306.19.0706.19.2108q-.0051,2.6492-.004,5.2984a.4385.4385,0,0,1-.0115.0621H20.2589c.0376-.2119.08-.4387.1174-.6665a3.1779,3.1779,0,0,1,.0443-.351c.0587-.2092.1352-.227.3127-.0948.091.0678.1743.1941.3038.0745.0624-.0576.16-.1651.1419-.2052a.5745.5745,0,0,0-.2344-.2707,3.53,3.53,0,0,0-.4266-.1049.232.232,0,0,1-.1348-.1577c-.04-.5672-.0767-1.135-.0941-1.7032-.0249-.812-.0217-1.6251-.0561-2.4366a2.0736,2.0736,0,0,0-.1843-.5489l-.098.0112a2.7838,2.7838,0,0,0-.1039.525c-.0089,1.2831-.003,2.5662-.007,3.8493,0,.1685-.03.3369-.05.545a2.5073,2.5073,0,0,1-.4958-.2031.1867.1867,0,0,0-.288.0438c-.0713.0934-.1.2334.0455.297a2.11,2.11,0,0,0,.5415.1749c.1459.02.1915.0763.2045.205.0269.2649.0546.53.0937.7933a.9658.9658,0,0,0,.1034.2294c-.328.0286-.6507.073-.8714-.2653a.6568.6568,0,0,0-.1881-.1548,1.4478,1.4478,0,0,1-.5023-.8805,3.4537,3.4537,0,0,0-.6381-1.3542,1.2986,1.2986,0,0,0-.3243-.2987.4145.4145,0,0,1-.2233-.42c-.0046-.6841-.0222-1.3682-.044-2.052a.3714.3714,0,0,1,.1858-.3737C17.45,22.9551,17.4863,22.8772,17.5507,22.7972Z"/><path class="cls-1" d="M36.6848,24.8676c-.244.2227-.49.4436-.7317.6685a1.2076,1.2076,0,0,1-.8384.421c-.4026.0916-.7958.2244-1.1936.3374a.7548.7548,0,0,1-.2584.0583,4.1538,4.1538,0,0,0-1.7669.477c-.1575.0541-.2768.2981-.3566.48a5.4651,5.4651,0,0,0-.2134.7343l.06.0268c.03-.0419.0615-.0829.09-.1259a.2889.2889,0,0,1,.4364-.0456c.0734.0813.0242.2569-.086.2649a.4731.4731,0,0,0-.4693.31.8114.8114,0,0,0,.0776.747c.004.0063.0112.0105.0152.0167.1759.2723.1657.33-.1221.5343a2.0046,2.0046,0,0,1-.3122-1.1645,1.2246,1.2246,0,0,0-.3446.8152c-.0122.0873-.0258.1744-.039.2616-.02.133.0488.2228.2686.2921a.774.774,0,0,1-.2139.09,2.8031,2.8031,0,0,1-.3422-.0263c.03-.1024.0659-.2036.0888-.3076.0649-.2951.1057-.5971.1931-.8851.0553-.1824.1768-.3448.2352-.539-.2244.3342-.6439.5028-.77.9379h-.2334a.8214.8214,0,0,1,.4023-.6438,1.7055,1.7055,0,0,0,.7258-1.115,3.1148,3.1148,0,0,1,.6716-1.3363.7412.7412,0,0,1,.2449-.1915,11.5622,11.5622,0,0,0,2.1748-1.3561A3.8889,3.8889,0,0,1,34.9,24.31c.0538-.0188.1342-.0294.1535-.0682.176-.3516.5314-.302.8278-.3859.0673-.019.1622-.0407.1881-.09a5.2068,5.2068,0,0,1,1.5049-1.4216,9.4924,9.4924,0,0,0,.9685-.9908c.1745-.1988.2-.2224.3719-.0059a2.5225,2.5225,0,0,1,.157.2546c.1782-.0995.1959-.2226.1615-.41a1.2486,1.2486,0,0,0-.4831-.8591,1.5669,1.5669,0,0,0-.1953-.1012c.174-.1443.3447-.08.7081.2608a.4556.4556,0,0,0-.0525-.5337,1.2673,1.2673,0,0,0-.46-.3489c-.1685-.078-.3682-.089-.5559-.1817l.54.03a1.603,1.603,0,0,0-1.31-.4831l-.0111-.25.516-.2037-.0088-.0447-.41.0478-.0882-.3056.0308-.0458a1.6276,1.6276,0,0,0,.3289.213,1.6768,1.6768,0,0,0,.3987.0423.9357.9357,0,0,0-.9777-.5888c-.2187.0711-.2644.2563-.3336.4492l.4833.4287a1.35,1.35,0,0,1-1.0525.1445c-.3909-.03-.7784-.1054-1.1674-.1611-.1013-.0146-.2026-.03-.3039-.0447l-.0211.063a2.8955,2.8955,0,0,0,.4512.1483c.5419.0866,1.0864.1565,1.63.233.0364.0051.0986.0026.1049.02.09.2447.2437.0812.38.0713.2041-.0147.41-.0038.6338-.0038l-.2715.4534,1.0843.1863-.0063.0808c-.2239.09-.5176-.0388-.7054.2211.2947.2529.6778.421.8813.84l-1.2434-.6645.0351.5118-.0568.0477c-.1019-.5345-.4435-.6795-.919-.6746a.94.94,0,0,0-.9659.6494l-.052-.065-.1256-.3236c-.1993.0783-.3042.3322-.5635.2126l.1-.3856a12.0221,12.0221,0,0,1,1.2628-.2538,4,4,0,0,1,.8592.0924c.05.0063.1.0206.1812.038,0-.1748.01-.3307-.0027-.4849a.2731.2731,0,0,0-.236-.276c-.4941-.0919-.9868-.1917-1.4811-.283-.2763-.051-.5539-.0966-.8324-.1342-.1909-.0258-.2587-.1568-.2983-.3153a1.5762,1.5762,0,0,0-.0527-.282.3135.3135,0,0,0-.1775-.1683,5.8257,5.8257,0,0,0-.5951-.0617l-.0105-.0642a3.5659,3.5659,0,0,1,.5714-.083c.5884.0071,1.1767.0346,1.7648.0584.1394.0057.2782.0281.4286.044.0066-.0548.0156-.098.0165-.1414.0079-.4005.0712-.4639.48-.41a4.3575,4.3575,0,0,1,1.5521.5706c.2081.1161.1253.2945.0546.462a.6486.6486,0,0,0,.1663-.6723,1.1326,1.1326,0,0,1,.2968-1.1275,3.855,3.855,0,0,0,.5-.7589c-.0515.2444-.1039.4634-.1421.6849-.0253.1469-.0174.3-.0477.4456-.034.1629-.0942.32-.1431.48-.0082.027-.0318.0619-.0225.08.2109.4081.0283.8245.09,1.2586a1.1445,1.1445,0,0,0,.11-.3417.7986.7986,0,0,1,.2587-.7212c-.3473-.2185-.33-.3247.066-.5588-.3879-.42.0034-.81.0081-1.2372.2252.1248.2274.1254.1765.3195-.0315.12-.071.2374-.0873.2914l.3153.342a.6463.6463,0,0,0-.28.607,2.2718,2.2718,0,0,1-.1834.5116,1.047,1.047,0,0,0,.0365.9008,2.4916,2.4916,0,0,1,.15,2.2721,6.5638,6.5638,0,0,1-.7465,1.1436c-.3906.524-.8366,1.0087-1.2027,1.5483a1.2541,1.2541,0,0,0-.2223.9434.2907.2907,0,0,1-.16.3717.97.97,0,0,0-.2276.1373c-.332.2733-.3491.3669-.1633.8487l.1933-.0371c.1088.1546.2267.297.3169.4551q.3122.5472.599,1.1086a.8208.8208,0,0,1,.0381.2595.7916.7916,0,0,1-.2843-.0512,8.8128,8.8128,0,0,1-.7269-.5109q-.5537-.4337-1.0881-.8915a1.8991,1.8991,0,0,1-.2928-.3379.4406.4406,0,0,1,.06-.6407c.14-.1478.2984-.28.428-.4362a3.241,3.241,0,0,0,.2479-.4Z"/><path class="cls-1" d="M10.7685,20.1845c-.1877.2306-.4042.3937-.4671.6029a1.0635,1.0635,0,0,0,.0365.723l.3556-.3259a7.3858,7.3858,0,0,0,.5119.6225c.2619.26.546.4983.8325.7313.2759.2245.5735.4224.848.6484a1.1858,1.1858,0,0,1,.2365.321.7613.7613,0,0,0,.63.4016.6657.6657,0,0,1,.6253.4487c.5644-.0847.9327.2975,1.3512.5728.4884.3213.9978.6119,1.4762.947a1.9517,1.9517,0,0,1,.661.6382c.2311.4722.3341,1.0055.5383,1.4932a1.3,1.3,0,0,0,.4361.4389.9617.9617,0,0,1,.5011.8522c-.1163-.07-.2485-.1048-.2609-.1647a.9042.9042,0,0,0-.4116-.5307c-.1032-.0792-.18-.1925-.2982-.2772a3.2914,3.2914,0,0,1,.2229.4741c.0979.3318.1754.67.2453,1.0093.0127.0618-.0421.1935-.081.2a2.0669,2.0669,0,0,1-.4015-.0038c.0137-.04.0218-.1107.0423-.1146a.473.473,0,0,1,.1621.03A2.79,2.79,0,0,0,18.3,28.619c-.09.32-.1739.63-.2691.9368-.0181.0585-.0915.15-.124.1442a.4207.4207,0,0,1-.2388-.1264.2615.2615,0,0,1,.0085-.2161c.0842-.1929.2049-.3715.2752-.5685.0785-.22-.1912-.5848-.4136-.6248a.53.53,0,0,1-.2594-.1535c-.0188-.019.051-.1865.0908-.1909a.79.79,0,0,1,.336.0493c.0542.0189.0884.0957.1826.2059a2.09,2.09,0,0,0-.05-.31c-.0839-.242-.1688-.4845-.2707-.7193a.649.649,0,0,0-.4351-.3441c-.2795-.0917-.5443-.2317-.8267-.31-.21-.0583-.4416-.0359-.6583-.0774-.325-.0622-.6437-.1565-.968-.2228-.2827-.0577-.57-.0928-.854-.1443a.3972.3972,0,0,1-.1911-.0793c-.1874-.1708-.362-.3556-.5478-.5282a5.0108,5.0108,0,0,0-.5146-.419,2.0361,2.0361,0,0,0,.2065.3187c.159.1689.3383.3187.5059.48a.5924.5924,0,0,1-.0459.7431,8.0359,8.0359,0,0,1-1.4424,1.2031c-.26.1641-.517.3325-.7975.5133a1.1574,1.1574,0,0,1,.2151-.79c.2007-.32.4405-.6152.6349-.9383.0842-.14.152-.1849.2894-.1061.2584-.3572.1657-.8226-.6217-1.1224a1.3755,1.3755,0,0,0-.1728-1.1565c-.2138-.3206-.4792-.6063-.7138-.9135a8.3529,8.3529,0,0,1-1.2215-1.875,2.1791,2.1791,0,0,1,.1957-2.1248.9845.9845,0,0,0,.031-1.0151c-.011-.0272-.0231-.0538-.0331-.0813-.0019-.0051.0039-.0131.0062-.02.1847.0018.3009.1417.3129.361.0105.1929.0321.3852.0488.5777l.0756-.0042c0-.2046-.0048-.4093.0014-.6137.0055-.18.0229-.359.0358-.5384.0046-.0635.034-.1356.0134-.1887-.1939-.498-.0774-1.0675-.3577-1.545-.0068-.0116.0117-.0382.0195-.0612.1294.222.2532.4392.3818.6535a4.4835,4.4835,0,0,0,.2856.4475.9232.9232,0,0,1,.1165.8678.637.637,0,0,0,.1038.6105c-.1113-.3549.1189-.48.3657-.5717.448-.166.8979-.3307,1.3564-.4636.3031-.0879.4537.1335.3853.5575.46-.0228.9148-.0669,1.3693-.0618a4.589,4.589,0,0,1,1.3429.0582l-.0007.08c-.135,0-.27-.0066-.405.0013-.2876.0169-.36.0913-.3579.3482a.415.415,0,0,1-.4107.4687q-1.04.1676-2.0761.3607c-.3244.0611-.3466.1067-.3467.4333,0,.0976,0,.1951,0,.3274a3.5111,3.5111,0,0,0,.4169-.0543,1.5022,1.5022,0,0,1,.8447.0228,1.8287,1.8287,0,0,0,.4924.0737c.494.015.4941.01.5771.4947-.2358.0629-.3843-.0559-.5146-.2546a1.7647,1.7647,0,0,1-.0943.1784c-.0335.0492-.0722.1093-.122.1268-.025.0088-.0917-.0589-.1188-.1044a.9045.9045,0,0,0-1.0671-.415c-.4552.11-.54.2473-.6965.6663l.0429-.4609a2.2,2.2,0,0,0-1.1707.6l-.056-.0542c.1237-.1447.2377-.2993.3737-.4312a4.726,4.726,0,0,0,.4605-.4426l-.7149-.177c.2752-.0672.4977-.1232.721-.1754.1114-.026.2244-.0449.3367-.067-.0536-.1158-.1066-.232-.1612-.3474a.79.79,0,0,0-.058-.0827,1.008,1.008,0,0,1,.67.0034c.1148.0447.2385.1227.3015-.0752.01-.0324.0831-.0567.13-.0638.6229-.0939,1.2467-.1827,1.87-.2775a.3458.3458,0,0,0,.1711-.0982,7.6674,7.6674,0,0,1-2.5317.0627l.0184.1473a5.6568,5.6568,0,0,0-.7145.1362.9372.9372,0,0,0-.5962.4233l.4744-.0406.0112.0569c-.1376.0315-.2739.0713-.413.0929a.7554.7554,0,0,0-.6669.5417,1.3591,1.3591,0,0,0-.0044.3471,2.4124,2.4124,0,0,1,.3554-.2459A1.4561,1.4561,0,0,1,10.7685,20.1845Zm1.3579-1.9236c.0592.0541.0874.0965.1262.1112.048.0183.1247.0373.153.0134a.2091.2091,0,0,0,.0722-.1645.495.495,0,0,0-.6249-.34,7.681,7.681,0,0,0-.7638.5107.8669.8669,0,0,0,.8125-.1951c.1271.1913.0215.2385-.1033.2485l.0693.2266.3606-.1586-.0217-.05-.22.0719Z"/><path class="cls-1" d="M9.2682,39.8222c.0592-.1013.1244-.2.1761-.3047a.3444.3444,0,0,0-.0538-.4277c-.1127-.1115-.0724-.1758.05-.2307.3514-.1581.7108-.3008,1.052-.4784.9467-.4929,1.8858-1,2.8277-1.5022q.3126-.1667.6244-.3347c.1753-.0941.3482-.21.5712-.0211-.1605-.2989-.0041-.3841.2118-.474.3661-.1524.7164-.3421,1.0793-.5024a.5177.5177,0,0,1,.5807.09.7659.7659,0,0,0,.405.131c.2556.0219.263.0164.1785.2521.37-.0583.3462-.2.3058-.6532a6.4815,6.4815,0,0,1,.7666.0062c.3061.0368.3654.344.5119.5495.3526.4944.6978.9941,1.045,1.4924.0409.0588.0753.1221.1258.2046-.0708.008-.1175.0273-.1534.0151a3.833,3.833,0,0,0-1.9123-.0722,5.5227,5.5227,0,0,0-1.1469.4046,23.7142,23.7142,0,0,0-2.642,1.49c-.3213.1853-.6593.3424-.9938.5041-.4312.2085-.8719.3982-1.299.6146a8.2764,8.2764,0,0,1-2.3846.8123,4.163,4.163,0,0,1-2.3609-.2716c-.31-.1342-.4091-.4746-.4984-.7844-.0979-.34-.1847-.683-.28-1.0237a.1727.1727,0,0,0-.0675-.0872c-.2008-.1354-.1235-.2491.0259-.3735a1.3946,1.3946,0,0,0,1.3222.3536,1.32,1.32,0,0,0,.1467.3012.4667.4667,0,0,0,.2585.16c.135.0214.2909-.0046.3224.1683a.9668.9668,0,0,1-.045.3089c.3894.0374.5314-.3182.3159-.8894.2452-.1886.3755.0953.5644.1349.3417.0716.1494.3226.1676.5066.0794-.0288.1449-.0525.2106-.0765a1.6117,1.6117,0,0,1-.0526.2108.7023.7023,0,0,0,.48.9143,1.202,1.202,0,0,0,1.1156-.3937c.0524-.0458.0621-.14.0916-.2125l-.0514-.0294c-.0241.0262-.0467.054-.0727.0782-.3183.296-.681.505-1.0548.1987a.5684.5684,0,0,1-.158-.8191.5813.5813,0,0,1,.8215-.1545c.0031-.3079-.1029-.4106-.356-.2846A7.5969,7.5969,0,0,0,9.2682,39.8222Zm3.34-1.4993a.72.72,0,0,0,.02-.0886c.0045-.0737.0067-.1477.01-.2215a.9856.9856,0,0,1,.2767.0321c.197.0831.3859.1859.5761.2845a.4945.4945,0,0,1,.1835.67l.6876-.39c-.2591.0018-.2712.0085-.3925-.2094a.8445.8445,0,0,1-.11-.3921c0-.2706.0358-.5411.057-.8117l-.06-.0158c-.1928.2477-.1036.5716-.1418.8694-.2529-.12-.4763-.2316-.7056-.33a.229.229,0,0,0-.1754.0189c-.4554.254-.9042.52-1.3612.7709-.2913.16-.3027.188-.0806.4637.1418-.3431.1418-.3431.3774-.4468.1218.2118.2556.4229.3673.645.0973.1934.3.3844.0847.6386l.6551-.3693a1.4,1.4,0,0,1-.3513-.2693c-.1639-.252-.291-.5281-.431-.7905C12.3458,38.1413,12.4379,38.1279,12.6085,38.3229Zm3.6308-1.56a.7073.7073,0,0,0,.1466-.0838.6244.6244,0,0,0,.0887-.1376c-.0544-.0056-.12-.0337-.1612-.0128a4.3563,4.3563,0,0,0-.4373.2618c-.0368.0248-.05.0852-.1074.1924.3153-.1677.3444.0164.4178.2413l-.7187-.1936a2.8982,2.8982,0,0,0,.1364-.2706c.07-.1887.0132-.3459-.1412-.3887a.2965.2965,0,0,0-.38.2019.4078.4078,0,0,0,.1454.59c-.0341.0683-.0646.1271-.093.1869a.3641.3641,0,0,0,.2662.5566.5622.5622,0,0,0,.5866-.21.5916.5916,0,0,1,.371-.2181c.3544-.0471.4181-.1424.4264-.4046l-.5189.14ZM11.0505,38.76l-.641.3584-.02.0975c.3136-.2112.3485.0328.435.1825.1036.1793.1951.3656.298.5453.0847.1479.1787.2905-.0484.4262l.0585.0438.6458-.3583A1.4508,1.4508,0,0,1,11.0505,38.76Z"/><path class="cls-1" d="M40.7778,40.3948l.181-.2961-.7312-.39c-.02-.1035-.0159-.1842.1811-.2365a.9261.9261,0,0,0,.3982-.3477.61.61,0,0,1,.6724-.2724c-.1265.1284-.2461.2387-.3522.3607a1.7583,1.7583,0,0,0-.2333.323.4466.4466,0,0,0,.3955.6693c-.0148-.1019-.0722-.2279-.033-.3045a.3821.3821,0,0,1,.27-.1351.5747.5747,0,0,0,.503-.5068c.0544-.2157.1765-.2769.39-.2738a8.3567,8.3567,0,0,0,.942-.0479c.1521-.0151.17.0748.1409.16-.1669.4938-.3663.9774-.5172,1.4757a1.1119,1.1119,0,0,1-.8488.7322,4.0044,4.0044,0,0,1-1.8024.1208,10.9808,10.9808,0,0,1-1.98-.5391,15.3019,15.3019,0,0,1-1.6579-.7347c-.5314-.2605-1.0527-.5436-1.566-.8385a21.1631,21.1631,0,0,0-3.0436-1.5912,3.6149,3.6149,0,0,0-2.1734-.1817c-.1339.0328-.2727.0457-.4611.0761.2091-.3119.4008-.595.5894-.88.1959-.2963.4043-.5859.5791-.8943a.9017.9017,0,0,1,1.0711-.4646c.0575.0177.1015.1613.1073.25a.3941.3941,0,0,0,.4263.4072l-.1049-.2013c.07-.0188.1526-.07.1944-.0469.1732.0951.2812.0244.4088-.093a.6107.6107,0,0,1,.77-.0744c.3736.189.7605.3517,1.1407.5276.2174.1006.0976.2352.0512.4144l.3387-.1258a45.1173,45.1173,0,0,0,4.9019,2.5043.8777.8777,0,0,0-.0018.8218c.0169.0406-.0379.115-.0666.17a.3666.3666,0,0,0,.1277.5664c.0595.0442.1227.0843.1776.1336.1077.0971.2156.2026.126.3638a.3389.3389,0,0,1-.436.0989.4112.4112,0,0,1-.2341-.5469c-.2606.2026-.2669.2666-.0708.4593a.7154.7154,0,0,0,.9981.0868c.1648-.1753.17-.3145-.0023-.48-.1009-.0969-.2247-.17-.3329-.26-.0952-.0792-.2262-.1682-.1209-.3069a.28.28,0,0,1,.3829-.1124A.4642.4642,0,0,1,40.7778,40.3948Zm-3.1668-.3624c.1081.0624.2358.1389.366.211a1.2068,1.2068,0,0,0,1.261.1225.6824.6824,0,0,0,.1065-1.0813c-.3561-.2081-.7235-.3968-1.0876-.5908-.0267-.0142-.0675-.0018-.1312-.0018l.1443.1926A3.7842,3.7842,0,0,1,37.611,40.0324Zm-3.8482-3.1343.0614.0032.2018-.2723a1.7764,1.7764,0,0,0-1.0048-.54.6615.6615,0,0,0-.6659.2326.6.6,0,0,0-.0991.7548,1.2548,1.2548,0,0,0,.3578.42,2.1957,2.1957,0,0,0,.7446.2522c.0832.0125.1966-.1784.2972-.2753.0277-.0267.0587-.05.111-.0939l-.6093-.3019a.11.11,0,0,0,.0269.1c.0729.075.18.1541.0684.2592a.4159.4159,0,0,1-.2589.1052c-.2149.0011-.4374-.2575-.5052-.5544a.8376.8376,0,0,1,.33-.633.61.61,0,0,1,.6159-.0149C33.6633,36.4492,33.8678,36.5685,33.7628,36.8981Zm1.2367.12-.6591-.3244-.0521.0568c.1806.0835.16.1957.0866.3271-.0835.1487-.1543.3045-.2306.4572-.2181.436-.1522.6613.2642.9029a.6265.6265,0,0,0,.847-.1251c.0817-.1217.1341-.2628.2112-.3881.1024-.1666.1347-.4032.4745-.405l-.5118-.2771-.06.0478c.1982.1167.15.2434.0624.3841-.0975.157-.1764.3254-.2687.4859a.3971.3971,0,0,1-.4945.1929c-.1667-.0556-.3895-.3188-.3288-.4278C34.519,37.604,34.5514,37.1693,35,37.0183Zm2.4882,2.5366c-.0224-.003-.0548-.0162-.0634-.0071-.0744.079-.1292.1843-.27.09-.0968-.0646-.2182-.0928-.3128-.16a.1814.1814,0,0,1-.0332-.1708c.1568-.3245.3256-.6432.4807-.9446h.2443l.0068-.0485-.6809-.3281c.033.1328.0939.233.0676.298a6.04,6.04,0,0,1-.3421.7007,3.2328,3.2328,0,0,1-.2863.3694c.24.1286.4965.27.7566.4041C37.3219,39.8964,37.3937,39.8609,37.4877,39.5549ZM35.92,39.0135c.1315-.2885.2383-.5582.376-.811.0751-.1378.142-.3285.3855-.3109l-.6378-.3273-.0242.0307.1282.1642a3.9909,3.9909,0,0,1-.3287.7017c-.1069.1479-.0775.4949-.4437.3647l-.006.0663.6531.3161.0293-.0511Z"/><path class="cls-1" d="M16.0841,16.1524a2.6286,2.6286,0,0,1-.2294-.3772,1.109,1.109,0,0,1-.0886-.4226c.0017-.1179.0993-.1215.2-.0658.2694.1495.5426.2923.83.4461-.0069-.0422,0-.0912-.02-.1073a1.4407,1.4407,0,0,0-1.9917-.1918c-.0228.016-.0394.0436-.0639.0537-.0594.0246-.1218.0422-.1829.0625-.0042-.0736-.037-.1626-.0071-.2179a4.2038,4.2038,0,0,1,.2555-.388.96.96,0,0,0-.57.2557.9164.9164,0,0,0-.3406.845c.0143.1088-.2086.2862-.3576.3707-.2545.1443-.5334-.0487-.6175-.3886-.03-.1213-.0719-.24-.1084-.3591l-.0822.0033a2.8187,2.8187,0,0,1,.3009-.58,2.4879,2.4879,0,0,1,.5057-.366l-.0237-.0633c-.1544.06-.31.117-.463.1805-.1811.0751-.3568.1646-.5419.2268-.0412.0139-.112-.06-.1691-.0937.0572-.06.1207-.1754.1706-.17a1.273,1.273,0,0,0,.8845-.3521.6554.6554,0,0,1,.7414-.1127.4905.4905,0,0,0,.1668.0266l.03-.0759c-.1484-.085-.2989-.1664-.4441-.2566a.4775.4775,0,0,1-.1732-.152.2143.2143,0,0,1,.0236-.1814c.0159-.0248.109-.0214.1554-.0022.3061.1264.6089.2606.9311.4l-.0314-.3212a3.5567,3.5567,0,0,0,.4656.3284,2.2825,2.2825,0,0,0,.8158.313,1,1,0,0,1,.5335.2213.9862.9862,0,0,0,.227.0765c.0642-.5736-.7648-1.3069-1.5917-1.3825l.5313-.3534c-.4475.0486-.9082.19-1.1928-.3642.3085-.2892.6716-.1,1.0257-.133a1.9415,1.9415,0,0,1-.7279-.8658c-.1428-.2524-.2465-.5436-.5669-.6538a.4738.4738,0,0,1,.716.1216,10.42,10.42,0,0,1,.8382,1.1218c.3763.5924.718,1.2069,1.0689,1.8153a8.0592,8.0592,0,0,0,1.5767,1.9376,2.0558,2.0558,0,0,0,.2151.1517l.04-.0444a2.1225,2.1225,0,0,1-.1973-.1744,12.134,12.134,0,0,1-1.1057-1.2769c-.5993-.904-1.1239-1.8572-1.7-2.7773-.2115-.3381-.48-.64-.7194-.9546a.7585.7585,0,0,1,.6682.1944,2.5612,2.5612,0,0,1,.7063.9755c.0613.1316.1365.2567.2373.4443.0646-.4573-.0671-.89.2291-1.2331a.8706.8706,0,0,1,.3853.9246,3.6207,3.6207,0,0,0-.0758.4368c-.013.1495-.0028.301-.0028.473l.3723-.1346a2.72,2.72,0,0,0,.792,2.199c.0193-.1138.0377-.1943.0459-.2758a3.4589,3.4589,0,0,0-.2038-1.3592.7389.7389,0,0,1,.158-.7207c.2282.2562.2719.4144.3614,1.2406a2.5987,2.5987,0,0,1,.9561-1.7947l.0745.0328c-.1089.2668-.209.5376-.3288.7993a10.0686,10.0686,0,0,0-.5437,1.1577,1.6263,1.6263,0,0,0,.4153,1.5447c.0185.0227.0551.0306.1431.0769-.0986-.1606-.17-.26-.2242-.3679a2.0564,2.0564,0,0,1,.0746-2.0194c.2107-.3856.3868-.79.5788-1.1867a.362.362,0,0,1,.1179.4144,2.3265,2.3265,0,0,1-.45,1,.8367.8367,0,0,0-.075.1453.93.93,0,0,1,1.2028.188,1.1446,1.1446,0,0,0-1.2014.4394.6238.6238,0,0,0-.0091.8192l.2437-.3908c-.0377.3239-.0645.6077-.1087.8888a.2707.2707,0,0,1-.13.1548c-.1717.1007-.3514.1877-.5921.3134l.7008.6552a1.9675,1.9675,0,0,0-.04.2417.2631.2631,0,0,0,.33.2792c.2494-.0715.4892-.176.7526-.2736l.0324.2218a.7531.7531,0,0,0-.8387.5159.66.66,0,0,1-.2578.2617.2818.2818,0,0,1-.2414-.0179c-.03-.0172-.0077-.1452.01-.2184a1.8717,1.8717,0,0,0,.0726-.2655c-.2888.4238-.5655.8487-1.18.9022l.21-.6356-.0492-.04a1.1348,1.1348,0,0,1-1.22.1787l-.0127-.0777,1.116-.6277-.44-.2028c.371-.48.9211-.1523,1.3381-.3636-.2-.1594-.36-.1956-1.2419-.1767-.4175.0089-.8338.0792-1.3.1267l.311-.2769c-.4187-.2157-.8239.0435-1.2324.1016-.0181-.02-.0328-.03-.0369-.0425-.1329-.4165-.061-.4761.4642-.3856l-.3089.2552a.0893.0893,0,0,0,.0855-.01,1.8118,1.8118,0,0,1,1.5268-.1886c.3219.074.63.2054.95.2885a3.4506,3.4506,0,0,0,.526.0565,9.7986,9.7986,0,0,0-1.2542-.3369,8.344,8.344,0,0,0-1.0343-.1308A2.3076,2.3076,0,0,0,16.0841,16.1524Zm2.5368.1313.0247-.0387c-.6382-.4022-1.273-.81-1.9158-1.2046a3.4848,3.4848,0,0,0-1.5992-.5484,1.9049,1.9049,0,0,0-1.3509.4206,1.1793,1.1793,0,0,0-.5286,1.01,1.46,1.46,0,0,1,.533-.91,1.9483,1.9483,0,0,1,1.7951-.3608,4.682,4.682,0,0,1,1.7043.8209C17.7187,15.76,18.1744,16.0148,18.6209,16.2837Zm.4586.8014c-.5778.3232-1.0494.8474-1.7626.91C18.0687,18.0117,18.5371,17.475,19.08,17.0851Z"/><path class="cls-1" d="M32.1808,16.4956c.3542.0794.6938-.1351.9588.0945-.4514.0841-.9059.1953-1.3671.2456a5.9829,5.9829,0,0,1-1.0176-.0185c-.3811-.024-.763-.171-1.1379.046-.04.0231-.1451-.0207-.1922-.0639-.2519-.23-.3862-.5989-.8228-.6354a1.5963,1.5963,0,0,0,.7491-.8963l-.7249.8116-.0678-.0284a1.16,1.16,0,0,0,.0685-1.122c.21.0115.21.0115.3944.4818a.7943.7943,0,0,0,.2135-.8877.6565.6565,0,0,0-.728-.4912c.0143-.3819.0967-.4235.635-.337-.6339-.816-.6034-.91-.4044-1.4l1.0916,1.2372c.0175-.1714.032-.3942.066-.614a1.2218,1.2218,0,0,1,.1133-.3787c.0647-.1227.1727-.14.2682-.0136a.8924.8924,0,0,1,.1261.823c-.0883.3276-.154.6613-.2307.9921-.0432.186-.0887.3716-.1365.5716.24.0682.36-.0943.4868-.2354a2.2691,2.2691,0,0,0,.43-1.8825c.049.029.0866.0471.12.0718.0345.0259.0644.0579.1221.1111.0389-.5714-.011-1.1551.587-1.4913a2.3531,2.3531,0,0,1,.0727,1.2251c.2229-.289.4362-.5862.6709-.8653a1.8682,1.8682,0,0,1,1.404-.8049,3.7237,3.7237,0,0,1,.7044.09.4666.4666,0,0,1,.2124.1421c-.7716.0637-1.0654.7023-1.4852,1.1632h.8282c-.0313.4212-.34.6132-1.2479.7978l.6344.1123-.0012.0661a2.9328,2.9328,0,0,0-1.2833.8773c-.1484.1347-.3193.2444-.4689.378a.902.902,0,0,0-.1342.2128c.1005.0223.2323.0957.2955.057a1.8074,1.8074,0,0,0,.4465-.3865c.2361-.2869.3981-.6436.7866-.7746.1181.1843.1032.22-.3518.7914.3842-.204.7246-.38,1.06-.5645a1.72,1.72,0,0,1,1.14-.278,1.4265,1.4265,0,0,1-.7615.6823,6.4711,6.4711,0,0,1,.9614.0829,6.4619,6.4619,0,0,1,.8922.3476c-.1821.3721-.5057.2585-.8308.2956a1.5546,1.5546,0,0,1,.5931,1.0628l-.4213-.251a1.73,1.73,0,0,1-.176.1571c-.1674.1173-.3077.0231-.4118-.1462a1.1591,1.1591,0,0,0-.4745-.4669,4.3171,4.3171,0,0,0-.8868-.178l-.025.0638.1937.2484-.0434.0544a2.1157,2.1157,0,0,0-.3747-.1894,1.9218,1.9218,0,0,0-1.2767.16c-.2088.086-.4111.188-.6163.2827l.0081.072c.3018-.037.6055-.0625.9047-.1145a1.04,1.04,0,0,1,.7477.003l-.5355.1363-.0092.0536.441.17A1.7,1.7,0,0,0,32.1808,16.4956Zm-2.9263-.1812.0187.0544c.0782.0172.1679.0684.2327.0463.641-.2187,1.2931-.4146,1.9119-.6859a9.7663,9.7663,0,0,1,2.3585-.874,1.22,1.22,0,0,1,1.2292.3571c.122.1464.2549.2838.421.4676a1.4206,1.4206,0,0,0-1.395-.956,3.4549,3.4549,0,0,0-.992.2192c-.8145.3116-1.6133.664-2.4214.9926-.2818.1145-.5725.207-.8591.31l-.0182-.0543c1.37-.8891,1.788-1.5175,1.8891-1.9207A5.37,5.37,0,0,1,29.2545,16.3144Zm5.0411-5.0113a1.6,1.6,0,0,0-1.066.5613c-.2985.3679-.5914.7421-.86,1.1322-.2155.3134-.3905.6546-.5835.9835.3965-.5219.7608-1.06,1.1442-1.5837a2.4148,2.4148,0,0,1,1.06-.988C34.0918,11.3717,34.194,11.3381,34.2956,11.3031Zm-4.5231,2.93a2.1832,2.1832,0,0,1-.8456,1.9058A1.71,1.71,0,0,0,29.7725,14.233Z"/><path class="cls-1" d="M43.8381,32.612a1.3328,1.3328,0,0,1-1.0261-.6992.6179.6179,0,0,1,.0179-.4352,1.3126,1.3126,0,0,1,1.435-.95,1.5333,1.5333,0,0,1,1.3521,1.1016,1.8378,1.8378,0,0,1-.7469,2.1974,1.0442,1.0442,0,0,1-.47.176,2.6265,2.6265,0,0,1-2.4183-.8512A1.0672,1.0672,0,0,1,41.86,32a2.3764,2.3764,0,0,0-.0144-1.3419,1.5856,1.5856,0,0,0-.201-.337l-.0568.0175c.0369.208.0793.4152.1095.6241A2.6691,2.6691,0,0,1,41.61,32.27c-.193.5482-.318,1.12-.4753,1.6929a.8751.8751,0,0,1-.7188-.73,6.37,6.37,0,0,1-.1886-1.1806,6.1857,6.1857,0,0,0-.4983-2.4223,3.986,3.986,0,0,0-.8629-.9641,2.7408,2.7408,0,0,1-.2253-.284,1.6151,1.6151,0,0,1,.3892-.2141.6241.6241,0,0,1,.7862.3866c.1912-.1621.3563-.3134.5355-.4458a.2076.2076,0,0,1,.199.0013c.409.4031.9333.7087,1.1328,1.2932.1547.4533.303.9087.4512,1.3641A3.2754,3.2754,0,0,0,43.27,32.63a.9346.9346,0,0,0,1.2691-.1959.5779.5779,0,0,0-.2029-.8463.5367.5367,0,0,0-.7644.1492.5709.5709,0,0,0,.1254.7235c.0414.03.0833.06.1227.0931C43.8294,32.5608,43.8289,32.58,43.8381,32.612Z"/><path class="cls-1" d="M10.7446,28.3988a3.6223,3.6223,0,0,0-1.5058,2.3989,9.7675,9.7675,0,0,0-.1495,1.3989,2.2373,2.2373,0,0,1-.44,1.3717c-.0094.0113-.013.03-.0244.0368-.1322.0753-.2655.1489-.3984.2229-.0427-.12-.0919-.2391-.1268-.3618-.1151-.4039-.2206-.8106-.3378-1.2139a1.4569,1.4569,0,0,1,.4356-1.5113c.1255-.1286.235-.2729.3518-.41l-.042-.0482a1.392,1.392,0,0,0-.3072.2241,2.9951,2.9951,0,0,0-.5068.7446,1.6631,1.6631,0,0,0-.1082.9144.9822.9822,0,0,1-.396,1.0064,2.5918,2.5918,0,0,1-1.3018.6822,1.69,1.69,0,0,1-1.6539-.39A1.7965,1.7965,0,0,1,3.7011,31.78a1.6315,1.6315,0,0,1,1.2051-1.3133,1.26,1.26,0,0,1,1.6781,1.14c.025.2129-.2984.6176-.5738.7286-.1392.0561-.2828.1014-.4244.1515l-.0317-.0627a1.0545,1.0545,0,0,0,.2153-.1524.562.562,0,0,0-.1071-.8077.6.6,0,0,0-.8106.8179.7016.7016,0,0,0,.577.3653,1.2827,1.2827,0,0,0,1.1767-.6434,4.752,4.752,0,0,0,.6356-1.5022,4.538,4.538,0,0,1,.498-1.2478A8.82,8.82,0,0,1,8.93,28.0531c.0239-.0225.1793.06.2441.1236a5.2805,5.2805,0,0,1,.3416.4042C9.9129,27.972,10.3155,27.9563,10.7446,28.3988Z"/><path class="cls-1" d="M12.6623,31.86l-.0354.689c-.3562-.27-.681-.5109-.999-.7607a.3189.3189,0,0,1-.1252-.1912q-.04-.57-.0462-1.1429a.3541.3541,0,0,1,.0959-.2324,1.786,1.786,0,0,1,1.0286-.62c.0735-.0086.13-.1182.2053-.1645.16-.099.3268-.1878.4918-.279.0187-.01.0522-.0019.0641-.0153.4539-.5081.918-.0567,1.3713-.0017.2247.0273.322.2858.31.5219a1.882,1.882,0,0,0,.0651.5182,2.0286,2.0286,0,0,1-.3153,1.6151c-.2356.3654-.5449.6825-.794,1.04a1.7119,1.7119,0,0,0-.279.6211.5213.5213,0,0,0,.1405.4363,4.6621,4.6621,0,0,0,1.7525.9473,3.0707,3.0707,0,0,0,.7561-.0233c.3528-.0144.7059-.0389,1.0584-.0328.0791.0014.1732.0995.2278.1762.03.0426-.007.1331-.0138.202a.4607.4607,0,0,1-.1755-.0316.9911.9911,0,0,0-.6618-.1175c-.1241.0087-.2465.0407-.4209.0712l.649.2754a1.23,1.23,0,0,1-.1218.2057c-.0738.078-.1333.1557-.2779.0646a1.1058,1.1058,0,0,0-.5481-.2015,2.0515,2.0515,0,0,0-1.4675.6553l-.3035-.43.6709-.2353c-.4647-.2433-.9331-.4855-1.3983-.7336-.15-.08-.2863-.1885-.44-.2606a4.2924,4.2924,0,0,0-.637-.2514.4925.4925,0,0,1-.1775-.8188,1.983,1.983,0,0,0,.4415-1.0724,1.3221,1.3221,0,0,0-.0647-.4247Z"/><path class="cls-1" d="M36.6681,32.5687V31.858h-.0646a1.0675,1.0675,0,0,0-.0474.8039c.12.3138.2953.6063.4445.9092a.4472.4472,0,0,1-.2784.6637c-.5542.2264-1.095.4856-1.64.7343-.3127.1427-.6227.2914-.9673.4531l.7457.2532-.3271.2168.0419.0834a1.7532,1.7532,0,0,1-.1955-.1279,2.3424,2.3424,0,0,0-1.2021-.4621,1.1917,1.1917,0,0,0-.4978.138c-.0894.03-.1851.1267-.2553.108-.0908-.0241-.159-.1334-.2368-.206.055-.0517.1018-.13.1667-.15.2311-.0724.4685-.125.7058-.2245-.3964-.0277-.7927-.06-1.19-.077-.0437-.0019-.085.0929-.1387.1226a.489.489,0,0,1-.1593.0274.5983.5983,0,0,1-.0158-.1355c.0189-.1724.1446-.2187.2887-.21a9.789,9.789,0,0,1,1.2123.1013,1.52,1.52,0,0,0,.9514-.1324,13.3061,13.3061,0,0,0,1.35-.7607.6372.6372,0,0,0,.0776-.9284c-.273-.37-.5621-.7287-.8258-1.1052a2.3934,2.3934,0,0,1-.3892-1.8056c.0353-.2269.0769-.4542.0905-.6827.0091-.1529.1038-.2026.2144-.2439a6.0135,6.0135,0,0,1,.7879-.27.8171.8171,0,0,1,.3873.1027c.1626.0586.3223.1261.48.1965.0836.0373.2028.07.2328.1377a.4545.4545,0,0,0,.3758.2722c.41.0747.6566.4162.9908.615a.1012.1012,0,0,1,.0429.0739c-.0054.3917,0,.7844-.0271,1.1748-.0222.3181-.3184.4175-.53.58C37.08,32.2481,36.8933,32.394,36.6681,32.5687Z"/><path class="cls-1" d="M42.879,38.4953l-.3526.05-.0136.0533.4788.1471-.0073.0715a4.0233,4.0233,0,0,1-.5211-.004.5969.5969,0,0,0-.6275.3742c-.2126.3774-.205.3817-.65.3383-.0375-.2284.1442-.3217.273-.4492.1325-.1311.2565-.2707.3935-.4163-.2219-.2259-.412.1548-.6551.0283.2362-.1868.61-.24.582-.6372l-.2437.2685a2.593,2.593,0,0,0-.0777-1.0159c-.0909-.4635-.19-.9254-.2771-1.39-.01-.0536.0361-.1177.0742-.23-.2179-.13-.4452-.2656-.6719-.4019a5.5071,5.5071,0,0,1-2.2851-2.0953,3.7214,3.7214,0,0,1-.2907-.9678,6.3609,6.3609,0,0,1,.0738-1.935,2.4077,2.4077,0,0,0-.0654-1.3679.4294.4294,0,0,1-.0125-.14.486.486,0,0,1,.5336.121,5.513,5.513,0,0,1,.7826.85,2.8272,2.8272,0,0,1,.3552,1.0145c.0776.4618.0489.9405.1092,1.4063a3.9746,3.9746,0,0,0,.2681,1.3667,1.9294,1.9294,0,0,0,.6911.6812c.3334.2325.6793.4471,1.02.6693.0126.0082.0264.0147.0387.0233.1341.0946.3962.0084.4138.2527.0119.1655-.0617.3353-.0668.5041q-.0219.7149-.0162,1.4305c.0018.2463.0274.4925.0464.7384a.5759.5759,0,0,0,.64.613.3047.3047,0,0,1,.0579.015Z"/><path class="cls-1" d="M7.8475,38.205a.8253.8253,0,0,1-.1774-.0831,1.06,1.06,0,0,1-.1462-.19.46.46,0,0,0,.2417.4789c.15.0753.29.1691.435.2548l-.0258.0561-.6047-.201-.0587.0956.6785.7479c-.2807.2173-.472.1768-.6062-.0869-.0371-.0729-.0759-.1451-.1153-.2168a.5828.5828,0,0,0-.7041-.3221c-.0908.02-.1849.0266-.2775.0393L6.4548,38.7l.4059-.2147-.2475-.0673c.0742-.0475.1142-.0952.1548-.0957.3128-.004.3481-.243.374-.4611a6.2031,6.2031,0,0,0,.0469-.8837c-.0159-.6385-.0582-1.2764-.0736-1.915a.28.28,0,0,1,.16-.2036,7.77,7.77,0,0,0,1.5923-.989,1.414,1.414,0,0,0,.537-.9733c.0889-.4986.121-1.007.1912-1.5092a4.8208,4.8208,0,0,1,.3179-1.5522A3.1963,3.1963,0,0,1,11.0093,28.71a.25.25,0,0,1,.2373.01.33.33,0,0,1,.0668.2364c-.012.4-.05.7989-.0519,1.1984a9.9978,9.9978,0,0,1-.0853,2.4954,2.325,2.325,0,0,1-.4679.8933,8.5638,8.5638,0,0,1-1.13,1.0879,8.4325,8.4325,0,0,1-.9487.5633,4.1527,4.1527,0,0,0-.4833.35.323.323,0,0,0-.0822.1926c-.0786.5578-.1524,1.1163-.2249,1.6749a4.3292,4.3292,0,0,0-.0456.4891A1.6,1.6,0,0,0,7.8475,38.205Z"/><path class="cls-1" d="M40.5668,25.4276a6.4392,6.4392,0,0,1,1.83,1.3411,1.3461,1.3461,0,0,0-.8814.9077l-1.7-1.5233.4008.0184c0-.12.0348-.24-.0064-.3221-.1351-.2686.0922-.3794.232-.4394.2425-.1044.4366-.2012.4613-.496a1.3977,1.3977,0,0,1,.103-.3054c-.2133.1055-.2968.0571-.3317-.153a3.5413,3.5413,0,0,0-.1005-.475c-.0548-.1761-.1676-.2522-.3582-.1583-.165.0813-.3361.1366-.4452-.1034.0978-.1547.252-.079.3817-.0785.1634.0006.3272.0353.49.03.1287-.0038.2168-.0622.1727-.2278-.0693-.2608.02-.3325.3194-.2474l-.1166.0709.7939.2574.1011-.2027-.6963-.0487a8.2849,8.2849,0,0,1,3.4786.16c-.192.2693-.3738.5481-.5862.8014-.0411.049-.2139.0263-.3049-.0126-.272-.1164-.5336-.2573-.8353-.4065l.22-.4252L43.14,23.354a3.7534,3.7534,0,0,0-.2761.3829c-.087.1568.0574.2.16.2493.2846.1378.5716.27.8555.41a.2114.2114,0,0,1,.1088.1005c.0691.23.1272.4633.1909.7028a20.29,20.29,0,0,0-3.4017-1.1357l-.0224.0681c.475.1583.9565.3,1.4233.48a11.8834,11.8834,0,0,1,1.3614.6356c-.5727.3074-.8922-.247-1.3549-.3611a1.1493,1.1493,0,0,0-.4909.84c.1158-.1776.23-.362.354-.5391a.2026.2026,0,0,1,.2915-.07c.2616.1317.5325.2452.8.3663l-.2739.789c-.3272-.1974-.5623-.4992-.9576-.52a3.11,3.11,0,0,1,1.0193,1.0479A8.2794,8.2794,0,0,0,40.5668,25.4276Zm-.1274,1.1167.6946-.5477A.9629.9629,0,0,0,40.4394,26.5443Z"/><path class="cls-1" d="M7.484,25.6637l-.89.5731c-.069-.18-.15-.3755-.2163-.5755-.0163-.0488-.0071-.146.0239-.1644a4.7248,4.7248,0,0,1,.7577-.3981c.0689-.0253.2289.1259.31.226a2.6527,2.6527,0,0,1,.2322.4368,1.3669,1.3669,0,0,0-.45-.9066c-.2814.15-.561.3-.8417.4481a.3807.3807,0,0,1-.4887-.0639,10.9419,10.9419,0,0,1,2.6859-1.115,12.4791,12.4791,0,0,0-3.3234,1.09,2.9017,2.9017,0,0,1,.1866-.7582c.0768-.14.3168-.1916.4837-.2827a3.2229,3.2229,0,0,0,.3866-.215c.2494-.1853.25-.2321.07-.4851a.58.58,0,0,0-.1289-.1439c.1415.4841.1415.484-.3435.7361-.0131.0068-.0223.0209-.0353.0281-.442.2454-.45.2369-.7281-.1785a5.6921,5.6921,0,0,0-.4135-.4907,14.7412,14.7412,0,0,1,3.843-.2445,1.4061,1.4061,0,0,1-.0029.2712c-.04.1955.0566.239.2212.2246.177-.0155.354-.0413.531-.041a1.3265,1.3265,0,0,1,.3.0728c-.1211.2225-.2943.1688-.4383.144-.3-.0517-.455.0528-.4742.3541-.0043.0677.0048.1365-.0023.2037-.0252.2351-.0782.27-.33.2072.1009.3123.1.6583.51.7667.1144.03.202.1617.3116.2549-.0133.081-.0264.1836-.0473.2846-.0429.2067.0235.2828.2236.2409a1.7717,1.7717,0,0,1,.27-.0593l-.6095.4642c-.2348-.1984-.4069-.5086-.7416-.5571l.6494.6414-1.0651,1c-.1929-.4066-.3774-.7982-.9284-.8375a8.1745,8.1745,0,0,1,1.7559-1.361A7.8468,7.8468,0,0,0,6.53,26.7913c.1777-.5035.6463-.7318,1.0285-1.0406Zm.81-2.3686-.0082-.0281-.787.0826c.0041.162.0413.1951.2236.1357C7.9129,23.4231,8.1031,23.3586,8.2936,23.2951Z"/><path class="cls-1" d="M44.3469,18.076c-.1841.3406-.3462.6958-.5581,1.0182-.2521.3835-.5573.7318-.8162,1.1113a.5085.5085,0,0,0-.0594.3848c.0818.2675-.0916.3622-.2588.4687-.15.0956-.3156.1674-.4618.268-.33.227-.37.3958-.02.6486.049.0353.0937.0764.1524.1247a.9972.9972,0,0,1-.6317.32c-.23.0226-.4557.086-.7165.138.0525.0566.06.0665.069.074q.111.0915.2226.1823a1.3875,1.3875,0,0,1-.2732.1653c-.3806.1248-.3823.1195-.4221.5319-.1381-.0142-.2767-.0372-.4156-.04a1.031,1.031,0,0,0-.37.0333c-.1538.0569-.2828.21-.1929.3566a.4961.4961,0,0,0,.3929.1936c.3661-.0356.3694-.051.4647.2846a2.5429,2.5429,0,0,0,.1668.4281c.1157.2342-.0389.4292-.3677.4572a1.8739,1.8739,0,0,0-.3063.0456c-.169.0431-.2079.1461-.1259.3032.0512.098.0869.204.149.3533a1.19,1.19,0,0,1-.242-.0029c-.1294-.03-.2542-.08-.3823-.116a.5478.5478,0,0,0-.617.1078.3778.3778,0,0,1-.3456.0538,1.1349,1.1349,0,0,0-1.0964.1141.341.341,0,0,1,.1133-.4484,1.3757,1.3757,0,0,1,.8254-.2851c.3518-.0094.7042-.0189,1.0548-.0479a.6336.6336,0,0,0,.504-.3965.3938.3938,0,0,0-.2858-.5443,3.2434,3.2434,0,0,1-.5415-.1882.29.29,0,0,1-.1306-.2276,2.3647,2.3647,0,0,1,.7219-1.5566c.5455-.5388,1.1023-1.0679,1.6794-1.5724.427-.3733.896-.6982,1.3428-1.0492a7.4145,7.4145,0,0,0,1.71-1.7407Z"/><path class="cls-1" d="M8.1543,22.7461l.25-.0871.0224-.0643c-.1425-.0445-.2827-.0989-.4279-.1309-.1875-.0413-.38-.0579-.5678-.0992a.52.52,0,0,1-.19-.1092c-.1087-.0848-.1256-.15.01-.253.3313-.252.3095-.4647-.0555-.6928-.17-.1059-.3493-.1958-.525-.2921A.2788.2788,0,0,1,6.516,20.64c.129-.3059-.06-.5085-.2143-.7238-.2759-.3856-.5714-.7583-.8264-1.157a3.883,3.883,0,0,1-.3267-.7582,12.2771,12.2771,0,0,0,1.8849,1.923c.8556.69,1.7071,1.3871,2.526,2.12a2.7691,2.7691,0,0,1,.8822,1.2319,2.9577,2.9577,0,0,1,.1086.49c.0341.279-.1372.47-.4458.5567a1.3908,1.3908,0,0,0-.4371.1892.2742.2742,0,0,0-.059.4.9086.9086,0,0,0,.7581.4408c.2566.0009.5132.0014.77,0a1.2469,1.2469,0,0,1,.8384.3033.27.27,0,0,1,.0892.3808c-.0271-.0013-.0622.0075-.0842-.0056a1.0367,1.0367,0,0,0-.979-.0732.2367.2367,0,0,1-.3144-.0712.38.38,0,0,0-.4561-.1272,8.4481,8.4481,0,0,1-.8417.1867c.0858-.1492.1381-.2336.1841-.3213.1225-.2339.0325-.3737-.2353-.403a1.51,1.51,0,0,1-.4621-.1169.27.27,0,0,1-.088-.239,6.8375,6.8375,0,0,1,.2271-.7363.1911.1911,0,0,1,.1366-.0862,1.9689,1.9689,0,0,1,.2937-.0044c.1733.0015.3421-.0159.3729-.23a.3451.3451,0,0,0-.36-.3471c-.1635-.0084-.3286.0195-.4924.0138a.1656.1656,0,0,1-.122-.104c-.02-.2168-.0951-.3489-.3407-.3752a1.297,1.297,0,0,1-.3773-.1745Z"/><path class="cls-1" d="M24.5453,15.5373c.5256-.0586.7008.0569.8813.5533a1.3958,1.3958,0,0,1-.0532,1.2832c-.0171.0278-.02.0645.0091.1521l.5042-.2838a5.7994,5.7994,0,0,0,.08.7014,3.101,3.101,0,0,0,.208.4068,3.2607,3.2607,0,0,1,.1016.3929c.0676.2569.1342.5142.2072.7695a.2057.2057,0,0,1-.1.2744c-.4562.2893-.9006.5972-1.3518.8945a1.4378,1.4378,0,0,1-.8948.2857c-.1428-.0091-.2868-.005-.43-.0009-.4124.0121-.4029-.0687-.4739-.3974-.0327-.1517-.0594-.3047-.0871-.4574-.0323-.1772.0161-.2636.2216-.2927a5.6625,5.6625,0,0,0,2.73-1.0256.1265.1265,0,0,0,.0456-.0982,1.4317,1.4317,0,0,0-.2424.1005,6.2762,6.2762,0,0,1-2.2979.8847,1.8931,1.8931,0,0,1-1.1663-.1171c.5319-.0841,1.03-.1317,1.5114-.2478.485-.1169.9536-.3018,1.4294-.457l-.0247-.0719c-.0735.0312-.1451.0683-.2208.0927a8.5133,8.5133,0,0,1-2.3352.5028c-.1258.004-.2506.0337-.3766.0423-.3688.0251-.4963.0173-.581-.5146a1.0388,1.0388,0,0,0,.1574.1325c.1191.0627.23.1684.37.0057a.2417.2417,0,0,1,.3747.0059c.15.1336.2707.133.3562-.0787a1.2763,1.2763,0,0,1,.1728-.2423c.12.06.236.125.3582.1767.1521.0645.301.11.3916-.1036.0118-.0279.1562-.0411.1949-.0085a.2474.2474,0,0,0,.3577-.0042.433.433,0,0,0,.24-.3923.9021.9021,0,0,1,.0531-.4171,1.8331,1.8331,0,0,0,.0692-1.5859C24.8127,16.1063,24.6746,15.8211,24.5453,15.5373Z"/><path class="cls-1" d="M6.1921,20.75c.1417.2415.34.4445.279.755-.0126.0643.1108.1551.2087.2122l-.146-.4517.0578-.0471c.1841.1.3719.1946.55.3044a.207.207,0,0,1,.0926.16.2047.2047,0,0,1-.1364.1237,1.8727,1.8727,0,0,1-.31.0295c.0781.2821.149.5673.2387.8464a.538.538,0,0,0,.1981.2422l-.1538-.4376L7.87,22.73l.0926.355a14.66,14.66,0,0,0-3.9147.17,5.0432,5.0432,0,0,1,2.0589-.3412l-.6072-1.3969,1.0863.3675a3.4943,3.4943,0,0,0-1.129-.5428l-.2014-1.19-.0975.0143c.0239.1579.0543.3153.069.4742a.5352.5352,0,0,1-.03.2477c-.0082.02-.1314-.0018-.2-.0149q-.5763-.11-1.1514-.2264a1.1185,1.1185,0,0,1-.1579-.053l.2041-1.393,1.9418,1.2141L5.863,20.38c-.1726-.143-.342-.29-.5185-.4279-.19-.1483-.3829-.2932-.5809-.43-.1944-.1346-.3957-.2593-.5959-.3854-.2058-.13-.41-.2616-.6219-.3814-.2-.1134-.408-.2123-.6519-.3378a.9769.9769,0,0,1,.9215.23c.4181.2875.818.6016,1.2283.9065v-.84l-.0457-.0025v.5478c-.1588-.0921-.2831-.1516-.3933-.2307-.2289-.1642-.45-.339-.6748-.5093a.4016.4016,0,0,1-.1994-.4381,4.7524,4.7524,0,0,0-.0557-.9784c-.0029-.04,0-.0805,0-.17a10.4287,10.4287,0,0,0,.9591,1.0914,12.1818,12.1818,0,0,1,1.1623,1.6173c.1395.1651.2777.3316.4217.4927A.4072.4072,0,0,1,6.1921,20.75Z"/><path class="cls-1" d="M28.8464,38.6853a1.8617,1.8617,0,0,1,.2753-.473,1.7458,1.7458,0,0,1,1.2769-.5375,2.3925,2.3925,0,0,0,.45-.0052.52.52,0,0,1,.5154.2635c.27.3375.561.6584.8512.9791A1.061,1.061,0,0,1,31.9,40.4115c-.2175.1222-.4494.2193-.6771.3227a.21.21,0,0,1-.3131-.0993,3.9433,3.9433,0,0,0-1.0118-.9542c-.288-.233-.5931-.445-.8776-.682A1.1139,1.1139,0,0,1,28.8464,38.6853Z"/><path class="cls-1" d="M18.537,37.629a2.1021,2.1021,0,0,1,1.619.6568.443.443,0,0,1-.07.7208c-.2955.1974-.5932.3931-.9017.5688a2.7078,2.7078,0,0,0-.9228.89c-.0366.0554-.136.1225-.1845.1085a1.835,1.835,0,0,1-1.104-.6911.9166.9166,0,0,1,.001-1.1206c.2194-.3016.5371-.5321.7536-.8353C17.94,37.6309,18.2164,37.6355,18.537,37.629Z"/><path class="cls-1" d="M23.093,20.64c.0241.2867.1384.4782.4331.4844a2.1552,2.1552,0,0,0,1.4529-.215c.2743-.2036.532-.4307.8138-.6228a3.6784,3.6784,0,0,1,.7009-.3843,1.16,1.16,0,0,1,1.0043.1784,2.0516,2.0516,0,0,1,.2626.2066.9585.9585,0,0,1-.1558.0878,2.4568,2.4568,0,0,0-.9225.5142c-.3687.3227-.7516.6318-1.15.9167-.208.1488-.3023.1013-.4263-.1285-.0967-.1791-.2144-.1977-.3816-.0949a1.0454,1.0454,0,0,1-.227.06,1.3426,1.3426,0,0,0-.36.1333c-.1159.0806-.0653.2148-.0106.318.1631.3073.0634.3465-.1833.4617a1.2168,1.2168,0,0,1-1.073.0175c-.2864-.1333-.352-.2718-.2465-.57.0595-.1678.0938-.29-.1081-.3854a.2436.2436,0,0,1-.0825-.224A1.5781,1.5781,0,0,1,23.093,20.64Z"/><path class="cls-1" d="M27.8175,17.8033,28.31,17.13a13.1424,13.1424,0,0,1,2.1593,1.0075,1.3076,1.3076,0,0,0,.5365.1.9776.9776,0,0,0,.3284-.0037,3.3153,3.3153,0,0,1-1.369-.5081c-.4254-.2291-.8881-.389-1.3243-.5749.2479-.0415.5264-.0906.8062-.1315.0352-.0051.1067.0287.1109.0531.039.2272.2122.16.3512.17a2.3441,2.3441,0,0,1,.9736.0915c.0583.03.1177.0578.2188.1072l-.4706.3028.9207.4c-.3366.5165-.7844.2706-1.1745.2321a1.7356,1.7356,0,0,1,.1961.3639c.0451.17-.0782.2718-.2483.22a1.0454,1.0454,0,0,1-.5763-.4653c-.0752-.1179-.1534-.2338-.2313-.3522l-.1038.2844c-.3486-.4838-.7171-.8867-1.3841-.7652a.6029.6029,0,0,0,.4309.4864.5266.5266,0,0,1,.3755.3008l-.35.0557a1.3542,1.3542,0,0,1,.1981.2727.7058.7058,0,0,1,.0828.4207.4892.4892,0,0,1-.3438.2188.6949.6949,0,0,1-.7019-.3576l-.3356.1573-.0716-1.015-.0716.0055.0842.5994-.0732.0219c-.0417-.11-.0783-.2218-.1263-.3287-.0682-.152-.1472-.2991-.2165-.4507-.0312-.0681-.0885-.1625-.0644-.2079a.2555.2555,0,0,1,.2033-.0942c.1723.0068.2452-.0627.213-.2256-.0553-.28-.1219-.5578-.1845-.84C27.5882,16.8272,27.65,17.3141,27.8175,17.8033Zm.55,1.4619c-.3776-.4916-.4549-1.1544-.9152-1.5989A5.24,5.24,0,0,0,28.3672,19.2652Z"/><path class="cls-1" d="M41.41,13.7429c.1662.5886.314,1.1832.5041,1.764a1.7992,1.7992,0,0,0,1.0006,1.0519c-.3046.4629-.6186.9188-.91,1.3884a13.9808,13.9808,0,0,0-1.4259,2.83c-.0358.1047-.0011.2361-.045.3346a.5831.5831,0,0,1-.2629.2326c.0361-.2475.0719-.495.1089-.7424.0044-.0291.0257-.0587.022-.0857a3.5385,3.5385,0,0,1,.2982-1.47c.1678-.5886.3325-1.18.4545-1.779a9.7992,9.7992,0,0,0,.1509-1.3316c.0239-.377.01-.7568.0029-1.1352-.0046-.2387-.0413-.4773-.0379-.7155a1.6343,1.6343,0,0,1,.0918-.37Z"/><path class="cls-1" d="M8.1266,13.77a4.724,4.724,0,0,1-.0141,1.5188,5.4635,5.4635,0,0,0,.0826,1.5025c.1114.4972.1772,1.0054.3053,1.4978.154.5922.3528,1.1729.5321,1.7586.0087.0283.0306.061.0233.0844a2.3884,2.3884,0,0,0,.0924,1.1169.504.504,0,0,1-.0047.0968c-.2137-.0588-.25-.1992-.2883-.4032a5.2378,5.2378,0,0,0-.316-.869,13.0765,13.0765,0,0,0-1.375-2.4765c-.2068-.3152-.3929-.6441-.5912-.9714.1549-.1128.3236-.2211.4755-.3493a2.7153,2.7153,0,0,0,.7785-1.565c.06-.2509.1189-.5023.1849-.7517A.9734.9734,0,0,1,8.1266,13.77Z"/><path class="cls-1" d="M44.3965,18.5625l-.0646,1.0917c.3673-.288.6968-.5757,1.0561-.82.3465-.2354.6785-.562,1.2253-.4116a12.3536,12.3536,0,0,0-3.0418,2.0207l.7569-.4729a2.2043,2.2043,0,0,0-.2158,1.31l-1.2.4768.0289.0788,1.032-.3189a3.367,3.367,0,0,0-.5292,1.4156,5.2545,5.2545,0,0,1,2.0065.3408,14.2634,14.2634,0,0,0-3.928-.2074c-.0492-.368.0027-.4149.3252-.4391a2.4792,2.4792,0,0,0,.4909-.1412l-.087.3428.0237.0389c.0529-.0709.1515-.1423.1506-.2125a.8445.8445,0,0,1,.27-.7182c-.166-.1586-.4751-.0282-.5026-.34.1819-.1181.3728-.2438.5663-.3654.0263-.0165.0878-.026.0944-.0152a.1555.1555,0,0,1,.0218.1112c-.0319.11-.0747.2178-.1132.3263l.0581.0371c.0533-.0746.16-.1564.151-.2226a.9448.9448,0,0,1,.336-.7668c-.2463-.0755-.2263-.2369-.1433-.4a1.1929,1.1929,0,0,1,.2445-.3675,4.0457,4.0457,0,0,0,.866-1.233.6881.6881,0,0,1,.1274-.1337Z"/><path class="cls-1" d="M8.14,37.2744l.3212.2883L7.922,38l.1759-1.0465c.4948-.1461.9618-.3087,1.4408-.4194a2.1,2.1,0,0,1,1.8859.4543c.117.0965.2157.2149.325.321.1148.1112.0885.1809-.0482.2541-.4313.2312-.8572.4725-1.2855.7092a1.9825,1.9825,0,0,0-.2354.1261c-.1915.1433-.3694.1617-.6154-.0846-.3408-.3411-.7055-.6591-1.0718-.9732a1.019,1.019,0,0,0-.32-.1206Z"/><path class="cls-1" d="M41.1607,36.8691l.0625.2507c-.3906.2806-.7722.5466-1.1434.8264a1.4728,1.4728,0,0,0-.2983.32c-.1875.2614-.321.306-.6026.163-.5781-.2935-1.1546-.59-1.7442-.8919a1.1721,1.1721,0,0,1,.58-.6314,2.5438,2.5438,0,0,1,2.3664-.1394,4.3585,4.3585,0,0,0,.7575.1677Z"/><path class="cls-1" d="M34.9341,40.2827c.4728-.526.4743-.5289,1.0978-.215.411.2068.8173.4228,1.2249.6361.0517.027.099.0625.2034.1292-.2919.2771-.5544.5445-.8364.7893a2.3244,2.3244,0,0,1-1.0914.56,1.4514,1.4514,0,0,1-1.2624-.3232.7578.7578,0,0,1-.02-.9258.1693.1693,0,0,1,.1323.0376c.0933.1231.1679.26.259.3853a.2732.2732,0,0,0,.4648.01.6166.6166,0,0,0,.0366-.7509C35.0776,40.5015,35.0034,40.3925,34.9341,40.2827Z"/><path class="cls-1" d="M11.8258,40.696c.5023-.2545.964-.4863,1.4238-.7219.5494-.2815.453-.36.983.1855.01.01.0157.0254.0086.0134-.088.2286-.1788.4374-.2484.6531a.5438.5438,0,0,0,.3081.5959.2734.2734,0,0,0,.2306-.0957,5.8843,5.8843,0,0,0,.3-.5393.7516.7516,0,0,1,.02,1.07,1.3783,1.3783,0,0,1-1.4132.1711A3.36,3.36,0,0,1,11.8258,40.696Z"/><path class="cls-1" d="M24.5805,8.4389a2.4063,2.4063,0,0,1-.6694,1.2388c.1169-.075.23-.1577.3525-.2212.0467-.0241.1161-.0043.1751-.0045-.0174.0644-.014.1529-.0559.1891-.2075.18-.4254.3475-.643.5152-.1213.0934-.2493.1782-.3939.2808h.6276c-.2514.3118-.58.3329-.8517.4737l.2441.1254.0163.0681-.8317.36.0181.0478.2831-.0243.0407.0609a.8834.8834,0,0,1-.1362.078.883.883,0,0,0-.4976.6708A.3716.3716,0,0,0,22.33,12.6c.0309.036.183-.0284.2787-.0533a.3816.3816,0,0,0,.0966-.0541.4115.4115,0,0,1,.6709.3524l.012.1883.3324-.1492c.1325.2365-.0671.3694-.1479.5481l.17.0867c-.1458.3512-.5616.383-.799.6617l.2332.1232a1.4517,1.4517,0,0,0-.9244.6775.4835.4835,0,0,1,.1224-.5711c.1666-.1826.3286-.37.5022-.5454a.7033.7033,0,0,0,.1694-.6253c-.0347-.278-.2036-.3716-.5678-.338-.4114.038-.6151-.1611-.6554-.5889a1.5311,1.5311,0,0,1,.3771-1.04,26.45,26.45,0,0,1,1.9967-2.3567C24.3313,8.7623,24.4529,8.598,24.5805,8.4389Z"/><path class="cls-1" d="M43.3085,16.4505a1.7657,1.7657,0,0,1-.0334.4444,2.9342,2.9342,0,0,0-.0316,1.48c.02.1166.085.2437.0566.3458a.772.772,0,0,1-.2273.3394c-.3709.3353-.7439.67-1.1366.9791-.3834.3017-.7917.5717-1.189.8557C40.638,20.5037,42.4383,17.3558,43.3085,16.4505Z"/><path class="cls-1" d="M44.7715,30.4119c-.0689-.0067-.1479-.0123-.2262-.0224-.2124-.0275-.4251-.0528-.6362-.0882a.24.24,0,0,1-.1464-.0829,1.7,1.7,0,0,1,.1689-1.8386,1.1423,1.1423,0,0,1,1.2945-.3148,1.2446,1.2446,0,0,1,.8413.9467.946.946,0,0,1-1.0765,1.1c-.2877-.0693-.3007-.3548-.37-.5817a.9171.9171,0,0,1-.0032-.24c.123.0549.2228.096.3195.1434a.254.254,0,0,0,.3664-.1275c.0753-.14.1523-.2843-.0083-.4429-.3214-.3174-.6757-.23-.8282.205a1.1723,1.1723,0,0,0,.05.8189A5.6845,5.6845,0,0,0,44.7715,30.4119Z"/><path class="cls-1" d="M4.8811,29.1625c-.0544.1886-.11.3767-.1628.5658a.3549.3549,0,0,1-.3993.2476.8642.8642,0,0,1-.9054-.8783,1.2206,1.2206,0,0,1,1.4691-1.1829,1.3189,1.3189,0,0,1,.9334,1.7106c-.193.595-.189.595-.8088.63-.1085.0061-.216.0292-.2795.0382a9.35,9.35,0,0,0,.292-.9824.6657.6657,0,0,0-.2285-.6757.3593.3593,0,0,0-.4509-.0444.5634.5634,0,0,0-.2481.3411.4027.4027,0,0,0,.2734.3916.2392.2392,0,0,0,.168-.02c.0991-.0454.1909-.1068.2857-.1616Z"/><path class="cls-1" d="M6.2535,16.52A15.1371,15.1371,0,0,1,8.6793,20.959c-.2583-.2028-.4882-.3829-.7177-.5635C7.548,20.07,7.13,19.75,6.7233,19.4163a4.7554,4.7554,0,0,1-.4967-.4929c-.0318-.0351-.0146-.125-.0036-.1867a3.7774,3.7774,0,0,0,.0379-1.7017A.6278.6278,0,0,1,6.2535,16.52Z"/><path class="cls-1" d="M25.5418,10.9526c.0053.6352.066.5647.5443.5874a2.4076,2.4076,0,0,1,.8005.1548,2.98,2.98,0,0,1,.5926.4366l-.03.0869a2.9878,2.9878,0,0,1-.7656-.0115,5.7628,5.7628,0,0,0-1.4128-.1252,6.0169,6.0169,0,0,0-1.6179.177,4.7176,4.7176,0,0,1-.6132.0136,2.8177,2.8177,0,0,0-.4111.1242,2.5237,2.5237,0,0,1-.28.041c.1106-.3322.3808-.3719.5791-.4356.46-.1476.9419-.2242,1.4132-.3373a.2806.2806,0,0,0,.1515-.1169c.0853-.1345.123-.3518.2388-.4033A4.2219,4.2219,0,0,1,25.5418,10.9526Z"/><path class="cls-1" d="M29.1332,16.8179a1.4,1.4,0,0,1-1.0866.0176l-.0545.5374-.0746.0173a1.4045,1.4045,0,0,0-1.3544-1.0544c.0419.0845.0618.1289.0853.1712.1318.2373.2761.4687.3906.714a.372.372,0,0,1-.0011.3057c-.0309.05-.1831.0244-.2513.03-.0816.0961-.1492.2525-.2415.2687-.1991.0349-.2749-.1549-.3144-.31a1.4255,1.4255,0,0,1-.0167-.4324.7549.7549,0,0,0-.1487-.64c-.1021.2142-.0592.4942-.3363.6416a1.8417,1.8417,0,0,0-.1756-1.2746l.0316-.059c.2564.08.5142.1559.7687.2414a7.9819,7.9819,0,0,0,.9772.3308.9563.9563,0,0,0,.9864-.5145,2.6184,2.6184,0,0,1,.1958-.3122c.0288.392-.2663.5728-.5607.8217.2222.0244.4014.0319.5754.066A.6829.6829,0,0,1,29.1332,16.8179Z"/><path class="cls-1" d="M39.84,28.2592,39.3077,27.14l.6171-.3406-.0318-.064-.6.2858-.8157-.82a.6732.6732,0,0,0,.688-.2248c.0355-.0428.1732-.0048.2629.0033a.3548.3548,0,0,1,.123.0422c.0048.0025-.0252.0542-.0179.076a.1949.1949,0,0,0,.0619.07c.3007.2643.6114.5183.9.795.228.2184.4292.4646.6675.726A1.5949,1.5949,0,0,0,39.84,28.2592Z"/><path class="cls-1" d="M8.2791,27.6746c.41-.43.7963-.8286,1.1734-1.2356.1264-.1365.3784-.1591.38-.4133,0-.0146.0574-.0341.09-.0421a1.5171,1.5171,0,0,1,.461-.059l-.1354.0466a.8375.8375,0,0,0,.7659.2c-.267.2728-.5044.5336-.7661.7672-.0513.0458-.2022.004-.2969-.028-.17-.0575-.3324-.1381-.498-.2091l-.0323.0627.6462.3667L9.5254,28.287A1.3742,1.3742,0,0,0,8.2791,27.6746Z"/><path class="cls-1" d="M21.9354,16.6413l-.0842-.1419-.1346.2132c.0048.0321.0547.1365.0261.21a1.2881,1.2881,0,0,0,.4106,1.6151c.0938.0755.1785.1622.2756.2513l-.253.2658-.3282-.3764-.1153.1248c-.4341-.3465-.9527-.6275-.9-1.3051a1.9367,1.9367,0,0,1,.4316-1.0292,2.3987,2.3987,0,0,1,1.6062-.7614c.45-.0891.91-.1274,1.3656-.1867a1.1894,1.1894,0,0,1,.1447-.0008l-.3929.6131a1.74,1.74,0,0,1-.0747-.2209c-.0373-.1931-.1862-.3006-.3446-.1994a.9216.9216,0,0,0-.4927.6372,3.65,3.65,0,0,1-.1572-.34c-.0594-.175-.2214-.2348-.3508-.1017-.1529.1571-.284.3355-.433.5147-.0226-.0476-.0511-.11-.081-.1707-.0767-.1568-.2507-.1956-.3443-.0533-.1224.1861-.3394.315-.3462.5789a.6308.6308,0,0,1-.1219.2592A1.0606,1.0606,0,0,0,21.48,18.466a.6134.6134,0,0,0,.2728.1451,1.7584,1.7584,0,0,0-.1339-.2318,1.2413,1.2413,0,0,1-.12-1.5179c.0148-.0257.0434-.0606.0359-.0793-.0949-.2351.15-.2962.2256-.4427.02-.0384.0879-.0935.1025-.0853a.2554.2554,0,0,1,.1062.12,1.3544,1.3544,0,0,1,.05.2229Z"/><path class="cls-1" d="M31.5927,21.266c-.6183.1171-.8234.25-1.0441.6509l-.2351-.2737c.1522-.08.2984-.1626.4492-.2354a3.47,3.47,0,0,1,.5834-.2609,1.5723,1.5723,0,0,1,1.5039.4011,11.26,11.26,0,0,1,.9287,1.0558l-.7087.4a4.189,4.189,0,0,1-.1821-.58.77.77,0,0,0-.7282-.7376c.0632.0595.1248.1207.19.1779a1.6036,1.6036,0,0,1,.2634.2309c.0667.0929.1194.2209-.0414.2974a.2524.2524,0,0,1-.367-.1163,4.069,4.069,0,0,0-.1863-.45.3443.3443,0,0,0-.6-.09,2.6655,2.6655,0,0,0-.1839.2232c-.0835.1009-.1721.1375-.2869.0382-.1117-.0966-.1522-.1919-.0116-.29C31.1525,21.5573,31.3736,21.413,31.5927,21.266Z"/><path class="cls-1" d="M17.0934,21.66a.8331.8331,0,0,0-.7465.6825c-.0379.2236-.0081.4851-.224.637l-.5937-.38a3.8525,3.8525,0,0,1,1.1529-1.2819,1.73,1.73,0,0,1,1.7946.07c.1726.0851.3956.11.4554.3548l-.212.17a1.261,1.261,0,0,0-1.1166-.64c.2154.1216.435.2365.6448.367.1708.1063.18.2145.0606.34-.085.09-.1544.0974-.2452.0056a1.9973,1.9973,0,0,0-.3356-.2943.3183.3183,0,0,0-.5123.1391c-.0808.1493-.1378.3114-.2172.4615-.0272.0514-.0888.1157-.1374.1181a1.0951,1.0951,0,0,1-.272-.0523c.0247-.095.0228-.2126.08-.28a3.005,3.005,0,0,1,.3548-.3042A.5481.5481,0,0,0,17.0934,21.66Z"/><path class="cls-1" d="M43.5488,22.7254c.1475-.3249.2805-.6128.4083-.9029.0323-.0732.0426-.156.0736-.23.0176-.0419.0512-.1.0869-.1078.387-.0837.7758-.1588,1.2123-.2458-.0594.1575-.088.2564-.1325.3476a1.46,1.46,0,0,0-.0158,1.0808,2.38,2.38,0,0,1,.0433.2508c-.0755-.0018-.1517.0022-.2264-.0063q-.5634-.0642-1.126-.1344C43.774,22.7653,43.6763,22.7462,43.5488,22.7254Z"/><path class="cls-1" d="M5.8969,22.7205c-.0937.0217-.17.0451-.2484.0566-.395.0581-.79.1164-1.1861.1663a.9165.9165,0,0,1-.231-.03,1.3239,1.3239,0,0,1,.0358-.18,1.6308,1.6308,0,0,0-.1408-1.4986c.3888.0744.7094.1515,1.0346.1921a.3465.3465,0,0,1,.3128.2747C5.5977,22.0332,5.7441,22.3565,5.8969,22.7205Z"/><path class="cls-1" d="M26.4215,6.6862c.0556.3008.0954.6173.1778.9222a1.7571,1.7571,0,0,0,.2518.4861c.0781.1183.0862.1861-.0467.2658-.3288.1972-.651.4054-.9747.611-.2161.1373-.3252.1069-.3913-.14a1.0134,1.0134,0,0,1,.1251-.9269C25.8624,7.5027,26.1415,7.0859,26.4215,6.6862Z"/><path class="cls-1" d="M15.3509,41.1373a2.2367,2.2367,0,0,0-.3748-.4811,2.149,2.149,0,0,0-.5686-.1968c.2433-.3542.4715-.694.7082-1.0277a2.8773,2.8773,0,0,1,.3637-.4476.3634.3634,0,0,1,.4589-.0749.2226.2226,0,0,1,.1229.31c-.1911.5329-.38,1.0667-.5721,1.5992C15.4523,40.9208,15.4029,41.0183,15.3509,41.1373Z"/><path class="cls-1" d="M33.7928,41.1305c-.1839-.4788-.3486-.8953-.5032-1.3156a4.2032,4.2032,0,0,1-.1757-.5892c-.0226-.1081-.0463-.2717.1219-.2885.1435-.0143.36-.0238.4289.06.3917.4748.7488.9781,1.1561,1.5233A1.4262,1.4262,0,0,0,33.7928,41.1305Z"/><path class="cls-1" d="M14.7949,10.6023c-.9061.159-1.0222.3382-.9,1.3192-.1772.034-.1772.034-.6507-.293l-.0285.2643h-.29a.5205.5205,0,0,1,.2588.5306.4882.4882,0,0,0,.44.5181.5762.5762,0,0,1,.1216.058.6581.6581,0,0,1-.8936-.3295,2.9521,2.9521,0,0,1-.1062-.3311,1.5453,1.5453,0,0,1,.6218-1.601,1.5087,1.5087,0,0,1,1.3212-.192A.668.668,0,0,1,14.7949,10.6023Z"/><path class="cls-1" d="M45.8091,20.5853l-1.5976.3155c.0191-.1672.05-.3437.0575-.5211.02-.4952.4265-.6408.7605-.8493.1807-.1129.3721-.2089.5434-.304Z"/><path class="cls-1" d="M35.68,11.4027l-.4794.3008a2.9,2.9,0,0,0-.1582-.51.5992.5992,0,0,0-.5608-.2871c-.2219-.0072-.4433-.0266-.665-.0407l-.0035-.0575a2.2005,2.2005,0,0,1,.5056-.0806,7.133,7.133,0,0,1,1.0806.142,1.3516,1.3516,0,0,1,.8363,1.7724.9182.9182,0,0,1-1.2012.3515c.4831.073.8431-.0511.9578-.5544l-.5743.1843-.05-.06A2.017,2.017,0,0,0,35.68,11.4027Z"/><path class="cls-1" d="M35.7219,23.6409a3.3976,3.3976,0,0,1-.8775.3824c-.2095.0251-.4461-.1526-.6667-.249-.2294-.1-.4586-.2031-.6784-.3223a.3857.3857,0,0,1-.1648-.2049c-.0149-.0457.0477-.1276.0915-.18a.704.704,0,0,1,.823-.1746A6.2915,6.2915,0,0,1,35.7219,23.6409Z"/><path class="cls-1" d="M13.6,23.6339a4.6935,4.6935,0,0,1,1.5486-.8.7341.7341,0,0,1,.7148.2157.3008.3008,0,0,1-.0732.3929c-.2824.1418-.5675.2784-.8476.4245a.7559.7559,0,0,1-.8548.0041A3.5034,3.5034,0,0,0,13.6,23.6339Z"/><path class="cls-1" d="M23.7633,15.8031a1.3671,1.3671,0,0,1,.0284.2492.8711.8711,0,0,1-.0616.1979l-.1485-.1473-.0757.1349a.3049.3049,0,0,1,.1324.4142,1.7235,1.7235,0,0,0,.0747,1.4833,2.2341,2.2341,0,0,0,.337.3722l-.1705.3313c-.1486-.0828-.3947.0018-.4322-.2992-.0113-.0909-.1537-.1588-.2137-.2517a1.7081,1.7081,0,0,1-.2027-1.3591,3.9272,3.9272,0,0,1,.1946-.4855c.0185-.049.0045-.11.0214-.16a.9684.9684,0,0,1,.0985-.2089c.0255-.04.0969-.061.1059-.1C23.4921,15.7968,23.607,15.7742,23.7633,15.8031Z"/><path class="cls-1" d="M24.4005,18.5883a1.095,1.095,0,0,1,.0968.131c.003.0052-.0516.043-.0795.0657-.0336-.0424-.0861-.08-.0978-.1279a8.5622,8.5622,0,0,1-.3-1.3525,3.8411,3.8411,0,0,1,.1872-.9715,2.0881,2.0881,0,0,1,.0229-.2761,2.1168,2.1168,0,0,1,.1828-.3483.1583.1583,0,0,1,.0892.0351c.06.0683.1119.144.1729.2246a.6779.6779,0,0,0-.1057.2528c.0005.0848.0866.1658.1189.2543a2.3669,2.3669,0,0,1-.0446,1.3982c-.0454.1921-.21.3947.0337.5743.014.01.0062.0811-.0133.0974s-.0682.0065-.1031.0017c-.0538-.0074-.1069-.02-.16-.0306Z"/><path class="cls-1" d="M26.9533,8.78c.01.4774-.1088.9032.2269,1.31-.486.1119-.93.2351-1.3813.3094-.2439.04-.2045-.2235-.1988-.3393a.7119.7119,0,0,1,.3415-.6325C26.2718,9.2355,26.5863,9.0165,26.9533,8.78Z"/><path class="cls-1" d="M38.2826,27.3392l.5757-.1542-.0145-.0674a2.0771,2.0771,0,0,0-.4084.0743.2194.2194,0,0,1-.2914-.0853c-.1382-.192-.2772-.3847-.396-.5888-.0525-.09-.0274-.1818.1072-.22a2.4513,2.4513,0,0,0,.3548-.1637,7.5586,7.5586,0,0,1,1.294,1.7611l-.9212.1864Z"/><path class="cls-1" d="M44.4019,18.5678a.3983.3983,0,0,1,.05-.1355q.6168-.67,1.2406-1.3334c.0477-.051.1046-.0935.1642-.1462l-.1279,1.429-1.2484.8886c0-.242.004-.4278-.0038-.613-.0014-.0328-.0527-.0634-.0808-.0949Z"/><path class="cls-1" d="M36.1859,22.84c-.2641.56-.5518.5315-1.0438.2683-.2608-.14-.5159-.29-.781-.4211a.2465.2465,0,0,1-.0718-.397.6479.6479,0,0,1,.86-.1487c.3319.19.636.4289.9525.6461C36.1258,22.8038,36.1515,22.8183,36.1859,22.84Z"/><path class="cls-1" d="M11.6854,26.4238a5.2,5.2,0,0,1-.4142.6666c-.0628.0759-.243.0686-.3706.0726a1.737,1.737,0,0,1-.3263-.05l-.0158.0571.5341.1608-.2779.7365-.8961-.165a3.459,3.459,0,0,1,.6209-1.0521c.1168-.1346.2442-.26.37-.3869C11.2008,26.17,11.3273,26.1625,11.6854,26.4238Z"/><path class="cls-1" d="M24.1574,21.8921c.1224-.0365.2506-.1212.3355-.09.1389.0516.1737.1841.1268.3559a1.0828,1.0828,0,0,1-1.157.8894c-.2158-.0016-.4315-.0262-.6471-.0434a.6738.6738,0,0,1-.5735-.4258.5374.5374,0,0,1,.0345-.3707c.0879-.221.0435-.36-.1854-.4286a1.5211,1.5211,0,0,1,1.0355-1.4217c-.088.1146-.1291.2167-.2036.2566a1.6278,1.6278,0,0,0-.5347.6617.3294.3294,0,0,0,.08.4869.375.375,0,0,1,.0869.26c.005.1322-.0834.3145-.0239.388a1.0793,1.0793,0,0,0,.4642.3153,1.4266,1.4266,0,0,0,.99-.0407c.3211-.1195.4283-.3513.2427-.6377A1.5654,1.5654,0,0,1,24.1574,21.8921Z"/><path class="cls-1" d="M22.3072,16.3449c.105-.126.1812-.2288.27-.319a.2406.2406,0,0,1,.1641-.0841c.0371.0057.0648.0963.09.152.0294.0651.0516.1334.0729.19a1.9029,1.9029,0,0,0-.3326,1.5287,1.8736,1.8736,0,0,0,.3906.7016c.1909.2267.216.2807-.0379.509l-.3542-.205.0517-.0294a2.5478,2.5478,0,0,0-.18-.3549,1.4537,1.4537,0,0,1-.426-1.0586,1.6677,1.6677,0,0,1,.215-.5883A.47.47,0,0,0,22.3072,16.3449Z"/><path class="cls-1" d="M13.7326,23.2762a.54.54,0,0,1-.5514-.4056.194.194,0,0,1,.0718-.1493c.2483-.1718.4954-.3481.7589-.494a2.016,2.016,0,0,1,.5166-.1744c.1579-.037.5068.2329.5032.3935a.3194.3194,0,0,1-.1246.2329c-.3219.1924-.654.3682-.9864.5423A.7058.7058,0,0,1,13.7326,23.2762Z"/><path class="cls-1" d="M33.3389,26.902a2.1436,2.1436,0,0,0,1.0859-.5368,1.6206,1.6206,0,0,1,1.0118-.1551c.0783,0,.1562.1343.2264.1994-.0206.0444-.0247.0668-.0326.0682a2.8234,2.8234,0,0,0-1.0726.64,1.2038,1.2038,0,0,1-.79.2393C33.4929,27.3407,33.367,27.229,33.3389,26.902Z"/><path class="cls-1" d="M26.9428,12.4018c-.13.2885-.2336.3138-.6287.2093a1.7467,1.7467,0,0,0-.5749-.0836c-.382.0321-.3887.059-.4334.46a6.1522,6.1522,0,0,1-.7252-.0585c-.0829-.0156-.1676-.1355-.21-.227a.3448.3448,0,0,0-.4307-.2224,1.7714,1.7714,0,0,1-.313.0032C23.9257,12.1564,26.2052,12.1061,26.9428,12.4018Z"/><path class="cls-1" d="M12.7536,10.922l-.407-.2642.0188-.0528h.8729a7.3885,7.3885,0,0,0-.6314,1.0824,1.2662,1.2662,0,0,0,.2128,1.2571.254.254,0,0,1-.39-.1329c-.059-.1308-.1038-.2679-.1549-.4022l-.0622.0085-.0458.3372c-.3259-.1574-.2823-.5626.1235-1.121-.2333.015-.5052.1617-.6143-.178Z"/><path class="cls-1" d="M13.6619,26.3887c.1057-.2264.3316-.2741.73-.2142a2.2741,2.2741,0,0,1,.8017.3938c.2149.124.4465.2191.7016.3418.1043.2808-.3165.5644-.6783.411a6.7065,6.7065,0,0,1-.82-.491C14.1538,26.6825,13.9094,26.5372,13.6619,26.3887Z"/><path class="cls-1" d="M2.8168,25.091,3.27,26.3261l-.0338.0194L3.053,26.191c-.0568.19.038.2382.4628.7993.1965.26.4012.5131.5879.7511-.1445.0974-.2142.0953-.5028-.2056-.2512-.2617-.4729-.5517-.7252-.85.0015.205.1406.4722-.1538.5605a3.6129,3.6129,0,0,0-.1155-.6609,1.81,1.81,0,0,1,.0566-1.2184c.0282-.0892.0547-.1789.082-.2684Z"/><path class="cls-1" d="M46.76,25.2834A2.0062,2.0062,0,0,1,46.8769,26.9a1.9792,1.9792,0,0,0-.0575.5536.5308.5308,0,0,1-.2213-.6073c-.3561.3932-.5917.8839-1.1251,1.0474-.0492.015-.1167-.03-.2365-.0641a4.7359,4.7359,0,0,0,1.293-1.4913l-.208-.0527.3644-1.0226Z"/><path class="cls-1" d="M34.5439,24.21a5.2682,5.2682,0,0,1-.97.4108,1.3628,1.3628,0,0,1-.76-.1072c-.1663-.0711-.0958-.3-.0246-.4537a.56.56,0,0,1,.8164-.3361C33.9089,23.8446,34.1886,24.0231,34.5439,24.21Z"/><path class="cls-1" d="M19.6568,20.0925l1.1326-1.8611a.9448.9448,0,0,1,.4933.9314,1.6271,1.6271,0,0,1-.1306.48c-.3693-.0718-.3923-.3234-.4333-.6338C20.4505,19.4932,20.2946,20.03,19.6568,20.0925Z"/><path class="cls-1" d="M20.0808,16.09a.5769.5769,0,0,1-.1786-.8713,1.0573,1.0573,0,0,0,1.2334,1.0421l-.3265.4367-.1154-.1313c-.2553.3017-.4272.7272-.9474.639.0544-.4207.4727-.4509.705-.7588a4.5436,4.5436,0,0,1-.5429.1248,1.2268,1.2268,0,0,1-.4681-.0288c-.0678-.02-.0991-.1617-.1469-.2482a.8462.8462,0,0,1,.2585-.1335,4.31,4.31,0,0,1,.5273-.0063Z"/><path class="cls-1" d="M36.03,27.0313c-.3393.2964-.6579.5841-.9869.8593a.4844.4844,0,0,1-.7558-.1288c-.052-.0939-.0672-.161.0475-.24.28-.1925.5471-.4046.8177-.611A.5683.5683,0,0,1,36.03,27.0313Z"/><path class="cls-1" d="M13.2473,26.9924a.5542.5542,0,0,1,.8466-.1542c.2269.1462.42.3446.6323.5141.0964.0769.2035.14.3148.216a2.3031,2.3031,0,0,1-.1275.2009.4178.4178,0,0,1-.67.0822c-.1344-.1056-.2576-.2254-.3872-.3372C13.6558,27.341,13.4539,27.1692,13.2473,26.9924Z"/><path class="cls-1" d="M14.7927,24.2182a2.4351,2.4351,0,0,1,1.0488-.5469.6412.6412,0,0,1,.6832.6865c.0005.048-.08.1246-.136.141a1.3037,1.3037,0,0,1-1.2327-.115A1.9693,1.9693,0,0,0,14.7927,24.2182Z"/><path class="cls-1" d="M24.8455,21.6039a1.3693,1.3693,0,0,1,.2257.2183.35.35,0,0,0,.5375.13,9.8169,9.8169,0,0,0,.8865-.7077,3.1589,3.1589,0,0,1,1.1394-.7179.534.534,0,0,1,.7323.5075,1.2234,1.2234,0,0,1-.3247.7117.3242.3242,0,0,1-.2672.0583c.071-.1225.1489-.2417.2111-.3685a1.32,1.32,0,0,0,.1672-.4262.3459.3459,0,0,0-.1862-.2516.6543.6543,0,0,0-.6876.0913c-.3077.2339-.5892.502-.89.7448a5.4155,5.4155,0,0,1-.7856.5771.9916.9916,0,0,1-.57.0567C24.7449,22.188,24.65,21.8906,24.8455,21.6039Z"/><path class="cls-1" d="M36.6875,27.6479c-.3179.2732-.6184.5391-.9275.7945a.5355.5355,0,0,1-.6737.0052c-.1119-.07-.1879-.16-.0316-.29.2441-.2024.4563-.4457.71-.6334C36.147,27.2423,36.3667,27.2842,36.6875,27.6479Z"/><path class="cls-1" d="M43.6652,38.356c-.3509-.031-.6424-.064-.9348-.08-.153-.0082-.2575-.0535-.2889-.2142-.055-.2809-.1117-.5614-.1676-.8421l.0592-.062a4.2822,4.2822,0,0,1,.4794.1565c.3363.1536.6955.2934.8161.6959A1.6445,1.6445,0,0,1,43.6652,38.356Z"/><path class="cls-1" d="M19.9067,18.8561h-.5084c.4771-.3086.6791-.9159,1.2861-1.0817.03.1881.1807.3089-.0363.5371a6.0445,6.0445,0,0,0-.6255,1.0141,4.8094,4.8094,0,0,1-.5512.7355A3.1029,3.1029,0,0,1,19.9067,18.8561Z"/><path class="cls-1" d="M12.6545,27.5886c.3053-.4327.6-.3623,1.041-.0117a4.27,4.27,0,0,1,.5262.5445.2019.2019,0,0,1-.1278.3549.7507.7507,0,0,1-.6847-.1837C13.1635,28.0532,12.9078,27.8241,12.6545,27.5886Z"/><path class="cls-1" d="M5.7637,38.3727c-.07-.5924.5946-1.2433,1.3126-1.2791a7.7857,7.7857,0,0,1-.1337.9376c-.02.08-.2264.1591-.3455.1568a1.2037,1.2037,0,0,0-.6956.1369A.7231.7231,0,0,1,5.7637,38.3727Z"/><path class="cls-1" d="M36.9033,12.68l-.23-.4239-.2745.4931a3.5675,3.5675,0,0,0,.0023-.973,3.2684,3.2684,0,0,0-.4809-.8018l.9549-.1051c-.0054.1061-.0054.1061-.2723.1617l.7415.75-.4973-.0685.1589.9344Z"/><path class="cls-1" d="M27.1632,10.6042c-.0269.2808-.0591.5157-.0687.7514-.0061.1514-.0631.2041-.2088.1792-.3495-.06-.7-.1123-1.0486-.1775-.0679-.0127-.1807-.07-.18-.106.0012-.09.03-.2256.0927-.26a2.5785,2.5785,0,0,1,.59-.2329C26.6085,10.69,26.8858,10.6545,27.1632,10.6042Z"/><path class="cls-1" d="M11.9948,28.05c.345-.4109.63-.1983,1.01.0983.1821.1424.3453.3087.5215.459.1418.121.0173.1814-.0578.232a.7734.7734,0,0,1-.99-.1745A7.4585,7.4585,0,0,1,11.9948,28.05Z"/><path class="cls-1" d="M37.3691,28.165c-.2594.2389-.5063.4655-.7523.6932a.6126.6126,0,0,1-.7773.0655c-.15-.1055-.1448-.2.0011-.3135.2459-.1919.4777-.4026.73-.5854A.5158.5158,0,0,1,37.3691,28.165Z"/><path class="cls-1" d="M24.6363,10.0406c-.2231-.1671-.0685-.3124.0023-.4533.0805-.16.1734-.3108-.1324-.3448a1.8339,1.8339,0,0,1,.74-.8479c.0278.1309.05.2491.0786.3654a2.56,2.56,0,0,0,.0931.3176c.1627.4154.1654.4159-.2056.64-.1768.1071-.357.2086-.5361.3119A.1531.1531,0,0,1,24.6363,10.0406Z"/><path class="cls-1" d="M36.8382,22.3292c-.3068.3354-.3444.4364-.8562.1236-.2079-.127-.4117-.2617-.6081-.4056a.2234.2234,0,0,1-.0817-.1811.2985.2985,0,0,1,.138-.1778.744.744,0,0,1,.8955.15C36.5025,21.99,36.6636,22.1607,36.8382,22.3292Z"/><path class="cls-1" d="M25.4726,9.7162c.0423.3224.091.6078.1087.8952a.2655.2655,0,0,1-.16.1931c-.2607.0753-.53.1222-.8083.1826a2.0914,2.0914,0,0,1-.0648-.2671.5718.5718,0,0,1,.3153-.6634C25.0736,9.9567,25.2712,9.83,25.4726,9.7162Z"/><path class="cls-1" d="M12.4822,22.3108c.2574-.2121.4952-.4257.7516-.614a.5439.5439,0,0,1,.7133.0493c.1032.0971.0962.1841-.0142.2661-.1843.1368-.3727.2683-.554.409A.5539.5539,0,0,1,12.4822,22.3108Z"/><path class="cls-1" d="M44.4648,18.1172a1.4193,1.4193,0,0,1,.2074-.4392,9.1709,9.1709,0,0,0,1.4918-2.0747,2.6683,2.6683,0,0,1,.3874-.4873,1.0575,1.0575,0,0,1,.3033-.1393,19.0869,19.0869,0,0,1-2.2976,3.2015Z"/><path class="cls-1" d="M2.76,15.0916c.2145-.0337.3641.0771.498.343a9.0209,9.0209,0,0,0,1.3072,1.92.9785.9785,0,0,1,.3692.8438A20.3576,20.3576,0,0,1,2.76,15.0916Z"/><path class="cls-1" d="M26.8673,5.3984a9.1545,9.1545,0,0,1-2,3.06,1.5938,1.5938,0,0,1,.4091-.8009c.2519-.3479.5328-.6774.7564-1.0423a5.2866,5.2866,0,0,0,.4132-.923C26.5325,5.4613,26.6015,5.3775,26.8673,5.3984Z"/><path class="cls-1" d="M23.6132,14.6688c.13-.274.2548-.5316.3738-.792.0486-.1065.1035-.1548.2239-.092.0767.04.171.0454.2494.0829.3552.17.3914.4472.0987.7224A1.2926,1.2926,0,0,1,23.6132,14.6688Z"/><path class="cls-1" d="M37.9654,28.5208c-.2076.2336-.3991.4679-.6115.6814a.6485.6485,0,0,1-.5755.2282.3879.3879,0,0,1-.2134-.1814c-.0153-.0248.0753-.1266.13-.1809a7.3674,7.3674,0,0,1,.5833-.5587C37.5429,28.2975,37.7693,28.2472,37.9654,28.5208Z"/><path class="cls-1" d="M11.2829,28.5019c.2846-.23.4664-.2921.6988-.0751.2369.2212.4867.4286.7246.6489.031.0287.05.1268.0309.1433a.5394.5394,0,0,1-.2612.1635.5048.5048,0,0,1-.33-.1022C11.8484,29.0324,11.5689,28.7633,11.2829,28.5019Z"/><path class="cls-1" d="M38.4517,15.8939a2.0072,2.0072,0,0,1,.1051,1.89c-.4194-.0654-.4811-.1884-.37-.6213C38.2936,16.7472,38.3637,16.3229,38.4517,15.8939Z"/><path class="cls-1" d="M10.8309,17.7869c-.0684-.2811-.1412-.5539-.1986-.83a.62.62,0,0,1,.0048-.2949c.0738-.2426.1685-.4789.2754-.7743.0414.1893.0711.33.1028.47a8.305,8.305,0,0,1,.2077.947C11.2609,17.6651,11.3011,17.8483,10.8309,17.7869Z"/><path class="cls-1" d="M24.1838,13.5331a.4345.4345,0,0,1,.5492-.483c.1071.0259.216.0446.3242.0663.2328.0466.2627.1164.1439.3337a2.2731,2.2731,0,0,1-.205.3617.251.251,0,0,1-.2223.0545,3.4823,3.4823,0,0,1-.5034-.227C24.2231,13.6146,24.1968,13.55,24.1838,13.5331Z"/><path class="cls-1" d="M25.18,13.8228c.19-.528.1895-.5277.68-.3447.1639.0612.3286.12.4962.1817l-.4038.6284Z"/><path class="cls-1" d="M9.5821,16.1419c.07.2682.1437.5151.1973.7662a.3254.3254,0,0,1-.2441.4323c.12.0821.2085.1427.2971.2029A.1577.1577,0,0,1,9.86,17.81a.53.53,0,0,1-.3268.1448c-.0992-.005-.1121-.1187-.0942-.2479a.8644.8644,0,0,0-.1072-.4617c-.0965-.1981-.071-.3258.1412-.4294C9.4583,16.5931,9.2029,16.341,9.5821,16.1419Z"/><path class="cls-1" d="M37.9548,24.7829c.0079-.1884.0115-.3819.2577-.4255.2-.0354.6175.1574.65.3136.0307.1485.027.3155-.1529.3751a1.5646,1.5646,0,0,1-.5547.1216C37.944,25.1553,37.9628,24.9457,37.9548,24.7829Z"/><path class="cls-1" d="M11.37,24.7545c0,.38,0,.38-.2917.38-.32-.0008-.5716-.148-.5773-.3376-.0073-.2419.2844-.4527.6378-.461C11.3064,24.3315,11.37,24.4458,11.37,24.7545Z"/><path class="cls-1" d="M38.6535,23.5554a1.105,1.105,0,0,1,.01.26c-.1087.4163.1346.632.5755.7221.1756.0359.3621.0538.358.305-.0037.229-.1529.3033-.3428.3376-.119.0214-.2389.0376-.3906.0612.3288-.4554.1611-.8156-.4025-.9643-.2858-.0755-.2891-.0777-.1239-.316C38.4239,23.8356,38.5242,23.72,38.6535,23.5554Z"/><path class="cls-1" d="M37.4606,21.8886a.51.51,0,0,1-.7867.0354,3.44,3.44,0,0,1-.3274-.2916.9074.9074,0,0,1-.1057-.2727c.0882-.0283.1923-.1012.2616-.0764a3.1764,3.1764,0,0,1,.59.2865A2.944,2.944,0,0,1,37.4606,21.8886Z"/><path class="cls-1" d="M9.0977,33.2009c.0324-.2372.0661-.4742.0966-.7116.0293-.2278.0589-.4556.0818-.684a6.2267,6.2267,0,0,1,.2731-1.6842A4.1375,4.1375,0,0,1,10.3,28.9766a.1376.1376,0,0,1,.0538-.0372.0355.0355,0,0,1,.0262.0053,6.6351,6.6351,0,0,0-.5063.79,4.1781,4.1781,0,0,0-.3507,1.037c-.0774.4493-.05.9156-.1091,1.3693-.0475.3665-.1554.7253-.2366,1.0875Z"/><path class="cls-1" d="M11.8965,21.9853a1.728,1.728,0,0,1,.8683-.6745c.097-.0339.2306.037.3475.06a.9186.9186,0,0,1-.1267.2572c-.1944.1976-.3629.4522-.6906.4337A3.276,3.276,0,0,1,11.8965,21.9853Z"/><path class="cls-1" d="M14.7048,16.116a.6281.6281,0,0,1-.3182.7246c-.1.0544-.2269.1755-.3492.016l.1769-.3523-.6737.2885-.0357-.0669a6.5105,6.5105,0,0,1,.707-.5554A1.2626,1.2626,0,0,1,14.7048,16.116Z"/><path class="cls-1" d="M23.1076,15.0293c.54-.2825.95-.2622,1.2129.3565-.2358.0182-.4582.0271-.6784.0544C23.3256,15.4794,23.3154,15.162,23.1076,15.0293Z"/><path class="cls-1" d="M39.51,29.7321a1.93,1.93,0,0,1,.4065.9825c.0961.8434.2072,1.6852.3109,2.5278a.3633.3633,0,0,1-.0166.1567,2.536,2.536,0,0,1-.3034-1.0475c-.0526-.64-.0741-1.2823-.1475-1.9193A3.2053,3.2053,0,0,0,39.51,29.7321Z"/><path class="cls-1" d="M25.5438,12.6374c.3143.04.6307.0688.9421.1252a.3452.3452,0,0,1,.2306.4174c-.0106.03-.106.0567-.1513.0445-.3321-.09-.6645-.1812-.9887-.2948-.0564-.02-.075-.1471-.111-.2248Z"/><path class="cls-1" d="M24.2752,14.8667c.2752.0242.528.03.7735.076a.4854.4854,0,0,1,.2566.1957c.0441.06.03.1631.0414.2469-.0731.0034-.1463.0087-.22.01-.0973.0012-.1948-.0012-.2922-.002C24.5291,15.3905,24.3517,15.237,24.2752,14.8667Z"/><path class="cls-1" d="M12.0612,19.8739c-.0314-.29.0573-.397.4417-.45.3823-.0524.77-.0722,1.1555-.0923.06-.0031.1244.0679.1868.1047-.0644.0415-.1371.1278-.1919.1177a2.6185,2.6185,0,0,0-1.51.3186A.2647.2647,0,0,1,12.0612,19.8739Z"/><path class="cls-1" d="M23.9425,10.2206l.46-.2958.0832.0483-.1094.3414c.1812.2576.1247.484-.2.64-.1765.0848-.359.1571-.5461.2382-.0276-.2223.1-.3081.2453-.387.1355-.0735.2657-.1566.4311-.2551Z"/><path class="cls-1" d="M25.4571,14.9911a.81.81,0,0,1,.8048.233.322.322,0,0,1,.0454.2543c-.012.0457-.1234.0709-.194.0933a.3933.3933,0,0,1-.135.0021C25.5449,15.5515,25.52,15.469,25.4571,14.9911Z"/><path class="cls-1" d="M37.8862,30.0679l-.6744-.4733c.158-.1679.3005-.3259.4512-.4755a.6787.6787,0,0,1,.1667-.0913c.03.0637.0852.1274.0853.1911C37.9151,29.4843,37.8987,29.75,37.8862,30.0679Z"/><path class="cls-1" d="M37.3516,19.8471c-.2424-.0906-.4747-.18-.7092-.2643a1.598,1.598,0,0,0-.9191-.0834c-.0454.01-.1094-.0592-.1648-.0918.0495-.0421.1016-.1231.1482-.12.371.0243.7413.0614,1.1109.102a2.4135,2.4135,0,0,1,.3231.0729C37.3324,19.5106,37.4132,19.6252,37.3516,19.8471Z"/><path class="cls-1" d="M22.6144,14.8709c.1742-.3726.6739-.2625.8733-.597l-.1254-.1473.494-.3885C23.7368,14.604,23.0576,15.078,22.6144,14.8709Z"/><path class="cls-1" d="M11.3614,10.9068l.2185.8886c-.3893-.0366-.6815-.2626-.6718-.5435C10.9155,11.0358,11.104,10.899,11.3614,10.9068Z"/><path class="cls-1" d="M11.4782,28.9083c.1776.2028.3217.3726.4718.5368.0851.0932.06.1418-.04.2038-.15.0926-.2876.2043-.4411.3155A1.2451,1.2451,0,0,1,11.4782,28.9083Z"/><path class="cls-1" d="M10.5284,24.3761c-.2672.382-.2705.4381-.0279.7461a.444.444,0,0,1-.49-.0326.5721.5721,0,0,1-.2145-.4024c-.0068-.0674.1724-.1816.2863-.2263A2.273,2.273,0,0,1,10.5284,24.3761Z"/><path class="cls-1" d="M35.1623,16.37c-.2925.2449-.5726.031-.849.01l-.0642.0638.3129.1667c-.1647.2328-.32.1214-.4195.0523a.4178.4178,0,0,1-.1507-.3049c.0013-.1431.1355-.1631.269-.1595A1.7321,1.7321,0,0,1,35.1623,16.37Z"/><path class="cls-1" d="M22.8349,15.0669a.5143.5143,0,0,1,.2035.0662.9761.9761,0,0,1,.1542.2357.8663.8663,0,0,1-.2152.1128c-.1928.04-.3927.1782-.5824-.0034-.045-.0431-.1117-.1208-.0984-.1558a.3582.3582,0,0,1,.1627-.1968A1.6261,1.6261,0,0,1,22.8349,15.0669Z"/><path class="cls-1" d="M36.04,23.5355a1.355,1.355,0,0,1,.5153-.7209c.4557-.3564.9283-.6942,1.3587-1.079a5.1146,5.1146,0,0,0,.5836-.7488,1.2757,1.2757,0,0,1-.4122.728c-.38.343-.8018.6386-1.19.9723-.2748.236-.524.5019-.7835.7556A.807.807,0,0,0,36.04,23.5355Z"/><path class="cls-1" d="M24.9524,14.2c.2252.1323.4151.2393.5981.3571a.1382.1382,0,0,1,.0057.1264c-.0995.0632-.2125.16-.3139.1521a.89.89,0,0,1-.4006-.1692c-.0466-.0313-.0613-.1537-.0447-.2237A.9418.9418,0,0,1,24.9524,14.2Z"/><path class="cls-1" d="M12.1342,21.4208l-.1977-.2441c.1895-.1074.3578-.2276.6045-.0342-.32.164-.419.61-.8591.5421a.6115.6115,0,0,1-.2632-.1671c-.0206-.0178.0023-.1344.017-.1369a.9573.9573,0,0,1,.3121-.0178,2.47,2.47,0,0,1,.3582.1135Z"/><path class="cls-1" d="M3.2129,20.8a3.21,3.21,0,0,1,2.08.47Z"/><path class="cls-1" d="M46.2716,20.8206l-2.0531.4236-.0225-.03c.0844-.0658.1593-.1636.2548-.1922A4.4431,4.4431,0,0,1,46.2716,20.8206Z"/><path class="cls-1" d="M21.95,15.2942a.3789.3789,0,0,1,.3354.3288c.0062.1076-.2358.2184-.4576.2252-.1611.0049-.2155-.0948-.2215-.2192A.3374.3374,0,0,1,21.95,15.2942Z"/><path class="cls-1" d="M36.272,26.9419l2.6132,1.933-.0526.07A22.8534,22.8534,0,0,1,36.272,26.9419Z"/><path class="cls-1" d="M16.29,14.3575a.7426.7426,0,0,1-.624-.36.7644.7644,0,0,1-.0145-.2916c.0719.0111.1449.0174.2155.034C16.1751,13.812,16.19,14.0826,16.29,14.3575Z"/><path class="cls-1" d="M10.886,21.0087c.2112.6132.7368.9041,1.1939,1.2616.3219.2517.6331.5171.9466.7793a.2415.2415,0,0,1,.0863.1661c-.6323-.52-1.2723-1.03-1.8911-1.5658a2.0468,2.0468,0,0,1-.34-.5159C10.8641,21.1039,10.8838,21.051,10.886,21.0087Z"/><path class="cls-1" d="M20.1529,12.3056l-.7723-.5719C19.8772,11.508,20.1875,11.7916,20.1529,12.3056Z"/><path class="cls-1" d="M27.3709,8.3405l-1.639,1.01-.0466-.0756a9.8337,9.8337,0,0,1,1.6409-1.0154Z"/><path class="cls-1" d="M26.5109,15.2217c.312.1054.4285.227.3322.6546C26.4214,15.7586,26.3409,15.6037,26.5109,15.2217Z"/><path class="cls-1" d="M19.4673,14.7983c.1775-.4539.5535-.6277.8231-.3837A1.9714,1.9714,0,0,1,19.4673,14.7983Z"/><path class="cls-1" d="M26.1053,17.8955a5.72,5.72,0,0,1,.5817.218,1.8449,1.8449,0,0,1,.3286.283C26.55,18.4653,26.1337,18.1917,26.1053,17.8955Z"/><path class="cls-1" d="M11.195,24.1352l-.5356.17.1045-.7909Z"/><path class="cls-1" d="M17.3125,28.8585l.0247-.5275c.1073.0257.24.0214.3148.0852.0779.0665.1.1986.1461.302Z"/><path class="cls-1" d="M14.7232,40.686l-.3522.5787a.3089.3089,0,0,1-.1753-.4456C14.2827,40.6577,14.4738,40.6687,14.7232,40.686Z"/><path class="cls-1" d="M16.7717,18.0751a2.2782,2.2782,0,0,1-.1933-.4321c-.0377-.1674.108-.2542.2432-.2494.1517.0054.13.1564.1176.2631-.0144.1288-.0476.2555-.0726.3831Z"/><path class="cls-1" d="M37.6977,11.1807c.2963-.0248.3848.0227.403.2351.02.2323-.0631.3123-.3095.3325Z"/><path class="cls-1" d="M23.1584,11.59c.0414-.0879.0538-.1714.0909-.1843.368-.1282.74-.2448,1.1112-.3633.0111-.0036.0269.0078.0406.0123C24.3228,11.25,23.8291,11.4684,23.1584,11.59Z"/><path class="cls-1" d="M33.3841,24.8777l-.7281.4581C32.5678,25.0012,32.8924,24.78,33.3841,24.8777Z"/><path class="cls-1" d="M37.2247,21.4706a3.5392,3.5392,0,0,1,.3834-.1.9178.9178,0,0,1,.2889.0161c.0117.002.0308.1176.0074.14-.0818.0791-.2013.213-.2689.1937a1.5959,1.5959,0,0,1-.4049-.2551Z"/><path class="cls-1" d="M28.2127,19.6216c.8742-.1217.9463-.1141.9949.0966A1.1961,1.1961,0,0,1,28.2127,19.6216Z"/><path class="cls-1" d="M15.891,24.7739c.4331-.0147.7306.1942.7145.4981A1.1737,1.1737,0,0,1,15.891,24.7739Z"/><path class="cls-1" d="M41.3051,38.0585l-.5093-.486.4214-.2115.1321.6727Z"/><path class="cls-1" d="M31.8868,28.4721c.0256.2908-.1138.34-.2765.3248a.2321.2321,0,0,1-.1689-.14.31.31,0,0,1,.3139-.306C31.8219,28.3646,31.8722,28.4577,31.8868,28.4721Z"/><path class="cls-1" d="M34.5573,40.7437a1.3388,1.3388,0,0,1,.3717.1c.0591.0351.0844.1654.082.2516a.2394.2394,0,0,1-.1289.1567c-.026.0132-.109-.0492-.1429-.0947-.0787-.1056-.1433-.2218-.2136-.3336Z"/><path class="cls-1" d="M27.4222,10.3359l-1.4391.3237-.0172-.0763a5.6057,5.6057,0,0,1,1.4519-.33Z"/><path class="cls-1" d="M15.35,16.4341l.2386.6624c-.3859-.0456-.4535-.2194-.3139-.6462Z"/><path class="cls-1" d="M37.2306,21.4652q-.1958-.1452-.3911-.2907c-.0053-.004-.0067-.0131-.01-.02.093-.14.4389-.171.523-.0407.0192.03-.0025.0941-.02.1369-.03.0753-.0712.1463-.108.2194Z"/><path class="cls-1" d="M43.794,39.0708c-.2681-.3052-.42-.3932-.6288-.3478.0741-.0619.1686-.189.2186-.1734a1.0234,1.0234,0,0,1,.4019.2366C43.8345,38.8342,43.794,38.9731,43.794,39.0708Z"/><path class="cls-1" d="M40.2143,39.1329a.64.64,0,0,1,.7093-.3577,4.0979,4.0979,0,0,1-.4382.3805C40.4282,39.1936,40.313,39.1438,40.2143,39.1329Z"/><path class="cls-1" d="M8.3876,38.7021c.2766-.0828.4395.0725.6108.1822.0308.02.0152.1116.021.17-.0827,0-.1865.031-.2437-.0073A3.6653,3.6653,0,0,1,8.3876,38.7021Z"/><path class="cls-1" d="M15.0759,19.3826l.52-.1117.0271.0543-.5468.4879Z"/><path class="cls-1" d="M33.7219,19.1762l.4458.1429.1632.27c-.3143.1158-.4551-.1472-.6325-.34Z"/><path class="cls-1" d="M6.1746,38.5346l-.5063.4254c-.1287-.1407-.0608-.2875.0743-.3863C5.8572,38.49,6.0037,38.371,6.1746,38.5346Z"/><path class="cls-1" d="M23.942,13.7087a4.6053,4.6053,0,0,1-.0224-.5714c.0044-.0546.1078-.1013.1659-.1516.0347.0714.1136.157.0959.2114A4.3045,4.3045,0,0,1,23.942,13.7087Z"/><path class="cls-1" d="M38.0263,20.74l.342.1757-.2935.3906C37.7719,21.1021,38.0851,20.9518,38.0263,20.74Z"/><path class="cls-1" d="M11.4526,21.1662c-.2247.1441-.2912.1044-.4053-.2416C11.2673,20.7441,11.3119,20.7707,11.4526,21.1662Z"/><path class="cls-1" d="M25.5435,13.0273l1.193.4279-.0308.0884-1.1927-.4274Z"/><path class="cls-1" d="M36.3484,14.2075c.1433.057.2651.0687.297.1283.033.0618-.009.1749-.0409.2567a.52.52,0,0,1-.1887.23c0-.0924.0067-.1855-.0019-.2771C36.4058,14.4589,36.3817,14.374,36.3484,14.2075Z"/><path class="cls-1" d="M23.4756,11.641a1.974,1.974,0,0,1,.9532-.2783c-.1015.1771-.3715.2539-.9589.2725Z"/><path class="cls-1" d="M23.5841,12.6286c.177.01.3556.0094.53.0365.0459.0071.0786.0993.1174.1524-.0619.0134-.13.05-.1846.0358-.1546-.04-.3038-.1-.4551-.1522Z"/><path class="cls-1" d="M17.665,27.5583c-.3766.0347-.3932.0087-.3108-.48Z"/><path class="cls-1" d="M25.9639,14.5927l-.814-.5258A1.087,1.087,0,0,1,25.9639,14.5927Z"/><path class="cls-1" d="M31.8465,27.1083c.1577.3722.1112.47-.2673.51Z"/><path class="cls-1" d="M18.6607,20.0085l.67.2692a.7192.7192,0,0,1-.7033-.181Z"/><path class="cls-1" d="M16.4453,34.6072l.89-.0661A.9357.9357,0,0,1,16.4453,34.6072Z"/><path class="cls-1" d="M14.4322,15.8712a.7866.7866,0,0,1-.1161.0612,1.9073,1.9073,0,0,1-.2027.0415l.0787-.4438.05.0031Z"/><path class="cls-1" d="M28.1029,14.3423l.08-.5326C28.3807,14.04,28.344,14.2323,28.1029,14.3423Z"/><path class="cls-1" d="M31.8587,34.5336l.7756.0984-.0085.0776-.778-.0646Z"/><path class="cls-1" d="M14.1335,12.5549c-.0563.1822-.14.3023-.3753.2327l.0517-.2327Z"/><path class="cls-1" d="M17.7918,29.9088c-.1632.2035-.2889.2414-.5084.1358C17.4787,30.0187,17.5518,29.7245,17.7918,29.9088Z"/><path class="cls-1" d="M31.4775,29.8524l.43.2178C31.5833,30.1764,31.4981,30.1434,31.4775,29.8524Z"/><path class="cls-1" d="M23.47,11.6352l-.8323.3435-.0388-.1165q.438-.111.8764-.2216Z"/><path class="cls-1" d="M29.203,12.5132c-.12-.2129-.3442-.3975-.206-.7393Z"/><path class="cls-1" d="M31.7594,18.2112l.1473-.4905C32.0818,17.8551,32.038,18.0354,31.7594,18.2112Z"/><path class="cls-1" d="M12.1874,14.7939a1.65,1.65,0,0,1,.0069-.3376c.0087-.0354.0943-.052.1449-.0772.0157.0513.0584.1152.0416.1515A1.7407,1.7407,0,0,1,12.1874,14.7939Z"/><path class="cls-1" d="M18.8429,21.3487l.47.21c-.2631.1513-.3422-.0908-.5025-.1591Z"/><path class="cls-1" d="M32.525,22.6682l-.3949.3184-.05-.0609C32.2465,22.8831,32.1649,22.555,32.525,22.6682Z"/><path class="cls-1" d="M17.0576,22.9431l-.3465-.2721c.2875-.0941.3246.0869.3982.2164Z"/><path class="cls-1" d="M30.2737,21.9457l-.053.24-.07.02a.738.738,0,0,1-.1072-.2179c-.0036-.024.1143-.0661.1765-.1Z"/><path class="cls-1" d="M19.0652,21.88a1.6172,1.6172,0,0,1,.1327.2131c.0045.01-.0795.06-.1225.0919l-.1228-.2409Z"/><path class="cls-1" d="M16.3961,14.1155c.1437.09.2724.189.2552.3718l-.0646.0386-.2406-.3765Z"/><path class="cls-1" d="M26.8963,42.7858a1.5185,1.5185,0,0,1-.1232.39.5631.5631,0,0,1-.6519.2077.5725.5725,0,0,1-.3471-.5218.96.96,0,0,1,.009-.358.5387.5387,0,0,1,.6243-.43.5747.5747,0,0,1,.4571.5671c.0011.045,0,.09,0,.1352Z"/><path class="cls-1" d="M16.0137,37.4829c-.2081.2231-.4133.2563-.5916.1094-.115-.0948-.2259-.2036-.084-.3675Z"/><path class="cls-1" d="M15.41,36.9875c-.1272-.14-.3121-.1973-.213-.3875.018-.0348.16-.0481.2087-.0161C15.5863,36.7031,15.4231,36.8229,15.41,36.9875Z"/><path class="cls-1" d="M37.9983,40.1836c.1958-.3949.3524-.7207.5191-1.0413.0556-.1069.1408-.1247.263-.0652.36.1755.481.332.4529.6332-.0248.2666-.2687.61-.5184.6218A2.9935,2.9935,0,0,1,37.9983,40.1836Z"/></svg>
