<?xml version="1.0" encoding="utf-8"?>
<!-- Generator: Adobe Illustrator 27.1.0, SVG Export Plug-In . SVG Version: 6.00 Build 0)  -->
<svg version="1.1" id="Layer_1" xmlns="http://www.w3.org/2000/svg" xmlns:xlink="http://www.w3.org/1999/xlink" x="0px" y="0px"
	 viewBox="0 0 791.9 243.7" style="enable-background:new 0 0 791.9 243.7;" xml:space="preserve">
<style type="text/css">
	.st0{fill:#FFFFFF;}
	.st1{fill:#FFA900;}
	.st2{fill:#FF005C;}
</style>
<g>
	<path class="st0" d="M56.3,102.91H27.65V23.54c0-9.38-5.6-14.17-13.33-14.17C6.58,9.37,1,14.15,1,23.54v90.73
		c0,4.24,1.62,7.58,4.07,9.84v0.02c2.48,2.27,5.81,3.46,9.26,3.46H56.3c3.86,0,7.01-1.05,9.26-2.92c2.64-2.16,4.09-5.44,4.09-9.42
		C69.65,107.51,64.7,102.91,56.3,102.91z M144.75,98.44c-5.92,0-13.66,8.08-26.34,8.08c-16.48,0-20.61-8.9-20.61-14.33h46.47
		c8.23,0,12.49-2.14,12.49-11.19c0-22.42-16.29-43.63-41.64-43.63c-26.36,0-44.96,21.72-44.96,46.43c0,11.84,3.61,22.56,10.2,30.71
		c5.35,6.63,12.66,11.56,21.58,14c4.07,1.13,8.48,1.72,13.18,1.72c19.43,0,40.34-8.23,40.34-20.72
		C155.45,102.91,150.5,98.44,144.75,98.44z M114.44,59.09c10.05,0,16.64,9.72,16.64,15.49H97.8
		C97.8,68.81,104.39,59.09,114.44,59.09z M235.48,39c-6.23,0-10.2,4.28-12.01,8.25c-5.77-7.09-12.36-9.89-22.08-9.89
		c-22.39,0-39.67,20.57-39.67,46.43s17.27,46.43,39.67,46.43c9.72,0,16.31-2.79,22.08-9.86c1.81,3.95,5.77,8.23,12.01,8.23
		c7.58,0,12.84-5.94,12.84-13.35V52.35C248.32,44.94,243.05,39,235.48,39z M205.02,105.54c-11.38,0-17.63-9.86-17.63-21.72
		c0-11.88,6.25-21.76,17.63-21.76c11.38,0,17.63,9.89,17.63,21.74C222.65,95.67,216.4,105.54,205.02,105.54z M330.01,0.81
		c-7.56,0-12.82,5.94-12.82,13.35v30.45c-4.62-3.78-10.22-7.24-21.26-7.24c-22.39,0-39.67,20.57-39.67,46.43
		c0,22.81,13.45,41.54,32.03,45.59c2.46,0.57,5.02,0.84,7.64,0.84c6.28,0,11.23-1.15,15.53-3.9c2.35-1.47,4.51-3.44,6.55-5.96
		c1.8,3.95,5.75,8.23,12.01,8.23c1.09,0,2.12-0.13,3.11-0.38c5.88-1.36,9.74-6.63,9.74-12.97V14.15
		C342.85,6.75,337.58,0.81,330.01,0.81z M299.55,105.54c-11.38,0-17.63-9.89-17.63-21.74c0-11.86,6.25-21.74,17.63-21.74
		c11.35,0,17.63,9.89,17.63,21.74C317.18,95.65,310.91,105.54,299.55,105.54z M425.36,98.44c-5.92,0-13.64,8.08-26.34,8.08
		c-16.48,0-20.59-8.9-20.59-14.33h46.45c8.23,0,12.51-2.14,12.51-11.19c0-22.42-16.31-43.63-41.66-43.63
		c-26.36,0-44.96,21.72-44.96,46.43c0,25.86,17.29,46.43,44.96,46.43c19.43,0,40.34-8.23,40.34-20.72
		C436.06,102.91,431.13,98.44,425.36,98.44z M395.07,59.09c10.03,0,16.64,9.72,16.64,15.49h-33.29
		C378.43,68.81,385.02,59.09,395.07,59.09z M489.24,37.37c-7.24,0-13.5,4.76-17.78,9.89c-1.66-3.8-5.92-8.25-12.84-8.25
		c-7.56,0-12.82,5.94-12.82,13.35v62.9c0,7.41,5.27,13.33,12.82,13.33c7.58,0,12.84-5.92,12.84-13.33V83.96
		c0-13.18,3.61-16.14,14.82-19.43c9.38-2.79,16.14-4.93,16.14-13.83C502.42,42.63,495.83,37.37,489.24,37.37z M526.31,65.51
		c0-3.8,3.3-5.44,6.76-5.44c7.91,0,15.49,6.42,20.59,6.42c6.09,0,10.68-4.45,10.68-10.87c0-13.33-19.25-18.26-29.64-18.26
		c-20.59,0-33.08,14.48-33.08,29.13c0,13.83,7.07,18.78,20.23,24.22c14.33,5.92,19.94,6.42,19.94,11.69c0,2.64-1.97,5.12-7.26,5.12
		c-11.04,0-16.62-7.43-24.68-7.43c-5.77,0-10.54,5.12-10.54,12.36c0,11.35,18.09,17.76,34.23,17.76c17.63,0,32.93-10.68,32.93-28.8
		C566.48,73.26,526.31,75.57,526.31,65.51z M621.66,37.37c-9.89,0-16.48,3.13-21.74,6.42h-0.34V14.15c0-7.41-5.27-13.35-12.82-13.35
		c-7.58,0-12.84,5.94-12.84,13.35v101.08c0,7.41,5.27,13.35,12.84,13.35c7.56,0,12.82-5.94,12.82-13.35V74.56
		c0-8.88,5.27-15.47,14.19-15.47c8.9,0,14.17,6.59,14.17,15.47v40.67c0,7.41,5.27,13.35,12.82,13.35c7.58,0,12.84-5.94,12.84-13.35
		V67.65C653.6,46.58,639.46,37.37,621.66,37.37z M677.82,39c-7.58,0-12.84,5.94-12.84,13.35v62.9c0,7.41,5.27,13.33,12.84,13.33
		c7.56,0,12.82-5.92,12.82-13.33v-62.9C690.65,44.94,685.38,39,677.82,39z M677.82,0.81c-8.4,0-15.3,6.76-15.3,15.32
		c0.02,8.56,6.91,15.3,15.3,15.3s15.3-6.76,15.3-15.32C693.12,7.56,686.22,0.81,677.82,0.81z M748.47,37.37
		c-9.72,0-16.31,2.79-22.08,9.86c-1.8-3.95-5.77-8.23-12.01-8.23c-7.58,0-12.84,5.94-12.84,13.35v98.45c0,0.46,0.02,0.92,0.06,1.36
		c3.09,2.83,5.41,6.4,6.74,10.51c1.76,0.94,3.8,1.47,6.04,1.47c0.34,0,0.69-0.02,1.01-0.04c2.58-0.19,4.87-1.07,6.72-2.5
		c2.98-2.25,4.85-5.83,5.06-9.95c0.04-0.27,0.04-0.57,0.04-0.86v-27.83c4.62,3.8,10.22,7.24,21.26,7.24
		c22.39,0,39.67-20.57,39.67-46.4C788.13,57.94,770.86,37.37,748.47,37.37z M744.84,105.54c-11.38,0-17.63-9.86-17.63-21.72
		c0-11.88,6.25-21.76,17.63-21.76c11.38,0,17.63,9.89,17.63,21.74C762.47,95.67,756.21,105.54,744.84,105.54z"/>
	<path class="st1" d="M56.14,213.2H27.65v-21.91h25.19c8.42,0,13.35-4.76,13.35-12.34c0-7.58-4.93-12.34-13.35-12.34H27.65v-21.26
		h27.49c8.4,0,13.35-4.62,13.35-12.34c0-3.36-1.03-6.23-2.94-8.33c-2.29-2.54-5.83-4.01-10.41-4.01H14.33
		c-3.44,0-6.78,1.2-9.26,3.44v0.02C2.62,126.4,1,129.74,1,134v90.56c0,8.56,6.42,13.33,13.33,13.33h41.81
		c8.4,0,13.35-4.93,13.35-12.34C69.48,217.82,64.53,213.2,56.14,213.2z M89.09,111.12c-3.5,0-6.51,1.28-8.73,3.38
		c-2.58,2.41-4.09,5.96-4.09,9.95v101.1c0,7.41,5.25,13.35,12.82,13.35s12.84-5.94,12.84-13.35v-101.1
		C101.93,117.04,96.66,111.12,89.09,111.12z M184.44,208.75c-5.92,0-13.66,8.08-26.34,8.08c-16.48,0-20.61-8.9-20.61-14.36h46.47
		c8.23,0,12.49-2.12,12.49-11.17c0-22.42-16.29-43.63-41.64-43.63c-26.36,0-44.96,21.7-44.96,46.43c0,25.86,17.27,46.43,44.96,46.43
		c19.43,0,40.34-8.23,40.34-20.74C195.14,213.2,190.19,208.75,184.44,208.75z M154.13,169.38c10.05,0,16.64,9.74,16.64,15.51h-33.29
		C137.49,179.12,144.08,169.38,154.13,169.38z M264.63,211.4c-3.8,0-8.9,4.45-19.94,4.45c-11.35,0-17.61-9.89-17.61-21.74
		c0-11.86,6.09-21.74,19.1-21.74c10.05,0,11.86,4.28,18.45,4.28c4.13,0,7.64-2.5,9.36-6.36c0.76-1.68,1.18-3.59,1.18-5.67
		c0-3.23-1.05-5.88-2.85-8.04c-5.69-6.99-18.81-8.9-27.62-8.9c-26,0-43.28,20.57-43.28,46.43s17.27,46.43,43.28,46.43
		c10.22,0,30.47-4.93,30.47-17.78C275.17,217.34,270.55,211.4,264.63,211.4z M320.46,150.3h-7.09v-16.79c0-2.64-0.67-5.12-1.91-7.2
		c-2.16-3.71-6.07-6.15-10.91-6.15c-6.11,0-10.7,3.84-12.26,9.21c-0.38,1.3-0.59,2.69-0.59,4.13v16.79h-2.96
		c-6.04,0-10.49,1.97-12.42,6.28c-0.69,1.55-1.07,3.4-1.07,5.58c0,3.55,0.99,6.21,2.75,8.12c2.33,2.54,6.07,3.71,10.75,3.71h2.96
		v51.55c0,7.41,5.27,13.35,12.84,13.35c7.56,0,12.82-5.94,12.82-13.35V174h7.09c8.23,0,13.5-3.61,13.5-11.84
		C333.95,153.93,328.69,150.3,320.46,150.3z M348.29,149.32c-7.56,0-12.82,5.92-12.82,13.33v62.9c0,7.41,5.27,13.35,12.82,13.35
		c7.58,0,12.84-5.94,12.84-13.35v-62.9C361.13,155.24,355.87,149.32,348.29,149.32z M348.29,111.12c-1.91,0-3.74,0.36-5.44,1.01
		c-5.75,2.16-9.86,7.68-9.86,14.29c0,0.61,0.04,1.2,0.13,1.78c0.86,7.7,7.37,13.52,15.17,13.52c8.4,0,15.3-6.74,15.3-15.3
		S356.68,111.12,348.29,111.12z M412.34,147.68c-26.03,0-43.3,20.57-43.3,46.43s17.27,46.43,43.3,46.43
		c26.03,0,43.3-20.57,43.3-46.43S438.37,147.68,412.34,147.68z M412.34,215.85c-11.35,0-17.63-9.89-17.63-21.74
		c0-11.86,6.28-21.74,17.63-21.74c11.38,0,17.63,9.89,17.63,21.74C429.97,205.96,423.72,215.85,412.34,215.85z M511.83,147.68
		c-11.04,0-17.97,3.44-22.08,9.86c-1.66-3.78-5.94-8.23-12.84-8.23c-7.56,0-12.82,5.92-12.82,13.33v62.9
		c0,7.41,5.27,13.35,12.82,13.35c7.58,0,12.84-5.94,12.84-13.35v-40.67c0-8.9,5.27-15.49,14.17-15.49c8.9,0,14.17,6.59,14.17,15.49
		v40.67c0,7.41,5.27,13.35,12.84,13.35c7.56,0,12.82-5.94,12.82-13.35v-47.6C543.75,156.89,529.6,147.68,511.83,147.68z
		 M578.17,175.82c0-3.8,3.3-5.46,6.76-5.46c7.93,0,15.49,6.44,20.59,6.44c1.91,0,3.67-0.44,5.2-1.24c3.32-1.74,5.5-5.23,5.5-9.63
		c0-1.09-0.13-2.14-0.38-3.11c-2.73-11-19.73-15.15-29.26-15.15c-20.59,0-33.1,14.46-33.1,29.13c0,13.83,7.07,18.76,20.25,24.22
		c14.33,5.92,19.94,6.42,19.94,11.69c0,2.62-1.99,5.1-7.26,5.1c-11.04,0-16.64-7.41-24.7-7.41c-5.75,0-10.54,5.1-10.54,12.34
		c0,11.35,18.11,17.78,34.25,17.78c17.63,0,32.93-10.7,32.93-28.8C618.36,183.55,578.17,185.86,578.17,175.82z"/>
	<g>
		<path class="st2" d="M704.92,216.42h-15.8c1.32-1.47,2.69-2.96,4.11-4.51c10.7-11.63,22.86-24.83,22.86-40.91
			c0-2.35-0.23-4.66-0.69-6.88c-1.3-6.46-4.49-12.21-9.3-16.6c-1.41-1.3-2.94-2.46-4.55-3.48c-5.48-3.42-12.05-5.27-19.06-5.27
			c-9.82,0-18.93,3.61-25.63,10.16c-6.53,6.38-10.12,14.84-10.12,23.82c0,6.65,4.76,13.71,13.58,13.71
			c9.09,0,11.44-7.03,13.16-12.17c1.83-5.48,2.92-8.12,7.66-8.12c3.78,0,5.12,1.51,5.12,5.79c0,7.26-15.26,24.24-20.99,30.62
			c-1.01,1.13-1.89,2.1-2.54,2.83c-0.84,0.97-2.1,2.18-3.53,3.61c-5.83,5.73-13.81,13.58-13.81,21.24c0,7.39,6.55,12.76,15.59,12.76
			h43.93c8.73,0,13.31-6.7,13.31-13.31C718.22,223.11,713.65,216.42,704.92,216.42z M704.92,236.54h-43.93
			c-6.32,0-9.15-3.17-9.15-6.3c0-4.97,7.43-12.28,11.88-16.64c1.53-1.49,2.83-2.79,3.86-3.95c0.65-0.73,1.51-1.68,2.5-2.77
			c10.93-12.19,22.62-25.96,22.62-34.94c0-7.89-4.09-12.24-11.56-12.24c-9.59,0-12.01,7.24-13.79,12.53
			c-1.87,5.62-2.98,7.77-7.03,7.77c-5.65,0-7.14-4.74-7.14-7.26c0-7.22,2.92-14.04,8.19-19.23c5.48-5.35,12.99-8.31,21.11-8.31
			c7.68,0,14.31,2.58,19.12,6.97c3.09,2.83,5.41,6.4,6.74,10.51c0.84,2.58,1.28,5.37,1.28,8.31c0,13.56-10.75,25.25-21.13,36.54
			c-3.21,3.48-6.23,6.76-8.9,10.07l-4.26,5.25h29.59c5.41,0,6.86,4.3,6.86,6.84C711.78,232.24,710.33,236.54,704.92,236.54z"/>
	</g>
	<g>
		<path class="st2" d="M636.52,140.1c-5.29,0-9.44,2.64-12.36,7.83l-8.31,14.9l-2.71,4.85l-0.06,0.13c-0.86,1.6-2.31,4.26-2.35,7.77
			v0.13c0,7.18,5.65,12.36,13.43,12.36c5.29,0,9.44-2.62,12.34-7.83l11.04-19.77l0.06-0.1c0.88-1.62,2.35-4.3,2.35-7.89
			C649.95,145.31,644.3,140.1,636.52,140.1z M641.93,157.27l-11.06,19.81c-1.78,3.19-3.78,4.53-6.72,4.53
			c-4.24,0-6.99-2.31-6.99-5.92c0-1.93,0.86-3.5,1.55-4.79l0.06-0.11l11-19.73c1.78-3.17,3.8-4.53,6.74-4.53
			c4.24,0,6.97,2.33,6.97,5.92C643.49,154.4,642.62,155.99,641.93,157.27z"/>
	</g>
	<g>
		<g>
			<path class="st2" d="M777.83,186.44c5.6-5.12,7.98-10.7,7.98-18.43c0-7.91-3.17-15.13-8.92-20.34c-5.65-5.1-13.45-7.93-22-7.93
				c-8.1,0-16.37,2.67-22.69,7.28c-1.93,1.43-3.63,2.98-5.04,4.64c-2.64,3.06-4.39,6.46-5.06,9.95c-0.23,1.11-0.34,2.22-0.34,3.34
				c0,6.84,5.5,12.4,12.26,12.4c4.87,0,7.83-2.33,11.59-6.63c3.82-4.22,6.04-5.04,8.58-5.04c3.25,0,5.27,1.74,5.27,4.55
				c0,1.32,0,4.39-6.55,6.21l-0.31,0.08c-5.92,1.66-6.99,1.95-8.9,3.69l-0.13,0.1c-1.99,1.99-3.32,5.48-3.32,8.69
				c0,3.88,1.66,7.43,4.55,9.74l0.04,0.04c2.52,1.93,4.6,2.43,9.19,2.88c7.05,0.63,8.46,3.23,8.46,7.22c0,5.31-3.36,8.75-8.58,8.75
				c-3.53,0-6.93-2.12-8.88-5.48c-2.88-5-3-5.23-3.92-6.15c-2.27-2.6-5.33-3.97-8.9-3.97c-7.18,0-13.24,5.81-13.24,12.7
				c0,7.89,6.17,17.63,14.69,23.15c5.92,3.8,13.2,5.79,21.09,5.79c9.97,0,19.08-3.32,25.67-9.36c6.7-6.13,10.37-14.67,10.37-24.03
				C790.8,200.21,786.67,192.53,777.83,186.44z M754.76,237.26c-6.65,0-12.74-1.66-17.59-4.76c-6.59-4.26-11.75-12.07-11.75-17.73
				c0-3.27,3.25-6.23,6.8-6.23c1.72,0,3.04,0.59,4.09,1.78l0.17,0.19c0.38,0.38,0.38,0.4,2.96,4.91c3.13,5.35,8.67,8.69,14.48,8.69
				c8.71,0,15.05-6.38,15.05-15.2c0-8.21-4.83-12.8-14.33-13.64c-4.16-0.4-4.76-0.73-5.81-1.53c-1.34-1.09-2.12-2.81-2.12-4.7
				c0-1.64,0.71-3.36,1.39-4.07c0.69-0.63,0.92-0.71,6.23-2.2l0.31-0.08c9.32-2.6,11.27-8.19,11.27-12.42
				c0-6.38-4.93-11.02-11.71-11.02c-4.89,0-8.77,2.08-13.39,7.2l-0.02,0.04c-3.51,4.01-4.81,4.45-6.76,4.45
				c-3.21,0-5.81-2.67-5.81-5.96c0-9.63,12.97-18.74,26.68-18.74c14.17,0,24.45,9.17,24.45,21.81c0,7.16-2.33,11.4-8.94,16.16
				l-4.11,2.96l4.43,2.48c9.55,5.33,13.64,11.52,13.64,20.69C784.36,225.92,771.91,237.26,754.76,237.26z"/>
		</g>
	</g>
</g>
</svg>
