<?xml version="1.0" encoding="utf-8"?>
<!-- Generator: Adobe Illustrator 26.5.0, SVG Export Plug-In . SVG Version: 6.00 Build 0)  -->
<svg version="1.1" id="Layer_1" xmlns="http://www.w3.org/2000/svg" xmlns:xlink="http://www.w3.org/1999/xlink" x="0px" y="0px"
	 viewBox="0 0 1000 268" style="enable-background:new 0 0 1000 268;" xml:space="preserve">
<style type="text/css">
	.st0{fill:#FFFFFF;}
	.st1{fill:#9E0059;}
</style>
<g>
	<g>
		<path class="st0" d="M34.88,111.61l-3.21,11.66c-3.22,11.66-7.64,16.28-15.68,16.28c-8.45,0-15.68-6.83-15.68-14.88
			c0-3.41,0.2-4.42,2.61-10.65L37.9,17.54C41.92,6.69,49.95,0.46,60.61,0.46S79.3,6.69,83.32,17.54l34.98,96.48
			c2.41,6.23,2.61,7.44,2.61,10.65c0,8.04-7.03,14.88-15.67,14.88c-8.05,0-12.27-4.42-15.69-16.28l-3.21-11.66H34.88z M60.81,33.02
			L44.53,84.08h32.56L60.81,33.02z"/>
		<path class="st0" d="M219.79,97.34c0,10.45-2.21,18.09-7.24,24.32c-8.44,10.85-23.12,17.49-38.59,17.49s-30.14-6.64-38.59-17.49
			c-5.03-6.23-7.24-13.87-7.24-24.32V53.52c0-7.03,0.2-8.84,2.01-12.26c2.21-4.42,7.44-7.43,12.86-7.43
			c5.23,0,10.45,3.01,12.67,7.43c1.81,3.42,2.01,5.03,2.01,12.26v40.2c0,6.23,1.2,9.25,4.61,12.66c3.22,3.01,7.25,4.62,11.66,4.62
			c4.42,0,8.44-1.61,11.66-4.62c3.42-3.42,4.62-6.43,4.62-12.66v-40.2c0-7.03,0.2-8.84,2.01-12.26c2.21-4.42,7.43-7.43,12.86-7.43
			c5.23,0,10.45,3.01,12.66,7.43c1.82,3.42,2.01,5.03,2.01,12.26V97.34z"/>
		<path class="st0" d="M276.26,118.85c0,7.03-0.2,8.84-2,12.26c-2.22,4.42-7.44,7.44-12.67,7.44c-5.42,0-10.66-3.01-12.86-7.44
			c-1.82-3.41-2.01-5.03-2.01-12.26V61.97c-7.83,0.2-12.26-1.21-14.87-4.22c-2.22-2.81-3.42-5.83-3.42-9.04
			c0-6.83,4.42-12.06,11.45-13.06c2.01-0.4,2.01-0.4,6.84-0.4V19.96c0-7.04,0.2-8.84,2.01-12.06c2.21-4.42,7.44-7.44,12.86-7.44
			c5.23,0,10.45,3.01,12.67,7.23c1.8,3.42,2,5.03,2,12.26v15.28h5.42c6.44,0,8.24,0.2,11.26,1.81c3.82,2.01,6.63,6.83,6.63,11.66
			s-2.81,9.65-6.63,11.46c-3.21,1.61-4.62,1.81-11.26,1.81h-5.42V118.85z"/>
		<path class="st0" d="M399.07,97.34c0,10.45-2.22,18.09-7.25,24.32c-8.44,10.85-23.11,17.49-38.58,17.49
			c-15.48,0-30.15-6.64-38.6-17.49c-5.02-6.23-7.23-13.87-7.23-24.32V53.52c0-7.03,0.2-8.84,2.01-12.26
			c2.21-4.42,7.43-7.43,12.86-7.43c5.23,0,10.45,3.01,12.67,7.43c1.81,3.42,2.01,5.03,2.01,12.26v40.2c0,6.23,1.2,9.25,4.62,12.66
			c3.22,3.01,7.24,4.62,11.66,4.62c4.42,0,8.44-1.61,11.65-4.62c3.42-3.42,4.62-6.43,4.62-12.66v-40.2c0-7.03,0.2-8.84,2.01-12.26
			c2.21-4.42,7.44-7.43,12.87-7.43c5.22,0,10.45,3.01,12.66,7.43c1.81,3.42,2.01,5.03,2.01,12.26V97.34z"/>
		<path class="st0" d="M416.34,50.91c0-10.25,5.82-17.08,14.67-17.08c5.83,0,9.04,2.01,14.27,9.65
			c8.24-7.44,15.48-10.25,25.93-10.25c7.23,0,14.67,1.81,20.1,5.03c3.01,1.61,4.83,3.42,8.24,7.84
			c11.87-9.65,19.7-12.86,30.95-12.86c20.5,0,35.57,14.47,35.57,34.17v51.46c0,7.03-0.2,8.84-2,12.26
			c-2.22,4.42-7.43,7.44-12.67,7.44c-5.42,0-10.65-3.01-12.86-7.44c-1.82-3.41-2.01-5.03-2.01-12.26V74.03
			c0-9.04-6.04-15.28-15.08-15.28c-9.04,0-15.47,6.23-15.47,15.28v44.82c0,7.03-0.2,8.84-2.01,12.26
			c-2.21,4.42-7.44,7.44-12.66,7.44c-5.43,0-10.66-3.01-12.87-7.44c-1.8-3.41-2.01-5.03-2.01-12.26V76.84
			c0-11.46-5.63-18.09-15.27-18.09c-8.84,0-15.28,6.43-15.28,15.28v44.82c0,7.03-0.2,8.84-2.01,12.26
			c-2.22,4.42-7.43,7.44-12.67,7.44c-5.42,0-10.65-3.01-12.86-7.44c-1.82-3.41-2.01-5.03-2.01-12.26V50.91z"/>
		<path class="st0" d="M583.56,51.11c0-10.45,6.03-17.28,15.07-17.28c6.64,0,10.86,3.01,13.67,10.25
			c8.64-8.04,15.67-10.86,27.13-10.86c10.25,0,18.89,3.02,25.73,8.84c7.83,7.04,10.65,14.27,10.65,28.34v48.44
			c0,7.03-0.2,8.84-2.01,12.26c-2.21,4.42-7.43,7.44-12.66,7.44c-5.43,0-10.65-3.01-12.86-7.44c-1.81-3.41-2.01-5.03-2.01-12.26
			V77.44c0-11.46-6.44-18.69-16.48-18.69c-9.45,0-16.68,7.64-16.68,17.49v42.61c0,7.03-0.2,8.84-2.01,12.26
			c-2.21,4.42-7.44,7.44-12.66,7.44c-5.43,0-10.66-3.01-12.87-7.44c-1.8-3.41-2-5.03-2-12.26V51.11z"/>
	</g>
	<g>
		<path class="st1" d="M37.5,177.68h26.3c6.77,0,8.42,0.2,11.7,1.85c4.11,2.06,6.99,7.19,6.99,12.12c0,5.14-2.88,10.27-6.99,12.33
			c-3.29,1.64-4.93,1.85-11.7,1.85H37.5v26.51h29.37c6.78,0,8.43,0.2,11.71,1.85c4.1,2.06,6.98,7.19,6.98,12.12
			c0,5.14-2.88,10.27-6.98,12.33c-3.29,1.64-4.72,1.85-11.71,1.85H28.87c-16.43,0.82-23.63-6.37-22.8-22.8v-91.43
			c0-9.45,0.61-12.12,3.29-15.82c3.69-4.93,8.43-6.98,15.61-6.98h3.9h38.01c6.78,0,8.43,0.2,11.71,1.85
			c4.1,2.06,6.98,7.19,6.98,12.12c0,5.14-2.88,10.27-6.98,12.33c-3.29,1.64-4.72,1.85-11.71,1.85H37.5V177.68z"/>
		<path class="st1" d="M128.92,241.78c0,7.19-0.2,9.04-2.06,12.53c-2.26,4.52-7.61,7.6-12.94,7.6c-5.55,0-10.89-3.08-13.16-7.6
			c-1.84-3.49-2.05-5.14-2.05-12.53V129.81c0-7.19,0.21-9.04,2.05-12.33c2.27-4.52,7.61-7.6,13.16-7.6c5.33,0,10.68,3.08,12.94,7.4
			c1.86,3.49,2.06,5.14,2.06,12.53V241.78z"/>
		<path class="st1" d="M173.69,218.36c4.52,12.12,12.13,17.88,24.04,17.88c7.19,0,9.04-0.62,24.86-8.43
			c1.85-0.82,4.31-1.44,6.58-1.44c6.15,0,12.12,5.96,12.12,12.33c0,12.33-21.98,23.84-45.21,23.84c-32.25,0-54.85-21.78-54.85-52.59
			c0-32.05,21.98-55.68,51.78-55.68c28.14,0,50.12,22.81,50.12,52.19c0,8.42-3.9,11.92-13.14,11.92H173.69z M213.34,197.81
			c-1.44-5.75-2.46-8.22-4.31-11.09c-3.49-4.93-9.25-7.81-15.4-7.81c-10.07,0-16.65,5.75-20.96,18.9H213.34z"/>
		<path class="st1" d="M327.57,160.42c5.14,2.88,8.42,8.22,8.42,13.76c0,7.4-5.33,13.56-11.91,13.56c-2.67,0-3.49-0.2-10.89-3.08
			c-4.31-1.64-7.6-2.26-10.88-2.26c-12.94,0-22.18,10.89-22.18,26.09c0,15.61,9.25,25.89,23,25.89c3.69,0,7.81-1.03,11.92-2.88
			c5.13-2.47,5.95-2.67,8.63-2.67c6.99,0,12.53,5.96,12.53,13.76c0,4.11-2.26,8.43-5.75,11.1c-7.2,5.34-18.9,8.84-30.2,8.84
			c-14.8,0-27.12-5.34-36.57-15.61c-9.65-10.48-13.77-21.98-13.77-38.83c0-16.43,5.55-30.82,15.61-39.86
			c9.66-8.84,23.22-13.97,35.96-13.97C310.72,154.26,320.58,156.52,327.57,160.42z"/>
		<path class="st1" d="M390.22,241.78c0,7.19-0.21,9.04-2.06,12.53c-2.26,4.52-7.61,7.6-12.94,7.6c-5.55,0-10.9-3.08-13.16-7.6
			c-1.85-3.49-2.06-5.14-2.06-12.53v-58.14c-8.01,0.2-12.52-1.23-15.2-4.32c-2.26-2.88-3.49-5.96-3.49-9.25
			c0-6.98,4.51-12.33,11.71-13.35c2.05-0.41,2.05-0.41,6.98-0.41V140.7c0-7.19,0.21-9.04,2.06-12.33c2.26-4.52,7.61-7.6,13.16-7.6
			c5.33,0,10.68,3.08,12.94,7.39c1.85,3.49,2.06,5.14,2.06,12.53v15.61h5.54c6.58,0,8.43,0.2,11.51,1.85
			c3.9,2.06,6.77,6.99,6.77,11.92c0,4.93-2.88,9.86-6.77,11.71c-3.29,1.64-4.73,1.85-11.51,1.85h-5.54V241.78z"/>
		<path class="st1" d="M455.95,127.34c0,9.86-7.81,17.67-17.47,17.67c-9.86,0-17.66-7.81-17.66-17.67c0-9.66,8.02-17.47,17.87-17.47
			C448.15,109.88,455.95,117.89,455.95,127.34z M423.08,175.01c0-7.19,0.21-9.04,2.06-12.53c2.27-4.52,7.6-7.6,13.15-7.6
			c5.34,0,10.68,3.08,12.94,7.6c1.86,3.49,2.06,5.14,2.06,12.53v66.77c0,7.19-0.2,9.04-2.06,12.53c-2.26,4.52-7.6,7.6-12.94,7.6
			c-5.55,0-10.88-3.08-13.15-7.6c-1.85-3.49-2.06-5.14-2.06-12.53V175.01z"/>
		<path class="st1" d="M555.58,170.69c8.84,9.65,13.56,23.01,13.56,37.8c0,30.82-21.57,54.04-50.33,54.04
			c-13.98,0-27.74-6.16-36.98-16.44c-9.04-9.86-13.56-22.8-13.56-38.42c0-30,21.98-53.42,50.54-53.42
			C532.57,154.26,546.34,160.42,555.58,170.69z M498.06,208.08c0,15.21,8.63,26.3,20.14,26.3c11.92,0,21.16-11.51,21.16-26.09
			c0-14.38-9.25-25.88-21.16-25.88C506.89,182.4,498.06,193.7,498.06,208.08z"/>
		<path class="st1" d="M581.66,172.54c0-10.68,6.16-17.67,15.41-17.67c6.79,0,11.1,3.08,13.98,10.48
			c8.83-8.22,16.02-11.1,27.74-11.1c10.47,0,19.31,3.08,26.3,9.04c8.01,7.19,10.88,14.59,10.88,28.97v49.51
			c0,7.19-0.2,9.04-2.06,12.53c-2.26,4.52-7.6,7.6-12.94,7.6c-5.55,0-10.88-3.08-13.15-7.6c-1.85-3.49-2.06-5.14-2.06-12.53v-42.32
			c0-11.71-6.58-19.11-16.84-19.11c-9.66,0-17.05,7.81-17.05,17.88v43.55c0,7.19-0.2,9.04-2.06,12.53c-2.26,4.52-7.61,7.6-12.94,7.6
			c-5.55,0-10.89-3.08-13.16-7.6c-1.84-3.49-2.05-5.14-2.05-12.53V172.54z"/>
		<path class="st1" d="M766.56,175.01c0,6.78-5.55,13.15-11.71,13.15c-3.29,0-3.49,0-12.73-4.11c-4.53-2.06-8.43-3.08-11.51-3.08
			c-4.93,0-8.02,2.05-8.02,5.34c0,3.9,1.65,4.93,15.82,10.48c13.35,5.34,17.66,7.81,23.01,13.15c4.72,5.13,7.39,11.5,7.39,18.9
			c0,19.93-16.22,33.7-39.86,33.7c-20.55,0-38.62-10.27-38.62-21.78c0-6.98,6.16-13.56,12.53-13.56c3.49,0,3.49,0,15.61,5.34
			c4.92,2.26,8.84,3.29,12.12,3.29c4.93,0,8.84-3.08,8.84-6.98c0-3.49-2.26-5.34-11.5-8.84c-15-5.55-19.11-7.6-24.25-11.3
			c-7.19-5.14-10.27-11.92-10.27-21.78c0-18.69,16.64-32.67,38.84-32.67C750.53,154.26,766.56,163.91,766.56,175.01z"/>
	</g>
	<g>
		<g>
			<path class="st0" d="M798.97,191.75c-4.98,0-9.26-2.47-11.76-6.78l-14.81-25.6c-1.13-2.04-1.78-4.5-1.78-6.75
				c0-7.92,6.44-14.12,14.66-14.12c5.01,0,9.49,2.69,11.96,7.2l14.47,25.83c1,2.01,1.55,4.24,1.55,6.28
				C813.26,185.24,806.58,191.75,798.97,191.75z M776.96,156.82l14.78,25.54c1.53,2.65,4.17,4.17,7.23,4.17
				c4.75,0,9.07-4.15,9.07-8.7c0-1.21-0.36-2.63-0.98-3.89l-14.39-25.68c-1.55-2.83-4.31-4.51-7.39-4.51c-5.29,0-9.43,3.9-9.43,8.89
				C775.85,153.98,776.26,155.55,776.96,156.82z"/>
		</g>
		<g>
			<path class="st0" d="M886.23,268.61h-52.39c-6.32,0-10.44-0.74-14.11-4.63c-2.63-2.64-4.02-5.99-4.02-9.67
				c0-5.52,2.63-9.38,8.16-15.45l0.03-0.04c6.01-6.36,30.28-34.44,34.34-39.6c7.68-10.13,10.4-15.54,10.4-20.67
				c0-5.38-3.9-9.43-9.07-9.43c-6.56,0-9.5,5.7-10.8,10.49c-2.4,8.49-3.07,10.65-5.52,13.14c-2.5,2.9-5.88,4.31-10.32,4.31
				c-9.06,0-15.39-6.71-15.39-16.31c0-22.89,20.01-42.23,43.69-42.23c11.28,0,21.71,4.01,29.36,11.29
				c7.7,7.33,11.95,17.34,11.95,28.21c0,13-4.46,23.34-16.46,38.16c-6.72,8.29-13.31,15.72-20.01,22.58h20.17
				c6.06,0,7.96,0.19,11.24,1.93c4.49,2.26,7.61,7.57,7.61,12.91c0,5.4-3.05,10.79-7.42,13.09l-0.05,0.03
				C894.13,268.43,892.35,268.61,886.23,268.61z M827.71,242.39c-5.32,5.85-6.78,8.41-6.78,11.91c0,2.28,0.87,4.36,2.52,6l0.06,0.06
				c1.95,2.08,3.91,3.01,10.33,3.01h52.39c5.87,0,6.69-0.19,9.02-1.35c2.67-1.42,4.6-4.97,4.6-8.45c0-3.4-2-6.87-4.76-8.25
				l-0.06-0.03c-2.13-1.13-2.97-1.33-8.81-1.33h-32.88l4.58-4.48c8.12-7.94,15.99-16.65,24.08-26.61
				c11.29-13.94,15.3-23.06,15.3-34.86c0-19.53-15.51-34.26-36.08-34.26c-10.08,0-19.69,3.93-27.07,11.06
				c-7.34,7.1-11.39,16.31-11.39,25.94c0,6.73,3.99,11.08,10.16,11.08c2.94,0,4.91-0.79,6.41-2.55l0.14-0.16
				c1.48-1.48,1.91-2.6,4.26-10.91c2.48-9.09,8.26-14.32,15.84-14.32c8.15,0,14.3,6.3,14.3,14.66c0,6.43-3,12.67-11.48,23.85
				l-0.03,0.04C858.19,207.75,834.01,235.72,827.71,242.39z"/>
		</g>
		<g>
			<path class="st0" d="M 935 221 c -1.2396 -0.3437 -2.4042 -1.3138 -3.6284 -1.8124 c -1.7574 -0.7159 -4.1092 -0.9814 -5.9947 -0.8552 c -2.4769 0.1655 -4.6205 0.8031 -6.7858 1.983 c -1.5581 0.8489 -2.9026 1.9148 -4.1134 3.2089 c -1.3599 1.4534 -2.6103 3.1417 -3.2902 5.048 c -0.8552 2.3977 -0.8199 4.9305 -0.5268 7.4145 c 0.657 5.5683 3.1566 10.976 6.6067 15.4155 c 1.3667 1.7588 2.8371 3.4569 4.3502 5.0903 c 1.3852 1.4954 3.1052 2.8704 4.7327 4.0994 c 5.9265 4.4761 13.0414 7.048 20.3236 8.0974 c 10.6246 1.531 21.4629 0.1388 31.0777 -4.6841 c 1.9338 -0.9699 3.9246 -1.9945 5.6729 -3.2829 c 3.2458 -2.3922 6.2656 -5.5594 8.6543 -8.8024 c 4.4444 -6.0338 6.9873 -13.3745 7.5861 -20.8237 c 0.1456 -1.8129 0.0357 -3.7027 0.014 -5.5214 c -0.0204 -1.7162 -0.348 -3.3842 -0.6668 -5.0505 c -1.0836 -5.6623 -3.2715 -10.7496 -7.0922 -15.1421 c -1.9391 -2.2292 -4.2906 -4.0691 -6.5961 -5.8821 c -0.5211 -0.4098 -2.2761 -1.2434 -2.2329 -1.9934 c 0.0249 -0.43 0.5313 -0.7471 0.8249 -0.9959 c 0.6616 -0.5605 1.2862 -1.1388 1.8606 -1.7896 c 2.0335 -2.3037 3.8674 -4.8268 5.1203 -7.6387 c 0.8003 -1.7965 1.5764 -3.7361 1.926 -5.6792 c 0.3147 -1.7486 0.3176 -3.5933 0.395 -5.3637 c 0.0601 -1.3706 0.2321 -2.7208 0.1376 -4.1016 c -0.5256 -7.6743 -3.5123 -15.2623 -8.8013 -20.9404 c -11.3227 -12.1554 -30.3595 -14.4201 -45.4524 -9.0416 c -4.2636 1.5194 -8.2921 3.3934 -11.898 6.1453 c -1.8962 1.4472 -3.7984 2.8497 -5.4733 4.5603 c -5.6983 5.8196 -9.4206 14.4974 -7.0088 22.5869 c 0.4474 1.5007 1.5989 3.0999 2.5831 4.2884 c 1.5833 1.912 3.5451 3.6882 5.866 4.6828 c 0.9609 0.4119 2.1226 0.5555 3.1528 0.6787 c 3.2859 0.3933 6.4265 0.014 9.3258 -1.6903 c 3.048 -1.7919 5.316 -4.5165 7.7328 -7.0308 c 1.1664 -1.2135 2.3622 -2.6268 3.8106 -3.5151 c 0.9538 -0.5848 1.8909 -1.3296 2.9518 -1.7107 c 3.9879 -1.4326 9.3333 -0.8596 11.164 3.5107 c 1.5029 3.5878 -0.4614 6.9213 -3.3236 9.0644 c -0.6597 0.4939 -1.4315 0.6864 -2.1612 1.038 c -2.5414 1.2248 -5.3274 1.953 -8.0455 2.6883 c -1.3133 0.3553 -2.7186 0.6895 -3.9297 1.3299 c -5.0852 2.6889 -6.3869 8.5312 -6.3238 13.802 c 0.0573 4.7888 3.5506 9.6221 7.7294 11.7244 c 1.9342 0.973 4.3408 1.3583 6.468 1.6642 c 4.3154 0.6205 9.6513 0.5034 12.4619 4.5049 c 0.4805 0.684 0.8047 1.5072 1.0666 2.2993 c 0.3912 1.183 0.3545 2.4007 0.354 3.6284 c -0.0009 2.3032 -0.5364 4.8213 -1.8432 6.7566 c -2.9016 4.2971 -8.492 6.0923 -13.459 4.649 c -3.8648 -1.1231 -6.6762 -3.9955 -8.7668 -7.2921 c -1.0391 -1.6388 -1.8421 -3.4233 -2.8907 -5.0601 c -1.0063 -1.5711 -2.7388 -2.6883 -3.6448 -4.2594 z m 36.2837 -22.559 c 0.6332 0.1656 1.0246 0.5839 1.5917 0.8836 c 1.2919 0.6832 2.5181 1.4567 3.7861 2.1638 c 5.7693 3.2173 10.981 7.6775 13.9788 13.6747 c 1.073 2.1467 1.5946 4.4604 2.0136 6.7835 c 1.526 8.4636 -0.1084 17.7211 -4.9478 24.9253 c -4.5148 6.7212 -11.4672 11.5994 -19.1043 14.1402 c -2.5676 0.8542 -5.5191 1.4714 -8.2033 1.7727 c -1.091 0.1226 -2.2166 -0.0215 -3.3129 0.0265 c -2.6421 0.1158 -5.2441 0.2231 -7.8878 -0.033 c -2.8061 -0.2717 -5.5416 -0.9834 -8.2033 -1.856 c -3.296 -1.0806 -6.4758 -2.2507 -9.396 -4.1868 c -0.5488 -0.3639 -0.9626 -0.8741 -1.4908 -1.2595 c -4.1124 -3.0013 -7.4283 -6.73 -9.9699 -11.1203 c -0.2983 -0.5152 -0.7313 -0.9481 -1.0086 -1.4728 c -0.6371 -1.2057 -1.0473 -2.6115 -1.488 -3.8988 c -0.9846 -2.8762 -1.5999 -5.8928 -0.3997 -8.8341 c 2.141 -5.2472 9.5059 -7.0397 13.9047 -3.7546 c 2.0969 1.5659 3.2438 4.2545 4.487 6.4807 c 1.4305 2.5618 3.2452 5.007 5.5213 6.8811 c 6.152 5.0655 15.8905 6.4747 22.7106 1.7953 c 1.9865 -1.363 3.5135 -3.1513 4.8943 -5.0925 c 1.1661 -1.6392 1.9667 -3.5738 2.4644 -5.5214 c 1.095 -4.2854 0.8587 -9.7086 -1.4778 -13.5608 c -2.0571 -3.3916 -6.4408 -6.1283 -10.3083 -6.9065 c -1.2193 -0.2453 -2.5514 -0.5054 -3.7781 -0.6515 c -4.1381 -0.4928 -9.5614 -0.4802 -11.2798 -5.2263 c -0.6484 -1.7907 -1.0633 -3.9611 -0.6195 -5.8369 c 0.1177 -0.4972 0.39 -0.9375 0.5512 -1.4198 c 0.3884 -1.1617 0.7866 -2.2371 1.8896 -2.9226 c 0.8796 -0.5468 2.0093 -0.8244 2.9967 -1.1084 c 2.083 -0.5988 4.2572 -1.0535 6.3102 -1.7642 c 4.2313 -1.4649 8.8218 -3.977 10.9364 -8.1324 c 0.7268 -1.4282 1.0292 -3.1176 1.2535 -4.6875 c 0.1822 -1.275 0.4504 -2.6618 0.1917 -3.9439 c -0.1824 -0.9038 -0.5783 -1.6724 -0.8994 -2.5234 c -3.343 -8.8666 -15.2333 -10.3658 -22.5108 -5.5262 c -1.1139 0.7407 -2.0317 1.6731 -3.0406 2.5277 c -0.8257 0.6993 -1.6933 1.2958 -2.4364 2.094 c -2.3816 2.558 -4.4235 5.5699 -7.7887 6.8787 c -4.3684 1.6992 -9.568 -0.9752 -10.7724 -5.5017 c -0.8014 -3.012 -0.0407 -6.2898 1.1092 -9.0829 c 2.4744 -6.0101 8.2769 -10.5013 13.9084 -13.3564 c 8.6014 -4.3608 18.3087 -5.9068 27.7791 -3.815 c 2.8221 0.6233 5.6137 1.3897 8.2033 2.7053 c 2.5832 1.3124 4.8813 3.0847 7.0114 5.0307 c 1.752 1.6006 3.2535 3.4157 4.5364 5.4246 c 1.5815 2.4766 2.429 5.2435 3.1802 8.0455 c 0.8746 3.263 0.9453 7.0692 0.5452 10.4118 c -0.7157 5.9777 -3.8046 11.1186 -8.4464 14.8992 c -1.245 1.0142 -2.5044 2.0361 -3.8271 2.9533 c -1.0699 0.7418 -2.3138 1.5031 -3.1575 2.4979 z"/>    </g>
	</g>
</g>
</svg>
