<?xml version="1.0" encoding="utf-8"?>
<!-- Generator: Adobe Illustrator 23.1.0, SVG Export Plug-In . SVG Version: 6.00 Build 0)  -->
<!DOCTYPE svg PUBLIC "-//W3C//DTD SVG 1.1//EN" "http://www.w3.org/Graphics/SVG/1.1/DTD/svg11.dtd" [
	<!ENTITY ns_extend "http://ns.adobe.com/Extensibility/1.0/">
	<!ENTITY ns_ai "http://ns.adobe.com/AdobeIllustrator/10.0/">
	<!ENTITY ns_graphs "http://ns.adobe.com/Graphs/1.0/">
	<!ENTITY ns_vars "http://ns.adobe.com/Variables/1.0/">
	<!ENTITY ns_imrep "http://ns.adobe.com/ImageReplacement/1.0/">
	<!ENTITY ns_sfw "http://ns.adobe.com/SaveForWeb/1.0/">
	<!ENTITY ns_custom "http://ns.adobe.com/GenericCustomNamespace/1.0/">
	<!ENTITY ns_adobe_xpath "http://ns.adobe.com/XPath/1.0/">
]>
<svg version="1.1" id="Layer_1" xmlns:x="&ns_extend;" xmlns:i="&ns_ai;" xmlns:graph="&ns_graphs;"
	 xmlns="http://www.w3.org/2000/svg" xmlns:xlink="http://www.w3.org/1999/xlink" x="0px" y="0px" viewBox="0 0 791.9 243.7"
	 style="enable-background:new 0 0 791.9 243.7;" xml:space="preserve">
<style type="text/css">
	.st0{fill:#FFFFFF;}
	.st1{fill:#FFA900;}
	.st2{fill:none;stroke:#FF005C;stroke-width:6.628;}
	.st3{fill:#390099;}
</style>
<metadata>
	<sfw  xmlns="&ns_sfw;">
		<slices></slices>
		<sliceSourceBounds  bottomLeftOrigin="true" height="253.7" width="1757.9" x="4.2" y="209"></sliceSourceBounds>
	</sfw>
</metadata>
<g id="Le22_Logo">
	<g>
		<path class="st0" d="M748.3,105.4c-11.4,0-17.7-9.9-17.7-21.9c0-11.9,6.3-21.9,17.7-21.9c11.4,0,17.7,9.9,17.7,21.9
			C766.1,95.4,759.8,105.4,748.3,105.4 M704.8,150.9c0,7.5,5.3,13.4,12.9,13.4s12.9-6,12.9-13.4v-28c4.6,3.8,10.3,7.3,21.4,7.3
			c22.5,0,39.9-20.7,39.9-46.7c0-26-17.4-46.7-39.9-46.7c-9.8,0-16.4,2.8-22.2,9.9c-1.8-4-5.8-8.3-12.1-8.3c-7.6,0-12.9,6-12.9,13.4
			V150.9z M665.5,15.4c0,8.6,7,15.4,15.4,15.4c8.4,0,15.4-6.8,15.4-15.4c0-8.6-7-15.4-15.4-15.4C672.5,0,665.5,6.8,665.5,15.4
			L665.5,15.4z M668,115.1c0,7.5,5.3,13.4,12.9,13.4c7.6,0,12.9-6,12.9-13.4V51.9c0-7.5-5.3-13.4-12.9-13.4c-7.6,0-12.9,6-12.9,13.4
			V115.1z M576.4,115.1c0,7.5,5.3,13.4,12.9,13.4s12.9-6,12.9-13.4V74.2c0-8.9,5.3-15.6,14.3-15.6s14.3,6.6,14.3,15.6v40.9
			c0,7.5,5.3,13.4,12.9,13.4s12.9-6,12.9-13.4V67.2c0-21.2-14.2-30.5-32.1-30.5c-9.9,0-16.6,3.1-21.9,6.5h-0.3V13.4
			C602.2,6,596.9,0,589.3,0s-12.9,6-12.9,13.4V115.1z M501.3,112.3c0,11.4,18.2,17.9,34.4,17.9c17.7,0,33.1-10.8,33.1-29
			c0-28.3-40.4-26-40.4-36.1c0-3.8,3.3-5.5,6.8-5.5c8,0,15.6,6.5,20.7,6.5c6.1,0,10.8-4.5,10.8-10.9c0-13.4-19.4-18.4-29.8-18.4
			c-20.7,0-33.3,14.6-33.3,29.3c0,13.9,7.1,18.9,20.4,24.4c14.4,6,20.1,6.5,20.1,11.8c0,2.7-2,5.1-7.3,5.1
			c-11.1,0-16.7-7.5-24.8-7.5C506.1,99.9,501.3,105,501.3,112.3 M447.5,115.1c0,7.5,5.3,13.4,12.9,13.4s12.9-6,12.9-13.4V83.7
			c0-13.3,3.6-16.2,14.9-19.5c9.4-2.8,16.2-5,16.2-13.9c0-8.1-6.6-13.4-13.3-13.4c-7.3,0-13.6,4.8-17.9,9.9c-1.7-3.8-6-8.3-12.9-8.3
			c-7.6,0-12.9,6-12.9,13.4V115.1z M379.7,74.2c0-5.8,6.6-15.6,16.7-15.6c10.1,0,16.7,9.8,16.7,15.6H379.7z M426.4,91.9
			c8.3,0,12.6-2.2,12.6-11.3c0-22.5-16.4-43.9-41.9-43.9c-26.5,0-45.2,21.8-45.2,46.7c0,26,17.4,46.7,45.2,46.7
			c19.6,0,40.6-8.3,40.6-20.9c0-6.6-5-11.1-10.8-11.1c-6,0-13.7,8.1-26.5,8.1c-16.6,0-20.7-9-20.7-14.4H426.4z M300.4,61.6
			c11.4,0,17.7,9.9,17.7,21.9c0,11.9-6.3,21.9-17.7,21.9c-11.4,0-17.7-9.9-17.7-21.9C282.6,71.6,288.9,61.6,300.4,61.6 M343.9,13.4
			C343.9,6,338.6,0,331,0c-7.6,0-12.9,6-12.9,13.4v30.6c-4.6-3.8-10.3-7.3-21.4-7.3c-22.5,0-39.9,20.7-39.9,46.7
			c0,26,17.4,46.7,39.9,46.7c9.8,0,16.4-2.8,22.2-9.9c1.8,4,5.8,8.3,12.1,8.3c7.6,0,12.9-6,12.9-13.4V13.4z M205.3,61.6
			c11.4,0,17.7,9.9,17.7,21.9c0,11.9-6.3,21.9-17.7,21.9c-11.4,0-17.7-9.9-17.7-21.9C187.5,71.6,193.8,61.6,205.3,61.6 M248.8,51.9
			c0-7.5-5.3-13.4-12.9-13.4c-6.3,0-10.3,4.3-12.1,8.3c-5.8-7.1-12.4-9.9-22.2-9.9c-22.5,0-39.9,20.7-39.9,46.7
			c0,26,17.4,46.7,39.9,46.7c9.8,0,16.4-2.8,22.2-9.9c1.8,4,5.8,8.3,12.1,8.3c7.6,0,12.9-6,12.9-13.4V51.9z M97.4,74.2
			c0-5.8,6.6-15.6,16.7-15.6c10.1,0,16.7,9.8,16.7,15.6H97.4z M144.1,91.9c8.3,0,12.6-2.2,12.6-11.3c0-22.5-16.4-43.9-41.9-43.9
			c-26.5,0-45.2,21.8-45.2,46.7c0,26,17.4,46.7,45.2,46.7c19.6,0,40.6-8.3,40.6-20.9c0-6.6-5-11.1-10.8-11.1c-6,0-13.7,8.1-26.5,8.1
			c-16.6,0-20.7-9-20.7-14.4H144.1z M0,114.1c0,8.6,6.5,13.4,13.4,13.4h42.2c8.4,0,13.4-5,13.4-12.4c0-7.8-5-12.4-13.4-12.4H26.8
			V22.9c0-9.4-5.6-14.2-13.4-14.2C5.6,8.6,0,13.4,0,22.9V114.1z"/>
		<path class="st1" d="M553.5,223.3c0,11.4,18.2,17.9,34.4,17.9c17.7,0,33.1-10.8,33.1-29c0-28.3-40.4-26-40.4-36.1
			c0-3.8,3.3-5.5,6.8-5.5c8,0,15.6,6.5,20.7,6.5c6.1,0,10.8-4.5,10.8-10.9c0-13.4-19.4-18.4-29.8-18.4c-20.7,0-33.3,14.6-33.3,29.3
			c0,13.9,7.1,18.9,20.4,24.4c14.4,6,20.1,6.5,20.1,11.8c0,2.7-2,5.1-7.3,5.1c-11.1,0-16.7-7.5-24.8-7.5
			C558.3,210.9,553.5,216,553.5,223.3 M465.9,226.1c0,7.5,5.3,13.4,12.9,13.4c7.6,0,12.9-6,12.9-13.4v-40.9
			c0-8.9,5.3-15.6,14.3-15.6s14.3,6.6,14.3,15.6v40.9c0,7.5,5.3,13.4,12.9,13.4s12.9-6,12.9-13.4v-47.9c0-21.2-14.2-30.5-32.1-30.5
			c-11.1,0-18.1,3.5-22.2,9.9c-1.7-3.8-6-8.3-12.9-8.3c-7.6,0-12.9,6-12.9,13.4V226.1z M413.8,172.6c11.4,0,17.7,9.9,17.7,21.9
			c0,11.9-6.3,21.9-17.7,21.9c-11.4,0-17.7-9.9-17.7-21.9C396.1,182.5,402.4,172.6,413.8,172.6 M413.8,147.8
			c-26.2,0-43.6,20.7-43.6,46.7c0,26,17.4,46.7,43.6,46.7s43.6-20.7,43.6-46.7C457.4,168.4,440,147.8,413.8,147.8 M334,126.4
			c0,8.6,7,15.4,15.4,15.4s15.4-6.8,15.4-15.4c0-8.6-7-15.4-15.4-15.4S334,117.8,334,126.4L334,126.4z M336.5,226.1
			c0,7.5,5.3,13.4,12.9,13.4s12.9-6,12.9-13.4v-63.3c0-7.5-5.3-13.4-12.9-13.4s-12.9,6-12.9,13.4V226.1z M288.4,226.1
			c0,7.5,5.3,13.4,12.9,13.4c7.6,0,12.9-6,12.9-13.4v-51.9h7.1c8.3,0,13.6-3.6,13.6-11.9c0-8.3-5.3-11.9-13.6-11.9h-7.1v-16.9
			c0-7.5-5.3-13.4-12.9-13.4c-7.6,0-12.9,6-12.9,13.4v16.9h-3c-8.3,0-13.6,3.6-13.6,11.9c0,8.3,5.3,11.9,13.6,11.9h3V226.1z
			 M201.6,194.5c0,26,17.4,46.7,43.6,46.7c10.3,0,30.7-5,30.7-17.9c0-5.5-4.6-11.4-10.6-11.4c-3.8,0-8.9,4.5-20,4.5
			c-11.4,0-17.7-9.9-17.7-21.9c0-11.9,6.1-21.9,19.2-21.9c10.1,0,11.9,4.3,18.6,4.3c6,0,10.6-5.1,10.6-12.1c0-13.7-19.1-17-30.7-17
			C219,147.8,201.6,168.4,201.6,194.5 M137.3,185.2c0-5.8,6.6-15.6,16.7-15.6c10.1,0,16.7,9.8,16.7,15.6H137.3z M184,202.9
			c8.3,0,12.6-2.2,12.6-11.3c0-22.5-16.4-43.9-41.9-43.9c-26.5,0-45.2,21.8-45.2,46.7c0,26,17.4,46.7,45.2,46.7
			c19.6,0,40.6-8.3,40.6-20.9c0-6.6-5-11.1-10.8-11.1c-6,0-13.7,8.1-26.5,8.1c-16.6,0-20.7-9-20.7-14.4H184z M75.7,226.1
			c0,7.5,5.3,13.4,12.9,13.4c7.6,0,12.9-6,12.9-13.4V124.4c0-7.5-5.3-13.4-12.9-13.4c-7.6,0-12.9,6-12.9,13.4V226.1z M0,225.1
			c0,8.6,6.5,13.4,13.4,13.4h42.1c8.4,0,13.4-5,13.4-12.4c0-7.8-5-12.4-13.4-12.4H26.8v-22.1h25.3c8.4,0,13.4-4.8,13.4-12.4
			c0-7.6-5-12.4-13.4-12.4H26.8v-21.4h27.7c8.4,0,13.4-4.6,13.4-12.4c0-7.4-5-12.4-13.4-12.4H13.4c-7,0-13.4,4.8-13.4,13.4V225.1z"
			/>
		<path class="st2" d="M752.8,220.1c11.5-14.2,30.9-29.6,30.9-48.9c0-17.7-13.8-29.1-30.5-29.1c-19.1,0-32.7,14.4-32.7,30.9
			c0,5,3.4,10.5,10.4,10.5c13.8,0,6.5-20.4,20.9-20.4c5.3,0,8.4,2.6,8.4,9c0,9.7-18.9,29.4-24.5,35.8c-4.3,4.9-16.6,14.7-16.6,22.8
			c0,5.7,5.1,9.6,12.4,9.6h44.2c6.8,0,10.1-5.1,10.1-10.1c0-5-3.4-10.1-10.1-10.1H752.8z M685.2,220.1
			c11.5-14.2,30.9-29.6,30.9-48.9c0-17.7-13.8-29.1-30.5-29.1c-19.1,0-32.7,14.4-32.7,30.9c0,5,3.4,10.5,10.4,10.5
			c13.8,0,6.5-20.4,20.9-20.4c5.3,0,8.4,2.6,8.4,9c0,9.7-18.9,29.4-24.5,35.8c-4.3,4.9-16.6,14.7-16.6,22.8c0,5.7,5.1,9.6,12.4,9.6
			h44.2c6.8,0,10.1-5.1,10.1-10.1c0-5-3.4-10.1-10.1-10.1H685.2z M618.7,169.5c-0.8,1.5-2,3.6-2,6.5c0,5.5,4.3,9.2,10.3,9.2
			c4.9,0,7.7-2.8,9.6-6.2l11.1-19.8c0.8-1.5,2-3.6,2-6.5c0-5.5-4.3-9.2-10.3-9.2c-4.9,0-7.7,2.8-9.6,6.2L618.7,169.5z"/>
	</g>
</g>
</svg>
